<?xml version="1.0" encoding="UTF-8" standalone="no"?>
<svg
   width="49.999992"
   height="50.000008"
   viewBox="0 0 49.999992 50.000008"
   version="1.1"
   id="svg1"
   xmlns="http://www.w3.org/2000/svg"
   xmlns:svg="http://www.w3.org/2000/svg">
  <defs
     id="defs1" />
  <path
     d="m 22.791089,0.30999523 c -0.53,0.192262 -1.31582,0.625608 -1.74627,0.96312497 -0.43046,0.337366 -4.05689,3.050352 -8.058758,6.028908 -4.0018719,2.9784038 -8.2888239,6.1690228 -9.5263479,7.0901288 -1.23767,0.921103 -2.454531,1.886653 -2.70424697,2.145723 -0.556333,0.57724 -0.869207,1.6377 -0.717136,2.43079 0.06054,0.31605 0.150034,7.04161 0.198784,14.94568 l 0.08848,14.37116 0.408627,0.55638 c 0.224687,0.30593 0.66416597,0.69166 0.97645697,0.85717 C 2.2705041,49.99577 2.6005491,50 24.791149,50 h 22.51264 l 0.6275,-0.38196 c 0.36773,-0.22385 0.77942,-0.65145 0.99494,-1.03341 l 0.36773,-0.65175 V 34.38669 20.84035 l 0.38942,-0.375 c 0.36643,-0.35293 0.37923,-0.41022 0.21814,-0.96887 -0.0942,-0.32663 -0.13214,-0.79746 -0.0843,-1.04611 0.109,-0.5656 -0.17419,-1.14813 -0.91155,-1.87576 -0.6307,-0.62244 -9.06723,-7.0224168 -15.18267,-11.5177598 -0.68032,-0.500154 -2.1955,-1.645566 -3.36696,-2.545663 -2.74223,-2.10672397 -3.40552,-2.42398697 -5.21888,-2.49593397 -1.1601,-0.0461 -1.53744,0.0014 -2.34611,0.294742 m 0.33383,3.55413297 C 22.029239,4.4480192 10.011104,13.605272 7.8377231,15.51233 c -1.277979,1.12123 -1.674383,2.13937 -1.330076,3.41643 0.254519,0.94439 0.287407,0.9784 9.4624619,9.77576 3.95516,3.79235 7.96504,7.4349 8.40306,7.63306 0.68425,0.30986 1.15268,0.0534 2.80131,-1.53341 0.76036,-0.73172 3.08508,-2.91145 5.16605,-4.84375 7.69728,-7.14696 10.42379,-9.80462 10.77042,-10.49795 0.51617,-1.03205 0.39161,-2.1436 -0.34168,-3.05231 -0.69982,-0.867 -14.80708,-11.6577248 -16.29665,-12.4654688 -1.2122,-0.657199 -2.22009,-0.681534 -3.34774,-0.08056 M 18.862659,15.19884 c -0.20955,0.1448 -0.55924,0.48459 -0.77694,0.75469 -0.3526,0.43728 -0.47848,0.49139 -1.14716,0.49215 -1.1617,0.001 -1.747431,0.23609 -2.38744,0.95723 -1.400946,1.5786 -1.164181,5.29794 0.408337,6.4157 0.612068,0.43516 0.923483,0.37938 0.984753,-0.17609 0.0348,-0.31515 -0.0693,-0.56137 -0.382871,-0.90569 -0.236911,-0.25998 -0.512531,-0.73867 -0.61236,-1.06349 -0.359441,-1.16884 0.141303,-3.50834 0.807651,-3.77406 0.1301,-0.0517 0.58893,-0.0942 1.01982,-0.0942 0.62546,0 0.81362,0.0589 0.93396,0.29232 0.0921,0.17881 0.15062,1.73731 0.15062,4.01302 0,4.07636 0.0266,4.22736 0.8791,4.97238 l 0.45287,0.39586 h 5.31507 5.31492 l 0.49478,-0.51391 0.49478,-0.51391 v -5.08392 c 0,-5.61446 0.0154,-5.51424 -0.94183,-6.12867 -0.45272,-0.29066 -0.71335,-0.30502 -5.5511,-0.30396 -4.58338,9.1e-4 -5.11309,0.0264 -5.45696,0.26451 m 13.11712,0.22567 c 0.002,0.10399 0.26369,0.38044 0.58209,0.61442 l 0.57904,0.42553 v 4.14679 c 0,4.42808 0.0236,4.55958 0.68425,3.80671 0.27853,-0.31757 0.30341,-0.58238 0.37501,-3.98703 0.0547,-2.60114 0.0285,-3.74972 -0.0917,-4.00547 -0.0926,-0.1971 -0.52825,-0.54157 -0.96816,-0.76542 -0.89832,-0.45693 -1.16506,-0.51104 -1.16055,-0.23549 m -12.48162,1.02495 c -0.32684,0.13648 -0.44035,0.65372 -0.2161,0.98398 0.11496,0.16914 3.24021,3.15328 4.15031,3.96284 0.30283,0.26935 0.70593,0.48988 0.89554,0.48988 0.25205,0 0.99436,-0.67609 2.75984,-2.51332 1.32833,-1.38226 2.41509,-2.53372 2.41509,-2.55866 0,-0.0251 -0.10288,-0.15236 -0.22861,-0.2831 -0.19879,-0.20632 -0.8337,-0.23625 -4.83863,-0.22794 -2.53559,0.005 -4.75728,0.0712 -4.93744,0.14632 m 7.91963,4.70287 c -1.70159,1.80896 -1.92904,1.9985 -2.54068,2.1173 -1.16083,0.22521 -1.45377,0.0775 -3.39402,-1.71056 -0.99159,-0.914 -1.91755,-1.72673 -2.05769,-1.80624 -0.2388,-0.13558 -0.25467,0.0475 -0.25467,2.92913 0,2.1891 0.0502,3.12578 0.17463,3.25501 0.22818,0.237 9.59795,0.26028 10.02156,0.0249 0.26515,-0.14737 0.28144,-0.34885 0.28144,-3.47644 0,-2.54491 -0.0422,-3.32001 -0.18088,-3.32001 -0.0994,0 -1.02186,0.89405 -2.04969,1.98687 m 18.52911,2.15286 c -0.28013,0.18879 -1.22967,0.73655 -2.11008,1.21751 -2.03906,1.11367 -2.58768,1.54067 -4.34865,3.38485 l -1.43806,1.5062 0.51705,0.88408 c 0.28435,0.48625 1.70989,2.65252 3.16773,4.81397 1.45799,2.16144 3.07169,4.55776 3.58612,5.325 0.51457,0.76739 0.99683,1.43456 1.07177,1.48263 0.0841,0.0541 0.13621,-3.55973 0.13621,-9.44384 0,-5.24217 -0.0164,-9.52741 -0.0364,-9.52243 -0.0199,0.005 -0.26558,0.16325 -0.54571,0.35203 m -16.00749,13.47893 c -3.54944,3.48687 -3.83074,3.69349 -5.03086,3.69349 -0.80664,0 -0.99494,-0.0623 -1.71382,-0.56681 -0.44414,-0.31167 -1.56379,-1.30306 -2.48815,-2.20286 -0.92436,-0.89979 -1.76402,-1.61397 -1.86589,-1.58707 -0.41605,0.11004 -10.0020609,10.52289 -10.0020609,10.86494 0,0.0883 6.9574309,0.14238 18.3358509,0.14238 10.9027,0 18.33585,-0.0556 18.33585,-0.13739 0,-0.13785 -12.44684,-12.91181 -12.63369,-12.96577 -0.0547,-0.0159 -1.3765,1.22582 -2.93723,2.75909"
     stroke="none"
     fill="#000000"
     fill-rule="evenodd"
     id="path1"
     style="stroke-width:0.14831" />
</svg>
