<?xml version="1.0" encoding="UTF-8" standalone="no"?>
<svg
   width="50.000076"
   height="50.00005"
   viewBox="0 0 50.000076 50.00005"
   version="1.1"
   id="svg1"
   xmlns="http://www.w3.org/2000/svg"
   xmlns:svg="http://www.w3.org/2000/svg">
  <defs
     id="defs1" />
  <path
     d="m 38.022816,0.04334583 c -0.0765,0.111345 -0.42381,0.95690097 -0.77146,1.87901297 -0.69097,1.832844 -2.25217,4.701399 -2.53145,4.651686 -0.0964,-0.01718 -0.15683,-0.137973 -0.1344,-0.26843 0.43394,-2.516697 0.12951,-3.669768 -1.19202,-4.514787 -0.52872,-0.338115 -1.30108,-0.607834 -1.74027,-0.607834 -0.18504,0 -0.0577,0.119291 0.3596,0.336827 0.35561,0.185324 0.86715,0.559731 1.13685,0.832134 0.4598,0.464278 0.49055,0.575945 0.49055,1.783775 0,1.180987 -0.0506,1.376404 -0.60704,2.342969 -0.33391,0.580024 -1.03972,1.555393 -1.56844,2.167415 -0.92901,1.075762 -1.89438,2.0158062 -1.89438,1.8450842 0,-0.04574 0.2876,-0.5735832 0.63906,-1.1730422 0.92865,-1.583525 1.25352,-2.822385 1.00281,-3.822879 -0.36466,-1.455645 -1.2461,-2.123715 -1.02217,-0.774906 0.16804,1.012628 -0.15338,2.301738 -0.91182,3.656561 -0.75736,1.352889 -1.60733,2.3168772 -3.5283,4.0019762 -0.79245,0.695235 -1.72942,1.540791 -2.08232,1.879014 -0.35272,0.338222 -0.59818,0.542552 -0.54536,0.45397 0.5705,-0.957868 0.85485,-1.657398 0.80746,-1.985957 -0.0526,-0.365924 -0.1344,-0.288079 -1.03194,0.982241 -1.23416,1.746731 -1.71386,2.586382 -2.00598,3.510427 -0.14797,0.468465 -0.28598,0.683531 -0.38022,0.593017 -0.17546,-0.168467 -0.0816,-0.713274 0.386,-2.240751 0.37371,-1.2205 0.70472,-2.817983 0.59873,-2.890137 -0.13838,-0.09417 -0.32469,0.153112 -1.98881,2.639316 -0.9424,1.407649 -1.78893,2.655958 -1.88118,2.774068 -0.299,0.382138 0.0208,-0.586789 0.47844,-1.449525 0.23496,-0.44291 0.42815,-0.871647 0.42941,-0.952606 0.007,-0.441837 -1.46569,0.851139 -2.00291,1.758435 -0.19933,0.336611 -0.4665,1.058153 -0.59366,1.603281 -0.17835,0.765457 -0.33807,1.074689 -0.70128,1.357936 -0.25866,0.201753 -0.6349,0.608371 -0.83622,0.903645 l -0.36592,0.536861 -0.01,-0.720145 c -0.007,-0.488222 0.1939,-1.192369 0.62314,-2.186421 0.71268,-1.650525 0.6803,-1.54938 0.49453,-1.54938 -0.31944,0 -1.34757,1.130629 -1.87358,2.06015 -0.90875,1.605751 -0.78973,3.263256 0.30298,4.218976 0.54554,0.477162 0.48675,0.559839 -0.23931,0.336934 -1.30163,-0.399532 -1.75637,-2.043401 -1.22132,-4.41493 0.091,-0.403398 0.0593,-0.383963 -0.52004,0.319861 -0.33933,0.412202 -0.76585,1.112806 -0.948,1.556897 -0.37696,0.919321 -0.42887,2.603347 -0.10075,3.272812 0.18341,0.374407 0.16677,0.451393 -0.14055,0.645522 -1.3150197,0.830846 -1.6595997,2.855993 -0.7864797,4.620011 l 0.10636,0.214745 -0.41205,-0.214745 c -0.93281,-0.486181 -1.71422,-2.277472 -1.92043,-4.40226 -0.13892,-1.432667 0.16804,-2.289605 1.12817,-3.15073 0.67324,-0.603754 0.70037,-0.753645 0.10238,-0.563597 -0.63671,0.20229 -1.64549,0.995555 -2.01847,1.587176 -0.79227,1.257114 -0.93951,4.441344 -0.2744,5.938864 0.45564,1.026156 1.41197,2.148518 2.36938,2.780511 1.4081697,0.929843 0.52311,0.893444 -1.0824,-0.04445 -2.02643,-1.183778 -3.12439,-3.243392 -2.94694,-5.527735 0.0814,-1.04602 0.0592,-1.204931 -0.14543,-1.039793 -0.95741,0.773402 -1.23,3.990166 -0.47446,5.59989 0.51154,1.089935 1.08168,1.707003 2.30083,2.490821 0.53577,0.344342 0.97405,0.638327 0.97423,0.653037 0,0.01471 -0.1107,0.02684 -0.24582,0.02684 -0.38618,0 -1.93417,-0.860373 -2.49853,-1.388537 l -0.51153,-0.47888 0.003,0.370005 c 0.005,0.61331 0.4835,1.762192 1.01059,2.427578 0.65588,0.828054 2.5689,1.971461 3.73975,2.235167 l 0.86444,0.194773 0.4484097,-0.25007 c 0.24654,-0.137544 1.17881,-0.897095 2.07164,-1.687998 l 1.62343,-1.438036 -0.36068,-0.419611 c -0.75627,-0.879915 -0.75157,-2.687633 0.0101,-3.896 0.37171,-0.589688 1.04351,-1.202139 1.2101,-1.103249 0.0487,0.02888 -0.1031,0.381708 -0.33717,0.784139 -0.56489,0.971181 -0.62549,3.136879 -0.10111,3.612001 0.17853,0.161702 0.41241,0.261666 0.51986,0.22226 0.10744,-0.03941 1.15294,-0.941117 2.32307,-2.00378 l 2.12754,-1.932055 -0.56724,-0.710804 c -0.56002,-0.701463 -0.56725,-0.731849 -0.55495,-2.321387 0.0112,-1.436426 0.0662,-1.715056 0.50828,-2.576933 0.67342,-1.312625 1.529,-2.33556 2.81435,-3.364615 1.72472,-1.380699 1.90325,-1.276334 0.58298,0.340799 -2.24095,2.744648 -2.95489,4.171088 -2.9643,5.922865 -0.005,0.938219 0.33554,1.771642 0.72389,1.771642 0.36918,0 1.23887,-0.751928 4.74546,-4.1028 0.5383,-0.51442 1.20992,-1.082097 1.49246,-1.261623 0.50159,-0.318573 0.8572,-0.416711 0.8572,-0.236648 0,0.130672 -6.55663,6.615416 -8.18891,8.099085 -1.28047,1.164129 -2.94152,2.58563 -6.12921,5.245454 -0.68084,0.568106 -1.23778,1.106041 -1.23778,1.195482 0,0.36979 1.67136,0.388365 3.41633,0.0379 2.373,-0.476518 4.26955,-1.307579 5.87615,-2.574786 l 1.01602,-0.801319 1.10175,-0.0031 c 1.9794,-0.0057 3.89459,-0.587648 5.05043,-1.534779 0.70598,-0.578521 0.68717,-0.703502 -0.0555,-0.367213 -0.77527,0.351 -2.00907,0.666352 -2.96648,0.758263 -0.82681,0.07935 -2.7666,-0.112741 -2.7666,-0.274014 0,-0.05487 0.0204,-0.101896 0.0452,-0.104473 0.0248,-0.0026 0.86317,-0.04488 1.86291,-0.09417 2.12501,-0.104581 2.9379,-0.30891 4.32273,-1.086392 0.57973,-0.325338 1.31231,-0.604076 1.9747,-0.751176 1.31628,-0.292375 2.78559,-0.992442 3.34814,-1.595337 l 0.42941,-0.460197 -1.11225,0.486074 c -1.42824,0.624155 -2.80169,0.928984 -4.18508,0.928984 -1.3501,0 -1.41178,-0.164279 -0.0921,-0.24513 1.39876,-0.08568 3.06053,-0.558228 3.86274,-1.098418 0.36737,-0.247278 1.2376,-0.668392 1.934,-0.935856 0.6964,-0.267357 1.55107,-0.667318 1.89927,-0.88872 0.70399,-0.447634 0.68138,-0.448064 -0.71214,-0.01353 -1.16977,0.364636 -2.79934,0.492195 -3.46336,0.271008 -0.40608,-0.135182 -0.33933,-0.150321 0.94041,-0.213993 1.77337,-0.08815 3.16798,-0.516353 4.83119,-1.483454 2.06803,-1.202569 3.82278,-3.054847 3.82278,-4.03537 0,-0.288294 -0.0586,-0.254472 -0.55821,0.322117 -1.33799,1.544334 -3.61277,3.10252 -5.23004,3.582259 -1.40545,0.416926 -2.34351,0.509051 -3.00753,0.295381 l -0.51208,-0.164709 0.99485,-0.0067 c 0.57051,-0.0038 1.31954,-0.09417 1.75619,-0.211846 0.71087,-0.191552 2.52856,-1.147916 2.36559,-1.244551 -0.0403,-0.02405 -0.50611,0.0539 -1.03465,0.173191 -0.52872,0.119184 -0.99377,0.197565 -1.03338,0.174051 -0.0396,-0.02352 0.47083,-0.230958 1.13449,-0.460949 1.36838,-0.474371 3.49302,-1.659974 4.40503,-2.458287 0.33735,-0.295273 1.04858,-0.826766 1.58038,-1.181094 0.91363,-0.6088 1.87864,-1.606825 2.12808,-2.20113 0.1078,-0.256727 0.0948,-0.254472 -0.29629,0.05369 -0.67324,0.530419 -2.67814,1.726975 -2.68158,1.600383 -0.002,-0.06464 0.3236,-0.402861 0.72299,-0.751606 0.39939,-0.348745 1.1685,-1.020572 1.70934,-1.49301 0.54084,-0.472438 1.29258,-1.095733 1.67045,-1.384994 0.83785,-0.641227 1.49951,-1.262053 1.49951,-1.406683 0,-0.05906 -0.18269,0.01933 -0.40608,0.17405 -0.43665,0.302682 -1.61962,0.845986 -1.84192,0.845986 -0.0745,0 0.4021,-0.344773 1.05924,-0.766101 1.30001,-0.833423 2.27569,-1.883738 2.72536,-2.933945 0.47771,-1.115705 0.31401,-1.252819 -0.34476,-0.288617 -0.70038,1.02519 -1.71893,1.956966 -2.55153,2.333842 -1.16181,0.526124 -1.09452,0.243842 0.16352,-0.686216 1.15475,-0.853716 1.91374,-1.639036 2.52946,-2.61709 0.42127,-0.669465 0.83043,-1.8214622 0.6027,-1.6970172 -0.0559,0.0306 -0.47029,0.489617 -0.92069,1.0200362 -0.83695,0.985677 -2.30734,2.199197 -2.66495,2.199197 -0.11341,0 -0.0577,-0.127021 0.12952,-0.295273 1.44272,-1.297057 2.92197,-2.9728152 3.38829,-3.8385572 0.30515,-0.566495 0.85196,-2.320098 0.83694,-2.684305 -0.005,-0.118109 -0.5781,0.437542 -1.27359,1.234781 -1.3937,1.597376 -1.40835,1.588249 -0.43719,-0.268431 1.18604,-2.267056 1.05219,-3.279254 -0.54338,-4.112999 -2.04017,-1.065992 -4.57198,-0.837826 -7.25918,0.654326 l -1.16633,0.647669 0.37425,-0.563704 c 0.55477,-0.835248 0.80999,-1.098632 1.82999,-1.888677 0.78865,-0.61084097 0.86299,-0.70597197 0.50032,-0.64079697 -0.63616,0.114351 -1.37814,0.55983797 -2.25018,1.35127897 -0.774,0.702643 -1.88389,2.195117 -1.88389,2.533554 0,0.09685 -0.0449,0.14957 -0.0997,0.117036 -0.0548,-0.03253 0.0297,-0.61374 0.18758,-1.291473 0.28471,-1.222003 0.31763,-3.65817097 0.0439,-3.26078597 m 2.92578,8.30534697 c -0.93535,1.167028 -2.90859,3.5715212 -4.38496,5.3431632 -2.73512,3.282368 -3.15513,3.898899 -1.27974,1.879013 2.0172,-2.172891 7.62366,-9.1909532 7.43264,-9.3043382 -0.0369,-0.02201 -0.8326,0.915026 -1.76794,2.082162 m 0.66149,6.9991642 c -1.37743,1.02476 -3.55579,2.057359 -5.73959,2.720597 l -1.14499,0.347778 0.74578,0.03232 c 0.93697,0.04069 2.91312,-0.226663 3.91213,-0.529238 1.03718,-0.314064 2.94025,-1.419568 3.38721,-1.967488 0.4267,-0.523332 0.47391,-1.052999 0.10979,-1.232418 -0.20837,-0.102756 -0.44442,0.01407 -1.27033,0.628449 m -11.36015,1.291366 c -2.12248,0.629308 -3.69037,1.694333 -4.32726,2.938991 -0.30732,0.600533 -0.36249,0.927374 -0.29176,1.729767 0.0479,0.544162 0.17057,1.077909 0.27259,1.18614 0.16551,0.175554 0.25577,0.139799 0.83459,-0.329954 1.46931,-1.192476 4.7838,-5.251253 4.56493,-5.589905 -0.11974,-0.185324 -0.23279,-0.178345 -1.05309,0.06496 m 10.21407,1.998411 c -0.34548,0.366569 -2.88182,1.45951 -4.4801,1.930767 -0.89971,0.265209 -2.40411,0.59409 -3.34325,0.730882 -1.31646,0.19166 -1.60388,0.264029 -1.25514,0.315997 0.58117,0.08654 2.44788,-0.14753 4.06352,-0.509589 1.46063,-0.327377 3.20036,-0.970322 4.00077,-1.478515 0.72732,-0.4617 1.39894,-1.047845 1.28119,-1.117852 -0.0516,-0.03049 -0.17166,0.02727 -0.26699,0.12831 m -10.9622,17.604424 c -1.14951,0.187364 -1.28029,0.279168 -1.22042,0.857045 0.0561,0.541048 0.1022,0.528486 -1.31266,0.359804 -0.79643,-0.09492 -1.26365,-0.09277 -2.03385,0.0096 -0.55006,0.07301 -1.04423,0.106513 -1.09832,0.07441 -0.0543,-0.0321 0.15918,-0.211416 0.47428,-0.398458 0.3151,-0.187042 0.53035,-0.36528 0.47825,-0.396096 -0.15918,-0.09459 -1.6605,0.290227 -2.43974,0.625228 -0.80927,0.347993 -1.82312,1.111947 -1.82312,1.373613 0,0.118646 -0.0559,0.133249 -0.19427,0.05111 -0.13837,-0.08214 -0.13837,-0.294629 0,-0.73915 0.25414,-0.815814 0.24836,-0.851677 -0.10834,-0.677948 -0.29358,0.142912 -1.6871,1.793867 -1.6871,1.998626 0,0.05605 -0.15284,0.183928 -0.33987,0.284321 -0.32831,0.176413 -0.34404,0.158696 -0.46849,-0.531385 l -0.12879,-0.713917 -0.91129,0.735929 c -1.09415,0.883673 -1.80502,1.739107 -2.34857,2.826143 -0.47916,0.957868 -1.35482,1.54863 -2.77474,1.872035 -1.33636,0.304292 -3.6800597,1.094015 -5.0372197,1.697339 -2.53073,1.125046 -5.24704,2.750661 -6.20861001,3.715723 -0.48929,0.491228 -0.43864,0.605364 0.31835,0.716172 0.40536001,0.05938 0.54536001,-0.0062 1.17574001,-0.551571 1.00606,-0.870466 3.34108,-2.253098 5.11138,-3.0265 1.66592,-0.727876 4.6050797,-1.643868 6.1060497,-1.902957 l 0.97586,-0.16836 1.76777,0.460734 c 1.69649,0.442159 1.84391,0.461056 3.66685,0.471901 1.63427,0.0097 2.07581,0.05336 3.16544,0.313097 0.6964,0.165998 1.63247,0.32362 2.08015,0.350141 l 0.81397,0.04832 -1.40184,-0.543088 c -0.77092,-0.298602 -1.40184,-0.567247 -1.40184,-0.596882 0,-0.05605 0.14724,-0.0219 1.35662,0.314493 0.76514,0.212919 3.34633,0.36367 3.34633,0.195525 0,-0.05326 -0.37804,-0.156871 -0.8402,-0.230206 -0.79697,-0.126592 -1.97705,-0.52956 -1.82131,-0.622007 0.04,-0.02373 0.43141,0.03533 0.86969,0.131101 0.88017,0.192304 3.22405,0.23085 3.96241,0.06507 0.38836,-0.08719 0.28634,-0.112634 -0.72353,-0.180493 -1.31194,-0.08826 -2.70691,-0.399961 -3.18064,-0.710589 -0.34621,-0.2272 -0.23352,-0.26274 0.29773,-0.09395 0.827,0.26274 2.3144,0.334894 3.42393,0.166212 1.3738,-0.208946 2.9549,-0.686001 3.93094,-1.186033 0.94385,-0.483497 2.52729,-1.881805 3.35646,-2.963902 0.59872,-0.781455 1.50006,-1.429554 2.16534,-1.557005 0.87511,-0.167608 -0.0678,-0.952069 -1.65146,-1.373827 -2.49147,-0.663775 -5.61586,-0.887002 -7.68732,-0.549316 M 8.4486163,39.004868 c -1.49644,1.375438 -3.43604,3.504092 -4.81835,5.288081 -1.50566,1.943329 -1.53858,2.02461 -0.91906,2.265553 0.3368,0.131102 0.57014,0.157837 0.7588,0.08719 0.14995,-0.05616 0.90062,-0.898384 1.6681,-1.871605 0.76749,-0.973329 2.30517,-2.769666 3.41724,-3.991884 1.11206,-1.222218 2.0218997,-2.295618 2.0218997,-2.385273 0,-0.157408 -0.51678,-0.385252 -0.8738397,-0.385252 -0.0959,0 -0.66059,0.446991 -1.25479,0.993193 m 21.6639497,0.529774 c -3.69887,1.080272 -6.93305,1.937961 -10.75347,2.851913 -2.61773,0.626195 -3.11136,0.91814 -0.67415,0.398781 3.60318,-0.768034 15.80534,-4.239484 14.86439,-4.228962 -0.0497,5.37e-4 -1.59629,0.440763 -3.43677,0.978268 m -5.60103,-0.456331 c -0.24636,0.273369 -0.23732,0.683209 0.0228,1.022076 0.44642,0.581742 0.86824,0.233964 0.87276,-0.719716 0.002,-0.435931 -0.0492,-0.510018 -0.3529,-0.510018 -0.19536,0 -0.43955,0.09341 -0.54265,0.207658 m 1.62161,2.517126 c 0,0.167071 1.37941,0.541908 2.38403,0.647777 0.85974,0.09073 2.20605,-0.112204 2.62425,-0.395452 0.31853,-0.215604 0.31745,-0.219576 -0.034,-0.141087 -0.92557,0.206584 -2.24023,0.195095 -3.49121,-0.03049 -1.50006,-0.270471 -1.48306,-0.269504 -1.48306,-0.08074"
     stroke="none"
     fill="#000000"
     fill-rule="evenodd"
     id="path1"
     style="stroke-width:0.139362" />
</svg>
