<?xml version="1.0" encoding="UTF-8" standalone="no"?>
<svg
   width="50"
   height="49.999996"
   viewBox="0 0 40 49.999996"
   version="1.1"
   id="svg1"
   xmlns="http://www.w3.org/2000/svg"
   xmlns:svg="http://www.w3.org/2000/svg">
  <defs
     id="defs1" />
  <path
     d="M 5.2750223,0.12716444 C 2.7885284,0.5445454 1.1916498,1.5879404 0.4058984,3.3088182 L 0.06955469,4.0455821 0.01523474,24.476113 c -0.03879997,14.498848 -0.0048,20.667425 0.1171039,21.246681 0.41794364,1.987299 2.15668616,3.473579 4.75545196,4.065012 C 5.7649418,49.987478 6.647549,50 19.834618,50 c 12.792013,0 14.09926,-0.01735 14.985452,-0.198178 2.521213,-0.514804 4.07434,-1.5667 4.862731,-3.293208 C 39.997352,45.819757 40,45.636974 40,24.91314 40,4.4163201 39.9944,3.9981341 39.692145,3.2767652 39.103065,1.8698703 37.832107,0.88656137 35.832853,0.29087642 L 34.939157,0.02457145 20.535314,0.00400145 C 9.4818824,-0.01173855 5.9323097,0.01687145 5.2750223,0.12715944 M 5.7234858,1.8484973 C 4.7834227,2.0359913 3.5395518,2.6313303 3.0023282,3.1509602 2.0415531,4.0803881 2.100729,3.0238962 2.044977,20.24451 c -0.028,8.656663 0.0048,17.910734 0.07352,20.564602 l 0.1245759,4.825214 0.4599836,0.615675 c 0.5686794,0.761235 1.4237267,1.313262 2.5596778,1.652406 0.8576953,0.256081 0.9590632,0.259413 7.9573137,0.259413 h 7.088402 l 1.042215,-0.37855 c 1.575238,-0.572247 2.545045,-1.57819 2.718822,-2.820223 0.17456,-1.247433 -0.840248,-2.63135 -2.346351,-3.199921 -0.923399,-0.348679 -2.914709,-0.421058 -11.8155096,-0.429674 l -7.5912336,-0.0074 V 24.56492 7.8038498 l 2.5304058,-0.08214 c 1.3918068,-0.04515 9.3800964,-0.03768 17.7519204,0.01654 14.443708,0.09352 15.221364,0.08835 15.221364,-0.102478 -1.52e-4,-0.188988 -0.510912,-0.201166 -8.525673,-0.202774 -4.689115,-10e-4 -8.616929,-0.04458 -8.728729,-0.09685 C 20.432538,7.2737678 20.33537,6.8691359 20.283522,6.1602889 20.153498,4.3818531 20.45605,4.5625691 17.6083,4.5625691 c -1.968894,0 -2.522158,-0.03539 -2.799798,-0.178878 -0.414519,-0.214148 -0.457343,-0.6944859 -0.07368,-0.8244219 0.149952,-0.05078 1.603888,-0.06549 3.231134,-0.03274 1.627246,0.03274 3.622292,0.03366 4.433428,0.0021 l 1.47479,-0.05744 0.310505,-0.55398 c 0.282472,-0.5041199 0.28948,-0.5815539 0.07648,-0.8616459 l -0.23404,-0.307665 -8.792113,-0.02148 c -6.6206265,-0.01608 -8.9697766,0.01402 -9.5115202,0.122124 m 5.5855802,6.8212434 -7.9026501,0.03079 V 24.510504 40.320432 l 5.4890354,-0.04285 c 3.0188857,-0.02355 10.5169837,0.0037 16.6623627,0.06043 l 11.173182,0.103283 -0.03936,-15.84267 -0.0396,-15.8426713 -0.35036,-0.03676 -0.350368,-0.03665 V 24.248224 c 0,8.561078 -0.04248,15.647364 -0.09452,15.747315 -0.08393,0.161415 -0.770487,0.18175 -6.134162,0.18175 -5.363683,0 -6.050244,-0.02034 -6.134171,-0.18175 -0.052,-0.09995 -0.09452,-7.208525 -0.09452,-15.796831 V 8.5835817 l -2.141118,0.02769 c -1.177527,0.01516 -5.697219,0.04147 -10.043759,0.05848 M 26.913484,19.272585 c -0.276863,0.204268 -0.311743,0.355113 -0.272503,1.176318 0.04296,0.896112 0.06568,0.949304 0.465751,1.090499 0.529128,0.186575 1.167095,0.07513 1.403791,-0.245397 0.294615,-0.398884 0.218775,-1.756722 -0.113208,-2.027394 -0.362048,-0.295257 -1.079431,-0.292385 -1.483831,0.006 m 4.288452,3.579275 c -0.482879,0.20197 -0.540031,0.323864 -0.542671,1.15518 -0.0032,0.916446 0.291655,1.235025 1.141406,1.235025 0.869832,0 1.126616,-0.391647 1.058872,-1.615413 -0.04016,-0.727114 -0.858,-1.10934 -1.657607,-0.774792 m -4.351204,0.232989 c -0.362511,0.381767 -0.333863,1.715938 0.04232,1.967079 0.360952,0.241031 1.325311,0.24758 1.591583,0.0108 0.318287,-0.282849 0.372167,-1.315445 0.09453,-1.805893 -0.222216,-0.392107 -0.293376,-0.427377 -0.86408,-0.427377 -0.466215,0 -0.682663,0.06399 -0.864383,0.255392 m 4.43342,3.435093 c -0.550303,0.160381 -0.622247,0.294338 -0.624887,1.16345 -0.0024,0.895192 0.296639,1.235025 1.087679,1.235025 0.777031,0 1.090023,-0.342705 1.090023,-1.193551 0,-1.024782 -0.592968,-1.484901 -1.552815,-1.204924 m -4.43342,0.241261 c -0.344295,0.36258 -0.325455,1.484901 0.03008,1.794979 0.403,0.351321 1.000327,0.41853 1.431359,0.160955 0.476023,-0.284343 0.609783,-1.178501 0.267056,-1.783835 -0.222216,-0.392221 -0.293376,-0.427491 -0.86408,-0.427491 -0.466215,0 -0.682663,0.06399 -0.864383,0.255392 m 0.417008,3.425212 c -0.455008,0.134876 -0.659463,0.545479 -0.659463,1.324406 0,0.734467 0.351455,1.08395 1.090022,1.08395 0.782792,0 1.090023,-0.341556 1.090023,-1.211473 0,-0.645315 -0.05416,-0.792025 -0.382287,-1.033975 -0.409072,-0.30192 -0.584568,-0.32708 -1.138295,-0.162908 m 4.2081,-0.02872 c -0.563224,0.06491 -0.818911,0.457247 -0.818911,1.256394 0,0.837175 0.317191,1.180684 1.090015,1.180684 0.772823,0 1.090023,-0.343509 1.090023,-1.180684 0,-1.006057 -0.392248,-1.368063 -1.361127,-1.256394 M 18.433124,42.059457 c -2.319566,0.809028 -2.98619,2.895703 -1.352095,4.232862 0.758967,0.621189 1.586446,0.887954 2.753549,0.887954 1.206343,0 2.016382,-0.274233 2.833741,-0.959298 1.48336,-1.243412 1.163367,-2.93465 -0.733119,-3.874418 -1.249319,-0.619006 -2.302742,-0.7054 -3.502076,-0.2871"
     stroke="none"
     fill="#000000"
     fill-rule="evenodd"
     id="path1"
     style="stroke-width:0.133753" />
</svg>
