<?xml version="1.0" encoding="UTF-8" standalone="no"?>
<!-- Uploaded to: SVG Repo, www.svgrepo.com, Generator: SVG Repo Mixer Tools -->

<svg
   width="29.9785"
   height="25.005531"
   viewBox="0 0 0.89935501 0.75016594"
   fill="none"
   version="1.1"
   id="svg1"
   xmlns="http://www.w3.org/2000/svg"
   xmlns:svg="http://www.w3.org/2000/svg">
  <defs
     id="defs1" />
  <path
     d="m 0.35938707,0.25071837 h 0.3160166 m -0.3160166,0.1658839 h 0.3160166 m -0.4514523,-0.1658839 h 4.514e-4 m -4.514e-4,0.1658839 h 4.514e-4 m 0.6315819,0.2902969 -0.1500764,-0.0689331 c -0.011373,-0.00523 -0.017065,-0.00784 -0.023028,-0.00968 -0.00529,-0.00163 -0.010737,-0.00282 -0.016271,-0.00353 -0.00622,-8.005e-4 -0.012585,-8.005e-4 -0.025309,-8.005e-4 h -0.4534651 c -0.050568,0 -0.075851,0 -0.095165,-0.00904 -0.016989,-0.00795 -0.030802,-0.02064 -0.039458,-0.036246 -0.00984,-0.017741 -0.00984,-0.040969 -0.00984,-0.087421 v -0.3151779 c 0,-0.046452 0,-0.069678 0.00984,-0.08742 0.00866,-0.015607 0.02247,-0.028295 0.039458,-0.036247 0.019313,-0.00904 0.044598,-0.00904 0.095165,-0.00904 h 0.5236847 c 0.050567,0 0.075853,0 0.095166,0.00904 0.016987,0.00795 0.030802,0.02064 0.039457,0.036247 0.00984,0.017742 0.00984,0.040968 0.00984,0.08742 z"
     stroke="#000000"
     stroke-width="0.0865383"
     stroke-linecap="round"
     stroke-linejoin="round"
     id="path1" />
</svg>
