<?xml version="1.0" encoding="UTF-8" standalone="no"?>
<!-- Uploaded to: SVG Repo, www.svgrepo.com, Generator: SVG Repo Mixer Tools -->

<svg
   width="24.992569"
   height="30.00177"
   viewBox="0 0 0.74977707 0.9000531"
   fill="none"
   version="1.1"
   id="svg1"
   xmlns="http://www.w3.org/2000/svg"
   xmlns:svg="http://www.w3.org/2000/svg">
  <defs
     id="defs1" />
  <path
     d="M 0.59740252,0.3137545 V 0.1774428 m 0,0 V 0.0411312 m 0,0.1363116 h -0.1112705 m 0.1112705,0 h 0.1112706 m -0.092725,0.6815582 c -0.3175062,0 -0.5748962,-0.3153161 -0.5748962,-0.7042768 0,-0.017549 5.241e-4,-0.034948 0.00155,-0.052174 0.00118,-0.01977 0.00176,-0.029655 0.006,-0.038653 0.0035,-0.00745 0.00971,-0.01452 0.016034,-0.018256 0.00764,-0.00451 0.016538,-0.00451 0.034346,-0.00451 h 0.1044939 c 0.014978,0 0.022464,0 0.028881,0.00302 0.00567,0.00267 0.010714,0.007 0.014697,0.012616 0.00451,0.00636 0.00708,0.014979 0.012182,0.03222 l 0.043252,0.1457099 c 0.00595,0.02006 0.00893,0.030089 0.00843,0.039605 -4.451e-4,0.00839 -0.00278,0.016466 -0.00675,0.023326 -0.0045,0.00778 -0.011964,0.013271 -0.026912,0.024252 l -0.050761,0.037312 c 0.044579,0.1203586 0.1242556,0.218094 0.2225403,0.2726232 l 0.030459,-0.062185 c 0.00896,-0.018307 0.013447,-0.027458 0.019795,-0.032969 0.00561,-0.00486 0.012198,-0.00773 0.019042,-0.00827 0.00776,-6.18e-4 0.015956,0.00303 0.032331,0.010323 l 0.1189406,0.052984 c 0.014072,0.00627 0.021111,0.00941 0.026301,0.014931 0.00459,0.00488 0.00812,0.011064 0.010292,0.018011 0.00247,0.00786 0.00247,0.017034 0.00247,0.035382 v 0.1280103 c 0,0.021814 0,0.032724 -0.00369,0.042075 -0.00305,0.00775 -0.00881,0.015353 -0.0149,0.019642 -0.00734,0.00518 -0.015415,0.0059 -0.031552,0.00735 -0.014072,0.00126 -0.028266,0.0019 -0.042591,0.0019 z"
     stroke="#000000"
     stroke-width="0.0821042"
     stroke-linecap="round"
     stroke-linejoin="round"
     id="path1" />
</svg>
