<?xml version="1.0" encoding="UTF-8" standalone="no"?>
<!-- Uploaded to: SVG Repo, www.svgrepo.com, Generator: SVG Repo Mixer Tools -->

<svg
   width="30"
   height="25"
   viewBox="0 0 0.9 0.75"
   fill="none"
   version="1.1"
   id="svg4"
   xmlns="http://www.w3.org/2000/svg"
   xmlns:svg="http://www.w3.org/2000/svg">
  <defs
     id="defs4" />
  <path
     d="m 0.41203431,0.1666667 c 0,0.092048 -0.0679898,0.1666666 -0.15185968,0.1666666 -0.0838698,0 -0.15185967,-0.074619 -0.15185967,-0.1666666 C 0.10831496,0.0746192 0.17630481,0 0.26017463,0 0.34404446,0 0.41203431,0.074619 0.41203431,0.1666667 Z m -0.22865701,0 c 0,0.04655 0.0343833,0.084285 0.0767973,0.084285 0.042414,0 0.076797,-0.037735 0.076797,-0.084285 0,-0.04655 -0.0343829,-0.084285 -0.076797,-0.084285 -0.042414,0 -0.0767973,0.037735 -0.0767973,0.084285 z"
     fill="#0f0f0f"
     id="path1"
     style="stroke-width:0.0397727" />
  <path
     fill-rule="evenodd"
     clip-rule="evenodd"
     d="m 0.08445856,0.4682417 c 0.0444983,-0.035383 0.10348819,-0.051575 0.17571607,-0.051575 0.0722279,0 0.13121815,0.016192 0.17571684,0.051575 0.0451934,0.035942 0.0707286,0.087912 0.0822548,0.1487541 C 0.53280451,0.6943625 0.47166961,0.75 0.41203431,0.75 H 0.10831496 c -0.0596345,0 -0.120771,-0.055638 -0.10611339,-0.1330042 0.0115277,-0.060842 0.0370624,-0.1128125 0.08225699,-0.1487541 z m 0.0445515,0.067483 c -0.0264293,0.021017 -0.0438259,0.052621 -0.0524687,0.098238 -0.001474,0.00778 4.9734e-4,0.014908 0.005892,0.021133 0.005776,0.00667 0.0151438,0.011571 0.0258815,0.011571 h 0.30371945 c 0.0107365,0 0.0201062,-0.0049 0.0258807,-0.011571 0.005395,-0.00622 0.007365,-0.013354 0.005892,-0.021133 -0.008641,-0.045617 -0.02604,-0.077221 -0.0524674,-0.098238 C 0.36421332,0.5141542 0.32288699,0.5 0.26017463,0.5 0.19746223,0.5 0.15613595,0.514154 0.12901006,0.5357247 Z"
     fill="#0f0f0f"
     id="path2"
     style="stroke-width:0.0397727" />
  <path
     d="m 0.7916835,0.1666667 c 0,0.092048 -0.0679914,0.1666666 -0.15185967,0.1666666 -0.0838683,0 -0.15185968,-0.074619 -0.15185968,-0.1666666 C 0.48796415,0.0746192 0.55595552,0 0.63982383,0 0.72369213,0 0.7916835,0.074619 0.7916835,0.1666667 Z m -0.22865511,0 c 0,0.04655 0.034381,0.084285 0.0767954,0.084285 0.0424144,0 0.0767954,-0.037735 0.0767954,-0.084285 0,-0.04655 -0.034381,-0.084285 -0.0767954,-0.084285 -0.0424144,0 -0.0767954,0.037735 -0.0767954,0.084285 z"
     fill="#0f0f0f"
     id="path3"
     style="stroke-width:0.0397727" />
  <path
     d="m 0.54628206,0.4278708 c -0.0228321,0.00615 -0.0308009,0.035329 -0.0178967,0.056896 l 0.001625,0.00271 c 0.00956,0.015975 0.0277713,0.022479 0.0448593,0.018775 C 0.59345727,0.502225 0.6149606,0.5 0.63982383,0.5 c 0.0627142,0 0.10403906,0.014154 0.13116499,0.035725 0.0264312,0.021017 0.0438267,0.052621 0.0524675,0.098238 0.001477,0.00778 -4.9734e-4,0.014908 -0.005892,0.021133 -0.005774,0.00667 -0.0151442,0.011571 -0.0258807,0.011571 H 0.60185891 c -0.0209642,0 -0.0379649,0.018654 -0.0379649,0.041667 0,0.023012 0.0170007,0.041666 0.0379649,0.041666 H 0.7916835 C 0.8513188,0.75 0.91245371,0.694362 0.89779921,0.6169958 0.88626931,0.5561542 0.86073411,0.5041833 0.81554066,0.4682417 0.77104198,0.4328583 0.71205208,0.4166667 0.63982383,0.4166667 c -0.0341912,0 -0.0654174,0.00363 -0.0935418,0.0112041 z"
     fill="#0f0f0f"
     id="path4"
     style="stroke-width:0.0397727" />
</svg>
