<?xml version="1.0" encoding="UTF-8" standalone="no"?>
<svg
   version="1.1"
   width="70"
   height="66"
   style="clip-rule:evenodd;fill-rule:evenodd;image-rendering:optimizeQuality;shape-rendering:geometricPrecision;text-rendering:geometricPrecision"
   id="svg9"
   xmlns="http://www.w3.org/2000/svg"
   xmlns:svg="http://www.w3.org/2000/svg">
  <defs
     id="defs9" />
  <g
     id="g1"
     transform="matrix(0.36649215,0,0,0.39759036,0.18324454,0.1987949)">
    <path
       style="opacity:0.882"
       fill="#fdfdfd"
       d="m 69.5,-0.5 c 6.3333,0 12.6667,0 19,0 5.5598,1.268757 10.8931,3.43542 16,6.5 5.357,6.3548 11.023,12.3548 17,18 8.199,2.8355 16.366,5.6688 24.5,8.5 1.942,10.4911 0.109,20.3244 -5.5,29.5 3.476,5.05 3.81,10.3833 1,16 3.45,5.6309 5.117,11.7975 5,18.5 -0.276,5.956 -1.443,11.623 -3.5,17 4.899,4.199 10.066,8.032 15.5,11.5 2.872,2.537 5.372,5.37 7.5,8.5 0.79,-5.789 4.124,-8.789 10,-9 7.781,0.627 12.615,4.627 14.5,12 0,4.333 0,8.667 0,13 -3.552,9.888 -10.552,15.221 -21,16 -13.333,0 -26.667,0 -40,0 -2.453,-2.803 -2.62,-5.803 -0.5,-9 1.757,-0.619 2.924,-1.786 3.5,-3.5 -2.299,-8.904 0.701,-15.404 9,-19.5 0.586,0.209 1.086,0.543 1.5,1 0.667,2 0.667,4 0,6 -4.977,9.362 -2.144,13.862 8.5,13.5 6.684,-5.028 8.184,-11.195 4.5,-18.5 -5.041,-5.098 -10.541,-9.598 -16.5,-13.5 -6.4,-6.545 -6.567,-13.379 -0.5,-20.5 0.667,-3 0.667,-6 0,-9 -2.667,-4 -5.333,-8 -8,-12 -1.388,1.0536 -2.888,1.2203 -4.5,0.5 -9.802,-7.2495 -19.469,-7.2495 -29,0 -0.948,0.4828 -1.948,0.6495 -3,0.5 -0.1519,-4.3829 1.5148,-7.8829 5,-10.5 -2.4112,-1.9555 -4.9112,-3.7888 -7.5,-5.5 -0.5726,4.186 -0.406,8.3527 0.5,12.5 -1.3377,6.0097 -2.671,12.0097 -4,18 1.9033,12.901 9.4033,20.068 22.5,21.5 3.985,-0.454 7.818,-1.454 11.5,-3 3.631,1.261 3.964,3.261 1,6 -4.917,1.939 -9.75,3.939 -14.5,6 -0.667,2.333 -0.667,4.667 0,7 2.333,6.333 4.667,12.667 7,19 1.158,4.807 0.324,9.14 -2.5,13 -3,0 -6,0 -9,0 -1.943,-0.791 -2.943,-2.291 -3,-4.5 1.667,-3 3.333,-6 5,-9 -1.832,-6.164 -3.666,-12.331 -5.5,-18.5 -0.741,-3.062 -0.575,-6.062 0.5,-9 C 84.0904,118.507 77.9238,106.507 83,88.5 84.244,85.4358 85.0773,82.2691 85.5,79 84.8473,73.5153 84.3473,68.0153 84,62.5 c -0.3515,4.0214 -2.5182,6.5214 -6.5,7.5 -3.9908,0.6417 -7.9908,1.1417 -12,1.5 -0.0359,4.4788 -0.8693,8.8121 -2.5,13 -5.6667,10 -11.3333,20 -17,30 -8.0043,20.328 -1.5043,32.995 19.5,38 18.0025,-3.179 24.0025,-13.346 18,-30.5 -0.0633,-2.942 1.27,-3.942 4,-3 6.6835,8.084 8.5168,17.25 5.5,27.5 -0.9143,2.164 -2.081,4.164 -3.5,6 4.6238,2.123 7.6238,5.623 9,10.5 -0.8805,0.708 -1.5472,1.542 -2,2.5 -23,0 -46,0 -69,0 -14.0197,-0.009 -23.35303,-6.676 -28,-20 0,-5 0,-10 0,-15 4.01063,-11.839 12.0106,-16.005 24,-12.5 3.6265,2.251 4.7931,5.418 3.5,9.5 -3.4285,1.513 -6.4285,0.847 -9,-2 -8.19556,5.154 -9.52889,11.821 -4,20 6.7573,6.648 14.5907,8.482 23.5,5.5 -2.7308,-2.626 -4.5642,-5.793 -5.5,-9.5 -2.1928,-12.458 -0.1928,-24.125 6,-35 5.6667,-8.3333 11.3333,-16.6667 17,-25 C 57.9414,77.3199 58.108,73.1532 55.5,69 33.7576,59.3871 29.2576,44.2205 42,23.5 48.9155,12.7401 58.0822,4.74014 69.5,-0.5 Z m 3,9 c 9.9833,-1.297 19.3167,0.53633 28,5.5 2.9,2.3968 5.233,5.2302 7,8.5 -0.333,0.3333 -0.667,0.6667 -1,1 -5.967,-4.7848 -10.3004,-3.6182 -13,3.5 1.4353,6.0513 5.1019,7.8846 11,5.5 1.694,-2.0543 2.861,-4.3877 3.5,-7 7.37,5.2385 15.536,8.7385 24.5,10.5 -4.615,1.077 -6.115,3.9103 -4.5,8.5 1.708,2.0435 3.708,3.7101 6,5 0.857,3.0505 0.19,5.7172 -2,8 -7.452,5.039 -15.619,7.8724 -24.5,8.5 -5.137,-6.5685 -11.8035,-9.9018 -20,-10 -1.2014,0.9025 -2.0348,2.0692 -2.5,3.5 C 84.6542,47.7841 81.6542,36.7841 76,26.5 73.5202,24.9103 71.6868,25.4103 70.5,28 72.2678,34.6366 74.4344,41.1366 77,47.5 79.4166,60.4093 74.2499,64.9093 61.5,61 57.2211,59.5272 53.2211,57.5272 49.5,55 44.5212,49.9669 43.3546,44.1336 46,37.5 52.2598,25.4101 61.0931,15.7434 72.5,8.5 Z m 57,62 c 1.333,0 2.667,0 4,0 -0.221,2.8919 -1.054,5.5585 -2.5,8 -1.167,-2.5 -3,-4.3333 -5.5,-5.5 1.358,-0.9344 2.692,-1.7677 4,-2.5 z m 44,63 c 2.222,-0.322 4.056,0.345 5.5,2 2.866,10.256 -0.968,16.589 -11.5,19 -0.333,-0.333 -0.667,-0.667 -1,-1 2.348,-6.03 2.348,-12.03 0,-18 1.843,-0.255 3.843,-0.422 6,-0.5 0.556,-0.383 0.889,-0.883 1,-1.5 z"
       id="path1" />
  </g>
  <g
     id="g2"
     transform="matrix(0.36649215,0,0,0.39759036,0.18324454,0.1987949)">
    <path
       style="opacity:1"
       fill="#373737"
       d="m 99.5,25.5 c 1.965,0.4483 2.298,1.4483 1,3 -0.8857,-0.825 -1.219,-1.825 -1,-3 z"
       id="path2" />
  </g>
  <g
     id="g3"
     transform="matrix(0.36649215,0,0,0.39759036,0.18324454,0.1987949)">
    <path
       style="opacity:0.012"
       fill="#fefffe"
       d="m 96.5,91.5 c -0.7389,0.131 -1.4056,-0.0357 -2,-0.5 0.9368,-0.6917 1.6034,-0.525 2,0.5 z"
       id="path3" />
  </g>
  <g
     id="g4"
     transform="matrix(0.36649215,0,0,0.39759036,0.18324454,0.1987949)">
    <path
       style="opacity:0.763"
       fill="#fcfcfc"
       d="m 96.5,91.5 c 5.521,-1.4302 8.854,0.5698 10,6 -1.285,2.521 -1.952,5.187 -2,8 -0.667,0 -1,0.333 -1,1 -0.661,-1.218 -1.328,-2.551 -2,-4 -2.3615,1.276 -4.5281,0.942 -6.5,-1 -0.963,-3.6487 -0.463,-6.982 1.5,-10 z"
       id="path4" />
  </g>
  <g
     id="g5"
     transform="matrix(0.36649215,0,0,0.39759036,0.18324454,0.1987949)">
    <path
       style="opacity:0.815"
       fill="#fdfdfd"
       d="m 124.5,102.5 c -2.863,3.271 -6.197,3.771 -10,1.5 -3.776,-8.443 -1.109,-11.7764 8,-10 1.679,2.5645 2.346,5.3979 2,8.5 z"
       id="path5" />
  </g>
  <g
     id="g6"
     transform="matrix(0.36649215,0,0,0.39759036,0.18324454,0.1987949)">
    <path
       style="opacity:0.023"
       fill="#fefffe"
       d="m 125.5,98.5 c 1.832,0.6405 2.165,1.64 1,3 -0.886,-0.825 -1.219,-1.825 -1,-3 z"
       id="path6" />
  </g>
  <g
     id="g7"
     transform="matrix(0.36649215,0,0,0.39759036,0.18324454,0.1987949)">
    <path
       style="opacity:1"
       fill="#757575"
       d="m 117.5,98.5 c 1.837,0.1395 2.17,0.8061 1,2 -0.798,-0.457 -1.131,-1.1236 -1,-2 z"
       id="path7" />
  </g>
  <g
     id="g8"
     transform="matrix(0.36649215,0,0,0.39759036,0.18324454,0.1987949)">
    <path
       style="opacity:0.00499998"
       fill="#fefffe"
       d="m 124.5,102.5 c 2.501,0.011 2.668,0.678 0.5,2 -0.464,-0.594 -0.631,-1.261 -0.5,-2 z"
       id="path8" />
  </g>
  <g
     id="g9"
     transform="matrix(0.36649215,0,0,0.39759036,0.18324454,0.1987949)">
    <path
       style="opacity:0.795"
       fill="#fdfdfd"
       d="m 104.5,105.5 c 3.045,0.008 6.045,0.341 9,1 0.162,2.027 -0.005,4.027 -0.5,6 -6.369,2.765 -9.536,0.765 -9.5,-6 0.667,0 1,-0.333 1,-1 z"
       id="path9" />
  </g>
</svg>
