<?xml version="1.0" encoding="UTF-8" standalone="no"?>
<svg
   width="50"
   height="60.000008"
   viewBox="0 0 60 70.000008"
   version="1.1"
   id="svg1"
   xmlns="http://www.w3.org/2000/svg"
   xmlns:svg="http://www.w3.org/2000/svg">
  <defs
     id="defs1" />
  <path
     d="m 6.635174,0.17224862 c -0.568312,0.147289 -0.618537,0.201424 -0.901456,0.97195298 -0.72938,1.986319 -1.289774,6.819246 -1.304496,11.2511774 -0.01014,3.040167 0.117399,4.240996 0.614084,5.783597 0.232323,0.721021 0.309022,1.197281 0.273394,1.696521 -0.131378,1.844428 -0.04849,2.99467 0.285269,3.956906 0.181108,0.52222 0.365556,1.250953 0.409843,1.619407 0.112203,0.933549 0.377926,1.591645 0.740513,1.833477 0.38473,0.256792 0.331041,0.686166 -0.273146,2.187125 -0.229601,0.570494 -0.417513,1.137286 -0.417513,1.25959 0,0.12215 0.153026,0.36213 0.340196,0.53317 l 0.340195,0.310927 -0.772924,3.750392 C 5.54395,37.389307 5.101944,39.505178 4.986772,40.028324 l -0.209313,0.951285 0.442254,0.610286 c 0.94228,1.300306 1.655825,3.439003 1.547952,4.639678 l -0.06062,0.675061 0.636104,-0.09531 c 0.349721,-0.05244 1.83285,-0.106418 3.295691,-0.120144 1.472242,-0.01373 2.323597,-0.06601 1.90695,-0.116906 -0.620764,-0.07603 -0.804964,-0.167955 -1.051513,-0.524225 C 11.27482,45.730645 11.031487,45.58567 10.576986,45.501306 10.0229,45.39859 9.993829,45.374993 10.298644,45.274898 11.123897,45.004071 10.233824,44.253746 9.057363,44.228607 l -0.707112,-0.01511 0.64798,-0.254787 c 0.677299,-0.266353 1.394183,-0.948818 0.996588,-0.948818 -0.254343,0 -0.619775,-0.438165 -0.525015,-0.629409 0.0386,-0.07789 -0.01373,-0.141737 -0.116409,-0.141737 -0.102677,0 -0.231209,-0.09732 -0.28564,-0.216229 C 9.013325,41.903452 8.77395,41.704033 8.535813,41.579416 L 8.102836,41.352545 8.443032,41.239186 c 0.374339,-0.124925 0.415039,-0.233503 0.191747,-0.511887 -0.115419,-0.143895 -0.101688,-0.185075 0.06185,-0.185075 0.303702,0 0.258549,-0.253552 -0.06804,-0.381717 -0.255208,-0.100095 -0.242466,-0.12215 0.154635,-0.265583 0.844056,-0.305065 0.824881,-0.286403 0.510664,-0.497543 l -0.293434,-0.197105 0.355288,-0.09223 c 0.247786,-0.06431 0.440646,-0.281314 0.637341,-0.717012 0.155129,-0.343777 0.322629,-0.624937 0.372235,-0.624937 0.04961,0 0.222303,0.468394 0.383865,1.041047 0.660474,2.341817 1.229281,3.438696 3.260681,6.288235 0.527242,0.739529 0.958733,1.405799 0.958733,1.480446 0,0.07449 -0.347865,0.145593 -0.773172,0.157777 l -0.773171,0.02205 0.98966,0.115672 c 1.079595,0.126005 2.757439,0.570031 4.020492,1.063873 0.442255,0.173045 0.887602,0.315707 0.98966,0.317249 0.291208,0.0043 2.458686,-1.895631 3.265754,-2.862648 0.716885,-0.859057 0.728389,-0.865998 0.652557,-0.393439 -0.08301,0.51713 0.03921,0.62324 0.287743,0.249851 0.243828,-0.366294 0.325351,-0.273448 0.27092,0.308459 -0.02784,0.296891 -0.01819,0.539802 0.02152,0.539802 0.03959,0 0.310134,-0.143125 0.601094,-0.318021 l 0.529097,-0.31802 0.804099,0.973495 c 0.442254,0.535483 1.131799,1.177386 1.532241,1.42662 0.893291,0.555996 1.141696,0.874788 1.24895,1.60383 0.04577,0.310618 0.249766,0.890982 0.453512,1.289665 0.490624,0.959768 0.443244,1.447595 -0.192736,1.984467 -0.265972,0.224558 -0.683484,0.496156 -0.927806,0.603654 -0.244199,0.107343 -1.000794,0.530548 -1.681185,0.940644 -0.680391,0.409941 -1.590631,0.847952 -2.022865,0.973495 -0.43211,0.125388 -0.814737,0.264349 -0.850241,0.308612 -0.251869,0.314011 0.602579,1.019147 1.234972,1.019147 0.550993,0 1.755161,-0.478573 2.150778,-0.854738 0.219333,-0.208518 0.527612,-0.379558 0.685215,-0.380021 0.619404,-0.0019 1.181036,-0.330513 1.707535,-0.999406 0.301475,-0.382951 0.610249,-0.69619 0.686205,-0.69619 0.07608,0 0.456357,0.307995 0.845046,0.684315 0.495943,0.480115 0.917786,0.742768 1.413358,0.88034 0.388565,0.107652 0.929166,0.389275 1.201323,0.625554 0.535406,0.465155 1.620444,0.792584 2.146572,0.648226 0.989289,-0.271752 1.147016,-0.386962 1.1078,-0.809704 -0.03612,-0.389583 -0.08202,-0.414722 -0.949578,-0.522683 -0.789749,-0.09809 -1.161861,-0.266971 -2.783418,-1.262829 -1.029494,-0.632185 -2.00035,-1.299073 -2.157459,-1.481989 -0.353556,-0.411637 -0.281187,-1.05138 0.206468,-1.822989 0.463532,-0.733823 0.631898,-1.132197 0.634001,-1.499725 0.0022,-0.378787 0.314217,-0.75449 1.23893,-1.491397 0.746451,-0.594862 1.494015,-1.420451 1.692319,-1.86895 0.12247,-0.276996 0.144985,-0.274682 0.613712,0.06169 l 0.486542,0.349021 0.349968,-0.404235 c 0.278095,-0.321414 0.333021,-0.487673 0.267951,-0.810938 l -0.08189,-0.406702 0.407864,0.410404 c 1.139222,1.147003 1.873302,1.801243 2.934836,2.615728 l 1.16619,0.894838 1.864643,-0.702823 c 1.025411,-0.386498 1.975856,-0.727499 2.111934,-0.757574 0.136078,-0.03023 0.233683,-0.136647 0.216983,-0.236433 -0.03056,-0.183225 0.252734,-0.559544 1.980062,-2.631151 1.036545,-1.243088 1.788315,-2.825788 2.31803,-4.88043 0.153026,-0.593783 0.313104,-1.127107 0.355783,-1.185252 0.04256,-0.05799 0.27228,0.237513 0.510417,0.656862 0.238137,0.41935 0.559776,0.80446 0.714658,0.855973 0.228364,0.07588 0.253724,0.135413 0.134223,0.314936 -0.119254,0.179214 -0.09538,0.238284 0.125439,0.310309 0.150057,0.04889 0.250879,0.166876 0.224158,0.262036 -0.02685,0.09531 0.06235,0.250314 0.198179,0.344702 0.223663,0.155309 0.201644,0.183533 -0.234673,0.299205 l -0.481593,0.127701 0.49483,0.08637 0.49483,0.08637 -0.711318,0.502633 c -0.737049,0.520678 -0.915312,0.754027 -0.432976,0.566793 0.275867,-0.107035 0.276239,-0.10503 0.04268,0.22101 -0.129646,0.180911 -0.347,0.328971 -0.483078,0.328971 -0.492108,0 0.147583,0.595325 0.763399,0.71038 0.622743,0.116443 0.502747,0.263732 -0.355535,0.436315 -0.603074,0.121224 -1.593229,0.969176 -1.992928,1.706546 l -0.334257,0.616913 -1.588157,0.154229 c -1.435625,0.139424 -1.193158,0.15423 2.525241,0.15423 h 4.113273 v -0.716395 c 0,-1.491551 0.619775,-3.209202 1.64667,-4.56426 l 0.378669,-0.499703 -0.519695,-2.04508 c -0.49582,-1.951617 -1.141078,-5.156654 -1.319835,-6.555205 -0.06655,-0.521295 -0.03006,-0.762201 0.179623,-1.185098 0.247539,-0.499394 0.251745,-0.561394 0.07002,-1.042281 -0.106265,-0.281314 -0.330299,-0.789037 -0.497799,-1.128341 -0.393514,-0.796748 -0.386091,-1.048296 0.04429,-1.499725 0.513757,-0.538877 0.719359,-1.00943 0.883642,-2.0221 0.08029,-0.495075 0.280198,-1.392073 0.444358,-1.993567 0.331165,-1.214092 0.374215,-2.26316 0.154016,-3.753168 -0.139666,-0.945425 -0.132244,-1.008505 0.23925,-2.022871 0.611981,-1.671074 0.770945,-3.008087 0.770945,-6.482872 0,-4.1958064 -0.443739,-8.2896674 -1.098399,-10.1350204 -0.223416,-0.62971798 -0.300114,-0.70528998 -0.957867,-0.94357398 -0.508438,-0.184304 -0.96665,-0.235046 -1.586919,-0.175667 -1.838665,0.175821 -3.285052,1.24432098 -5.898002,4.35682098 -1.937877,2.308504 -3.102459,3.475865 -4.767314,4.779102 -1.684525,1.3185054 -2.203602,1.5134514 -3.690937,1.3857494 -1.782872,-0.153149 -3.391687,-0.479036 -4.112531,-0.8333004 -0.626207,-0.307688 -0.626454,-0.307688 -1.597063,0.002 -1.807119,0.5768174 -1.954083,0.5862254 -3.053348,0.1951 -1.239302,-0.440942 -1.537437,-0.446802 -2.553075,-0.04997 C 25.385637,10.23709 22.473192,10.677415 21.513222,10.590738 20.62785,10.511006 19.140639,9.6286606 17.634995,8.2897966 17.026231,7.7486066 15.49065,6.0565576 14.222648,4.5296876 12.896751,2.9334156 11.608957,1.5248396 11.19231,1.2154556 9.679244,0.09220462 8.227165,-0.24015938 6.635174,0.17224862 M 8.212692,3.6783426 c -1.040009,0.523916 -1.793635,4.156169 -1.824686,8.7941514 -0.01942,2.898738 0.123832,3.842313 0.850489,5.602223 0.432729,1.047987 0.456976,1.338093 0.111584,1.338093 -0.157108,0 -0.155624,0.062 0.01052,0.462687 0.115542,0.278693 0.139665,0.462688 0.06062,0.462688 -0.09167,0 -0.09241,0.09038 -0.0023,0.300284 0.09897,0.230419 0.08462,0.331131 -0.06173,0.43323 -0.165026,0.115055 -0.149191,0.209289 0.117151,0.698505 0.259291,0.476568 0.279084,0.585762 0.125068,0.693106 -0.151294,0.105493 -0.128903,0.190781 0.129398,0.493225 0.390297,0.457135 0.390792,0.562474 0.0032,0.683698 -0.306918,0.09609 -0.305186,0.101329 0.247415,0.76143 0.306053,0.365677 0.556437,0.784872 0.556437,0.931699 0,0.146672 -0.05567,0.223941 -0.123708,0.171503 -0.220694,-0.169961 -0.130759,0.175667 0.119007,0.457444 0.133604,0.150682 0.30766,0.518827 0.386833,0.818031 0.124945,0.471942 0.160449,0.507723 0.267332,0.269439 0.06792,-0.151145 0.0913,-0.612599 0.05208,-1.02547 -0.07224,-0.759888 -0.0062,-0.901779 0.263373,-0.565713 0.233065,0.290568 0.172201,-0.06015 -0.09897,-0.570648 -0.292073,-0.549828 -0.320031,-1.00249 -0.06185,-1.00249 0.24692,0 0.254838,0.0384 -0.301228,-1.462402 -0.482088,-1.300769 -0.502994,-1.601979 -0.06989,-1.005266 0.377184,0.519598 0.441388,0.346553 0.179252,-0.482738 -0.137563,-0.435235 -0.226261,-0.820962 -0.19719,-0.85736 0.0292,-0.03624 0.253848,0.03856 0.499407,0.166413 0.494459,0.257717 0.577714,0.135876 0.198922,-0.291493 -0.536148,-0.604887 -0.204117,-0.733977 0.361597,-0.140503 0.335742,0.352106 0.380524,0.365832 0.379905,0.115672 -4.94e-4,-0.155926 -0.084,-0.482429 -0.185561,-0.72534 -0.225395,-0.538723 -0.2369,-0.87047 -0.03018,-0.865534 0.501139,0.01234 1.31402,0.377553 1.600774,0.719325 0.330423,0.393747 0.332279,0.394055 0.258673,0.04272 -0.04095,-0.194791 -0.372731,-0.741226 -0.737421,-1.214401 -0.364689,-0.473175 -0.6053,-0.884196 -0.534911,-0.9135 0.07051,-0.0293 0.391658,0.05629 0.713792,0.190319 l 0.585632,0.243528 -0.309269,-0.309075 c -0.170098,-0.169961 -0.712926,-0.561549 -1.206148,-0.870162 -0.493222,-0.308766 -0.896879,-0.594399 -0.896879,-0.634807 0,-0.122304 1.237693,0.122149 1.764563,0.348558 l 0.492975,0.211757 -0.417513,-0.542116 C 11.259656,15.310774 10.793526,14.884484 10.45333,14.661777 9.900853,14.299955 9.867452,14.250293 10.140103,14.197701 c 0.167871,-0.03239 0.724555,0.05645 1.237075,0.197568 0.512396,0.14112 1.044586,0.284244 1.18252,0.317866 0.137933,0.03378 0.485799,0.312315 0.773171,0.618922 0.287373,0.306608 0.522417,0.488444 0.522417,0.403927 0,-0.275608 -0.147707,-0.641594 -0.258796,-0.641594 -0.05975,0 -0.391534,-0.217001 -0.737297,-0.482275 -0.53454,-0.410095 -2.488128,-1.541675 -3.258578,-1.887457 -0.12878,-0.05784 -0.205849,-0.140503 -0.171335,-0.183687 0.132738,-0.165334 2.421326,0.578205 3.163076,1.027783 0.67099,0.406549 0.850118,0.611365 1.298929,1.485382 l 0.520685,1.013595 0.03823,-0.64437 c 0.02091,-0.354419 0.09055,-0.604116 0.154635,-0.554763 0.202138,0.155772 0.120738,-0.904091 -0.120244,-1.565735 C 14.21763,12.569966 12.79685,10.63516 12.065739,10.009144 11.791232,9.7740976 11.093522,9.3175796 10.515189,8.9949316 9.936857,8.6721296 9.416419,8.3578106 9.358648,8.2965816 c -0.05777,-0.06123 0.498912,0.08776 1.237075,0.33113 0.738162,0.243374 1.39777,0.444026 1.46581,0.445723 0.250878,0.0063 -1.138604,-0.892988 -1.673515,-1.083152 -1.091842,-0.388195 -0.861623,-0.515434 0.365308,-0.201886 0.755729,0.193095 -0.476521,-0.732126 -1.647536,-1.237073 -0.12878,-0.05552 -0.207457,-0.134488 -0.174675,-0.175204 0.05567,-0.06956 0.883766,0.102099 1.584074,0.328354 0.273146,0.08822 0.258673,0.05059 -0.123707,-0.322185 -0.238137,-0.232115 -0.669505,-0.556305 -0.958733,-0.720405 -0.289228,-0.1641 -0.525757,-0.339459 -0.525757,-0.389892 0,-0.229493 1.419667,0.119837 1.892353,0.465619 1.575291,1.152555 3.344061,4.4606184 4.301928,8.0458304 l 0.288485,1.079605 0.107255,-0.848261 C 15.742394,12.073656 15.289749,10.596294 13.741055,8.2830096 12.368892,6.2336116 11.000563,4.6994936 9.973296,4.0586706 9.117488,3.5248836 8.697378,3.4341966 8.212692,3.6783416 m 42.084416,0.304911 c -1.977217,1.296759 -4.867271,5.092649 -5.528116,7.2609584 -0.170469,0.559236 -0.230838,1.136361 -0.22156,2.116797 0.01138,1.195276 0.02672,1.282416 0.136078,0.769449 0.174057,-0.81726 0.392772,-0.739066 0.315702,0.112896 -0.03439,0.380175 -0.01373,0.653624 0.04577,0.607817 0.0595,-0.04596 0.108244,-0.329587 0.108244,-0.630489 0,-0.767599 0.33203,-2.277657 0.704019,-3.202416 0.452645,-1.1249484 1.764934,-3.2807644 2.605155,-4.2801694 0.83082,-0.987839 1.512695,-1.46672 2.277208,-1.599358 l 0.537137,-0.093 -0.556683,0.450812 c -0.306176,0.248001 -0.640186,0.577126 -0.742245,0.73151 -0.172077,0.260338 -0.16317,0.274219 0.123707,0.191706 1.118563,-0.321567 1.12178,-0.250159 0.01868,0.427678 -0.636104,0.390817 -1.136624,0.735365 -1.112377,0.765748 0.02437,0.03023 0.377802,-0.04272 0.785418,-0.162249 0.723442,-0.212219 1.446883,-0.291647 1.050524,-0.115363 -0.471449,0.209597 -2.196797,1.310486 -2.469819,1.575914 -0.264734,0.257409 -0.13546,0.237205 0.980258,-0.153304 0.706864,-0.247538 1.345195,-0.448807 1.418306,-0.447573 0.07323,0.0014 -0.340072,0.265428 -0.918404,0.586842 -1.05337,0.5853 -2.088306,1.3667804 -2.783419,2.1015284 -0.470707,0.497698 -0.320155,0.507722 0.28094,0.01882 0.554457,-0.450967 1.799202,-0.984908 2.600579,-1.1156954 0.320278,-0.05228 0.554456,-0.05753 0.520437,-0.01172 -0.03402,0.04581 -0.800264,0.4045434 -1.702833,0.7973654 -0.902446,0.392668 -1.820974,0.835614 -2.041174,0.984291 -0.555446,0.375086 -1.159386,1.939896 -1.255754,3.25362 -0.072,0.98059 -0.07064,0.985834 0.175046,0.708684 0.296527,-0.334678 0.302217,-0.290877 0.06198,0.482274 -0.104656,0.336991 -0.11814,0.462842 -0.03093,0.288718 0.298012,-0.594554 1.275177,-1.706084 1.743286,-1.98308 0.462295,-0.273448 2.840447,-0.607817 2.729358,-0.383722 -0.02907,0.05861 -0.405266,0.252627 -0.836015,0.431379 -0.430873,0.178752 -1.084296,0.571728 -1.452326,0.873246 -0.367906,0.301518 -0.557549,0.500165 -0.421471,0.441404 0.582291,-0.25124 1.050276,-0.375548 2.023236,-0.537335 0.568435,-0.09454 1.056709,-0.14297 1.085161,-0.107652 0.02833,0.03547 -0.464521,0.29319 -1.095429,0.572962 -0.887849,0.393593 -1.265775,0.655474 -1.672773,1.158724 -0.289104,0.357658 -0.52489,0.746161 -0.523901,0.863221 0.0012,0.135568 0.03501,0.154075 0.09278,0.05074 0.260528,-0.465464 1.066482,-1.01159 1.927486,-1.306168 0.532066,-0.18199 0.990278,-0.302289 1.018236,-0.267433 0.02796,0.03486 -0.338463,0.394981 -0.814366,0.800449 -0.934115,0.795823 -1.123511,1.131426 -0.436193,0.77346 0.641671,-0.334215 0.656516,-0.283165 0.121852,0.41611 -0.483078,0.631723 -0.430007,0.658559 0.210427,0.106264 0.518952,-0.447573 0.587857,-0.337453 0.273393,0.436932 -0.16082,0.396215 -0.292444,0.828057 -0.292444,0.959768 0,0.464693 0.477758,-0.336682 1.0958,-1.837949 0.330918,-0.803689 0.777007,-1.852139 0.991268,-2.329633 0.666165,-1.484765 0.880179,-2.897505 0.894282,-5.9038954 0.01324,-2.842445 0.08128,-3.516581 0.318299,-3.157536 0.491985,0.74539 0.843438,4.1907174 0.664928,6.5197334 -0.17418,2.273339 -0.52885,3.376078 -1.927239,5.993348 -0.332773,0.622778 -0.290218,0.740763 0.111337,0.308459 0.227621,-0.245071 0.2249,-0.220085 -0.02994,0.269901 -0.368401,0.708375 -0.793955,1.857383 -0.721339,1.947761 0.153645,0.191553 0.976918,-1.086082 1.438966,-2.232931 1.144671,-2.841057 1.737353,-6.103776 1.558349,-8.578384 -0.264982,-3.6617114 -0.683113,-5.6048454 -1.412121,-6.5601414 -0.589714,-0.772997 -1.05473,-0.809241 -2.044761,-0.16009 M 7.278205,7.0030636 c -0.329556,0.749246 -0.615939,2.770883 -0.688184,4.8574504 -0.07583,2.192677 0.130511,3.87501 0.657505,5.3607 0.542086,1.528104 0.873622,1.740169 1.54758,0.989535 L 9.18194,17.779833 8.671523,16.795233 C 7.765118,15.04689 7.638813,14.295023 7.556424,10.159057 7.486904,6.6679236 7.476754,6.5519436 7.278205,7.0030636 m 2.309124,2.817306 c 0.298383,0.3514884 3.711595,1.8228354 3.571064,1.5393624 -0.112574,-0.22718 -1.473727,-0.975037 -2.274238,-1.249565 C 9.791941,9.7355436 9.450632,9.6591996 9.587329,9.8203696 M 9.030646,11.243597 c 0,0.05953 0.403657,0.295966 0.896879,0.525614 2.157829,1.004032 3.580094,1.62866 3.708502,1.62866 0.252364,0 -0.451408,-0.795514 -1.026648,-1.160575 C 11.73019,11.679295 9.030646,10.929741 9.030646,11.243597 m 41.088818,0.01789 c -1.522839,0.225175 -2.11181,0.450658 -2.890301,1.107057 -0.964795,0.813251 -1.076626,1.127879 -0.260528,0.733206 0.328319,-0.158856 1.348411,-0.620618 2.266939,-1.026395 0.918528,-0.405777 1.693308,-0.759888 1.721637,-0.787186 0.13113,-0.126006 -0.112945,-0.133717 -0.837747,-0.02668 m -31.853066,1.39377 c 0.144738,0.196333 0.491861,0.767599 0.771316,1.26946 0.566951,1.018222 0.662454,1.632363 0.2536,1.632363 -0.238136,0 -0.242095,0.0219 -0.06185,0.342851 0.105893,0.188468 0.192612,0.583758 0.192612,0.878336 0,0.371075 0.102059,0.668429 0.332402,0.968097 0.18284,0.237975 0.374586,0.432613 0.426172,0.432613 0.05159,0 0.110842,-0.329588 0.131501,-0.732589 0.02078,-0.403001 0.0934,-0.722718 0.161439,-0.710688 0.06804,0.01203 0.233188,0.428448 0.36704,0.925375 0.143624,0.532862 0.262012,0.788883 0.28898,0.624011 0.08672,-0.532553 -0.22824,-3.408928 -0.411451,-3.757641 -0.204612,-0.38912 -1.842375,-1.815432 -2.374317,-2.067597 l -0.34069,-0.161478 0.263249,0.356887 m 22.471586,0.581135 c -1.228786,1.124332 -1.47484,1.504969 -1.631207,2.522882 -0.15451,1.005266 -0.24494,2.573932 -0.148325,2.573932 0.04008,0 0.184572,-0.387578 0.321268,-0.86137 0.136574,-0.473638 0.303207,-0.854739 0.370257,-0.846873 0.06705,0.008 0.131625,0.308767 0.143377,0.668584 0.01188,0.359662 0.02573,0.752947 0.03093,0.873708 0.0067,0.154384 0.104904,0.108578 0.330546,-0.154229 0.305434,-0.355653 0.74175,-1.222112 0.615445,-1.222112 -0.03278,0 0.02153,-0.286404 0.120491,-0.63635 0.234054,-0.826977 0.233188,-0.830525 -0.129151,-0.534559 -0.54357,0.444026 -0.46415,0.183687 0.738163,-2.422941 0.187911,-0.40732 0.317804,-0.770529 0.288486,-0.806927 -0.0292,-0.0364 -0.501882,0.344393 -1.050277,0.846255 m 8.930566,-0.664882 c -1.406059,0.34424 -2.1128,0.650693 -2.736409,1.186331 -0.593425,0.509882 -0.815109,0.873863 -0.532066,0.873863 0.08474,0 0.771316,-0.336065 1.525684,-0.746778 0.754492,-0.410712 1.635537,-0.867385 1.958042,-1.014674 0.322382,-0.147289 0.618043,-0.331747 0.656763,-0.409941 0.03872,-0.07804 0.05319,-0.132792 0.03216,-0.121533 -0.02103,0.01141 -0.427904,0.116135 -0.904178,0.232732 M 28.59585,13.133058 c -0.01076,0.151299 -0.166263,0.636504 -0.345886,1.078216 -0.530086,1.304317 -0.562621,1.6009 -0.329309,3.003769 0.21154,1.271003 0.398462,1.649173 0.419492,0.848261 0.0071,-0.264195 0.096,-0.0273 0.236157,0.628484 0.245684,1.149471 0.443739,1.597198 0.309145,0.698813 -0.04627,-0.309076 -0.126057,-1.905348 -0.177272,-3.547273 -0.05109,-1.641924 -0.101688,-2.861569 -0.112327,-2.71027 m 2.830675,1.267301 c -0.01126,1.487079 -0.07509,3.051117 -0.18717,4.58832 -0.02932,0.403001 -0.03365,0.732589 -0.0094,0.732589 0.02412,0 0.168243,-0.503096 0.320155,-1.118162 0.151913,-0.615066 0.304939,-1.016987 0.340196,-0.89345 0.09167,0.322031 0.393266,-1.027167 0.395493,-1.769318 9.89e-4,-0.345936 -0.116038,-0.890365 -0.265229,-1.233834 -0.146965,-0.33807 -0.338093,-0.892216 -0.424812,-1.23152 -0.151046,-0.591469 -0.157974,-0.553375 -0.169231,0.925375 m -2.289455,1.166436 c -0.06841,1.060018 -0.02289,1.72999 0.245807,3.614671 0.181355,1.272391 0.359865,2.610021 0.396606,2.97246 0.07089,0.699121 0.281435,1.059709 0.281435,0.482275 0,-0.188314 0.222673,-1.543064 0.49483,-3.010709 0.272156,-1.467646 0.49483,-2.816689 0.49483,-2.997754 0,-0.181065 -0.09154,-0.721484 -0.203375,-1.201137 l -0.203256,-0.872012 -0.215498,1.310948 c -0.118512,0.721022 -0.268198,1.55386 -0.33265,1.850751 -0.140779,0.648071 -0.163912,0.572653 -0.473057,-1.542292 -0.294547,-2.016239 -0.387328,-2.132065 -0.485676,-0.607201 m -16.946315,0.18307 c 0.327825,0.445414 0.613836,0.838699 0.635485,0.874017 0.02165,0.03532 0.03934,-0.0069 0.03934,-0.09408 0,-0.221011 -0.982113,-1.589641 -1.14083,-1.589641 -0.0715,0 0.138181,0.364289 0.466006,0.809703 m 9.657224,0.347016 c 0.101811,0.567101 0.172572,0.690176 0.170098,0.295658 -0.0011,-0.162712 -0.05839,-0.399763 -0.127543,-0.527002 -0.09167,-0.168881 -0.103172,-0.106572 -0.04256,0.231344 m 4.271248,0.857206 c -0.16082,0.63126 -0.378793,1.270078 -0.484439,1.419526 -0.175293,0.248001 -0.147707,0.436469 0.315454,2.159209 0.789501,2.936834 0.789501,2.854784 8.66e-4,3.694716 -1.009329,1.075132 -1.320453,1.748188 -1.785099,3.863134 -0.525014,2.388857 -0.535406,3.240511 -0.05245,4.318264 0.584023,1.303392 0.793708,2.449007 0.804223,4.392295 0.0051,0.953754 0.03711,1.735079 0.07113,1.736467 0.03402,0.0012 0.209561,-0.221627 0.39005,-0.495539 l 0.328072,-0.497697 0.148573,0.687399 c 0.14449,0.669355 0.111584,2.031971 -0.06618,2.736798 -0.07027,0.278692 -0.04862,0.330359 0.107254,0.255867 0.281187,-0.134488 0.400936,0.61121 0.227745,1.418292 -0.113687,0.529931 -0.10577,0.736136 0.04181,1.088704 0.100079,0.239364 0.182221,0.587151 0.182715,0.772997 0.0011,0.518827 0.195458,0.557693 0.707731,0.141274 0.609507,-0.49523 1.612774,-0.710689 3.30534,-0.709609 1.451336,7.71e-4 2.15919,0.165796 2.675916,0.623703 l 0.317186,0.281006 0.217725,-0.799833 c 0.170346,-0.626171 0.188778,-0.894067 0.08474,-1.233988 -0.198427,-0.648534 -0.161438,-1.149625 0.109728,-1.487695 0.207582,-0.258797 0.223045,-0.372927 0.106884,-0.788112 -0.07991,-0.285941 -0.106884,-0.960385 -0.06569,-1.640382 0.06742,-1.110759 0.184572,-1.566661 0.29962,-1.165356 0.03006,0.104876 0.152531,0.341463 0.27228,0.525767 0.36036,0.554917 0.50485,0.228105 0.508066,-1.149779 0.004,-1.613392 0.140037,-2.332871 0.759317,-4.013199 0.491861,-1.334391 0.500149,-1.386058 0.413801,-2.544782 -0.118388,-1.590258 -0.603445,-3.920507 -0.984711,-4.731599 -0.170717,-0.363364 -0.621383,-1.039197 -1.001412,-1.50173 l -0.690906,-0.841012 0.204364,-0.987067 c 0.112327,-0.543041 0.398091,-1.633905 0.634991,-2.424175 0.348731,-1.163506 0.401802,-1.480447 0.278589,-1.665522 -0.08363,-0.125543 -0.298506,-0.745698 -0.477511,-1.377884 l -0.325474,-1.14947 -0.156985,2.275035 c -0.202385,2.931744 -0.451285,4.607753 -1.28829,8.675703 -0.77948,3.788796 -1.328123,7.492302 -1.325773,8.94946 0.0012,0.702669 0.109605,1.384825 0.365927,2.302951 0.200282,0.717629 0.343536,1.330536 0.318176,1.361999 -0.02536,0.03162 -0.396483,-0.609823 -0.824758,-1.425387 -0.479738,-0.913654 -0.848386,-1.465949 -0.960217,-1.439113 -0.09983,0.02406 -0.480851,0.66627 -0.846778,1.427237 -0.365803,0.760967 -0.69004,1.414437 -0.720349,1.452223 -0.18754,0.233811 -0.123831,-0.24908 0.197066,-1.493093 0.246673,-0.956068 0.366298,-1.737239 0.366298,-2.391787 0,-1.519775 -0.886982,-7.886667 -1.604981,-11.520616 -0.375328,-1.900104 -0.590332,-3.843547 -0.723936,-6.545797 l -0.08338,-1.687577 -0.29232,1.147774 m 11.618358,0.06909 c -0.166386,0.550907 -0.324485,1.001565 -0.351329,1.001565 -0.10577,0 -0.513386,-0.705908 -0.517345,-0.895918 -0.0022,-0.111045 -0.05975,-0.15901 -0.12779,-0.106573 -0.141521,0.109041 -0.15983,1.143302 -0.04453,2.517947 0.08808,1.051227 0.218715,1.122326 0.338958,0.184458 0.04379,-0.341155 0.128161,-0.62031 0.187417,-0.62031 0.123831,0 0.256198,0.532708 0.258672,1.041048 0.0026,0.512658 0.211788,0.4212 0.352938,-0.15423 0.09513,-0.387269 0.295289,-3.97495 0.22156,-3.970477 -0.0089,6.17e-4 -0.15216,0.451737 -0.318547,1.00249 m 3.808953,-0.134796 c -0.421224,0.36105 -0.452151,0.441866 -0.454501,1.186022 l -0.0025,0.798599 0.359246,-0.530086 c 0.197561,-0.291647 0.382009,-0.499857 0.409967,-0.462687 0.02796,0.03701 0.09872,0.58021 0.157232,1.207152 l 0.106388,1.139754 0.309269,-0.589773 c 0.338588,-0.645603 0.635485,-0.878644 0.540107,-0.423976 -0.03241,0.154538 -0.0082,0.451892 0.05381,0.660873 l 0.112821,0.38002 0.216859,-0.522991 c 0.189644,-0.457135 0.684597,-2.106309 0.684597,-2.280896 0,-0.12616 -0.564724,0.159164 -0.902817,0.456056 l -0.346133,0.30414 0.0861,-0.809704 0.08622,-0.809549 -0.458336,0.601031 -0.458213,0.601032 0.07967,-0.655475 c 0.04379,-0.360588 0.03303,-0.65131 -0.024,-0.64622 -0.05703,0.0051 -0.307166,0.183687 -0.555818,0.396678 m -24.266705,0.514508 c 0.06111,0.643753 0.04033,0.776082 -0.122099,0.776082 -0.107626,0 -0.268569,-0.127548 -0.357391,-0.283474 -0.211787,-0.371384 -0.905539,-0.607971 -0.802738,-0.273756 0.03884,0.126159 0.13447,0.528852 0.212529,0.894529 0.198675,0.93139 0.616187,1.757134 0.75276,1.488621 0.05777,-0.113667 0.10577,-0.397449 0.106884,-0.630644 0.0025,-0.553683 0.181107,-0.538568 0.454501,0.03856 0.253105,0.534096 0.413307,0.59517 0.413307,0.157314 0,-0.348096 0.362215,-1.545377 0.467614,-1.545377 0.03823,0 0.171706,0.115209 0.296527,0.256174 0.29764,0.335603 0.35739,0.234429 0.267826,-0.453434 -0.05641,-0.433075 -0.173685,-0.640051 -0.498046,-0.878644 -0.233402,-0.171657 -0.449024,-0.31216 -0.479085,-0.31216 -0.03018,0 -0.0548,0.242911 -0.0548,0.539803 0,0.66334 -0.165521,0.696191 -0.372236,0.07388 -0.248034,-0.746778 -0.365061,-0.684316 -0.285517,0.152532 m 4.741955,0.884505 c -0.0017,1.500496 0.159335,2.443916 0.387328,2.268249 0.05814,-0.04488 0.106512,-0.302906 0.107502,-0.573578 0.0011,-0.270673 0.05072,-0.588076 0.110223,-0.70529 0.119007,-0.234275 0.162057,-0.115518 0.32832,0.907176 0.07917,0.486285 0.09773,0.506489 0.187664,0.203428 0.122099,-0.411021 0.398338,-3.447794 0.322382,-3.542645 -0.03006,-0.03732 -0.214385,0.247383 -0.40972,0.632802 -0.195334,0.385573 -0.390544,0.700972 -0.433842,0.701126 -0.04342,1.55e-4 -0.120243,-0.329279 -0.170963,-0.73228 -0.0506,-0.403001 -0.119378,-0.638046 -0.152655,-0.522375 -0.05121,0.177518 -0.07732,0.177518 -0.1675,0 -0.06408,-0.126005 -0.107626,0.419504 -0.108739,1.363387 m 30.05906,2.528743 c -0.443368,0.361667 -0.686824,0.751713 -1.196251,1.915989 -0.351824,0.803997 -0.592064,1.461785 -0.533798,1.461785 0.05814,0 0.257559,-0.07203 0.443244,-0.159936 0.537509,-0.254786 0.613836,0.05074 0.170221,0.680768 -0.357391,0.507414 -0.375081,0.814485 -0.02152,0.373698 0.200406,-0.249852 0.180118,0.01959 -0.03711,0.493533 -0.09723,0.212065 -0.178262,0.559081 -0.179994,0.771146 -0.0027,0.319872 0.05777,0.25417 0.354793,-0.385573 0.196942,-0.42413 0.561755,-1.014057 0.810778,-1.310948 l 0.45277,-0.539803 -0.348113,-0.09099 c -0.324608,-0.08483 -0.307784,-0.104413 0.249889,-0.291493 0.66134,-0.221627 0.580683,-0.459295 -0.157108,-0.463459 l -0.425192,-0.0023 0.332402,-0.432613 c 0.18284,-0.237822 0.333639,-0.602266 0.335124,-0.809704 0.0015,-0.207438 0.110099,-0.671977 0.241353,-1.032565 0.131253,-0.360588 0.199664,-0.650076 0.151913,-0.643444 -0.04775,0.0066 -0.337227,0.216229 -0.643403,0.465927 m -35.806757,0.958688 c 0.162923,0.363519 0.376195,0.943575 0.474047,1.289048 l 0.177644,0.628022 -0.806078,-0.04874 c -0.771068,-0.04658 -0.824757,-0.07588 -1.238435,-0.6783 -0.380524,-0.5543 -0.977289,-1.084385 -1.220622,-1.084385 -0.04565,0 -0.01274,0.105801 0.07336,0.235045 0.234178,0.351797 0.06532,0.440787 -0.49817,0.262498 -0.42877,-0.135567 -0.482954,-0.127085 -0.360484,0.05691 0.117522,0.176438 0.08536,0.216692 -0.172943,0.216692 -0.55223,0 -0.474666,0.261418 0.19521,0.657942 0.543695,0.321722 0.659361,0.346707 0.716514,0.154537 0.09154,-0.307379 0.888962,0.809858 0.834407,1.168904 -0.05258,0.345782 -0.591817,0.401458 -1.137243,0.117368 -0.245188,-0.127702 -0.445718,-0.209597 -0.445718,-0.181836 0,0.02776 0.0835,0.299513 0.185561,0.604116 0.262384,0.782713 0.237271,1.026241 -0.105398,1.026241 -0.465759,0 -1.074647,0.615683 -1.912394,1.933418 -0.429389,0.675524 -1.032092,1.593651 -1.339257,2.040299 l -0.55854,0.812171 0.658866,-0.329897 c 1.047432,-0.524533 1.798089,-0.7312 3.289011,-0.905788 0.789254,-0.09254 1.816768,-0.330051 2.370854,-0.548285 2.218817,-0.873863 3.85757,-0.772997 6.179683,0.380329 0.36605,0.181837 0.693751,0.295349 0.728142,0.252474 0.09575,-0.119374 -0.695236,-3.001147 -1.045452,-3.809 -0.450542,-1.039351 -1.324165,-2.026881 -2.451263,-2.770882 -0.544313,-0.3592 -1.240168,-0.87556 -1.546344,-1.147466 -0.306176,-0.271906 -0.733214,-0.606429 -0.94896,-0.743385 l -0.392276,-0.248926 0.296279,0.660872 m 27.642064,-0.552463 c -0.102059,0.04889 -0.57524,0.412255 -1.051514,0.807699 -0.476273,0.395444 -1.233858,0.972569 -1.683411,1.282416 -1.119676,0.771917 -1.974248,1.770706 -2.428254,2.838126 -0.41677,0.980127 -1.21555,3.714303 -1.119924,3.833677 0.03291,0.04087 0.379659,-0.1021 0.770698,-0.317713 2.059482,-1.135589 4.07913,-1.353824 5.75982,-0.622469 0.574497,0.25016 1.540158,0.490603 2.536003,0.631569 1.338762,0.189548 2.846756,0.621544 3.857818,1.105207 0.2416,0.115672 -1.188953,-2.112787 -2.173417,-3.385486 -0.376813,-0.487056 -0.87387,-0.963316 -1.104708,-1.058167 -0.365555,-0.150528 -0.41108,-0.225175 -0.353679,-0.579594 0.03625,-0.223941 0.100945,-0.519906 0.143871,-0.657942 0.0673,-0.216846 0.0099,-0.235353 -0.423574,-0.136492 -0.337845,0.07696 -0.570663,0.05136 -0.713174,-0.07866 -0.195705,-0.178289 -0.185808,-0.235354 0.130141,-0.751714 0.411698,-0.673056 1.10879,-1.142067 1.904352,-1.281645 0.502376,-0.08807 0.542953,-0.119065 0.278713,-0.213144 -0.170097,-0.06046 -0.624104,-0.116752 -1.008958,-0.125235 -0.636104,-0.01403 -0.693875,-0.04349 -0.635114,-0.323881 0.03724,-0.177209 0.0038,-0.308458 -0.07831,-0.308458 -0.286506,0 -1.071306,0.60319 -1.487335,1.143147 -0.345267,0.448036 -0.517468,0.553374 -0.905044,0.553374 -0.263249,0 -0.591074,0.07496 -0.728513,0.166722 -0.137439,0.09177 -0.278713,0.130786 -0.313846,0.08698 -0.08264,-0.103025 0.494706,-1.676317 0.831809,-2.266398 0.142882,-0.250314 0.242096,-0.449424 0.220447,-0.442793 -0.02165,0.0066 -0.122842,0.05213 -0.2249,0.100866 m -5.524034,2.084717 c -0.490376,0.664882 -0.880549,1.590258 -0.742863,1.762069 0.04157,0.05167 0.157974,0.0088 0.258672,-0.09547 0.100698,-0.104105 0.233807,-0.150373 0.295785,-0.102717 0.170098,0.13125 0.487655,-0.381254 0.699071,-1.128186 0.362215,-1.280103 0.208694,-1.41089 -0.510665,-0.435698 M 20.896541,23.022237 c 0.110347,0.165642 0.107873,0.231343 -0.01039,0.280543 -0.106759,0.04426 -0.04169,0.286095 0.211045,0.784409 0.259044,0.510345 0.425678,0.696345 0.5719,0.638509 0.11344,-0.04488 0.242095,-0.0094 0.285888,0.07881 0.189025,0.381254 0.300856,0.117522 0.127418,-0.300593 -0.105151,-0.253553 -0.176654,-0.479036 -0.15884,-0.501245 0.10577,-0.131095 -0.716266,-1.196819 -0.923105,-1.196819 -0.198674,0 -0.219333,0.04288 -0.103914,0.216384 m -6.793891,0.364752 c 0,0.317249 0.652928,1.269615 0.870406,1.269615 0.354298,0 0.298877,-0.269593 -0.177644,-0.863684 -0.397596,-0.495693 -0.692762,-0.668738 -0.692762,-0.405931 m 31.397328,0.265274 c -0.406751,0.344548 -0.703154,0.919823 -0.563612,1.093794 0.0292,0.0364 0.220323,-0.0066 0.424936,-0.09547 0.325474,-0.141428 0.636474,-0.530086 0.951434,-1.189262 0.159582,-0.333752 -0.328815,-0.219005 -0.812758,0.190936 m -33.399286,7.008952 c -1.50453,0.09948 -1.702462,0.218234 -2.484541,1.489237 -0.964052,1.566661 -2.698555,4.998724 -2.526354,4.998724 0.03414,0 0.269064,-0.359354 0.522169,-0.798445 0.844427,-1.465486 1.511953,-2.235398 2.25927,-2.605857 0.833293,-0.413026 1.232497,-0.734285 2.066533,-1.662437 0.340196,-0.378478 0.866076,-0.885584 1.168541,-1.126644 0.302465,-0.241215 0.497304,-0.425827 0.432976,-0.41025 -0.06433,0.01558 -0.711689,0.06755 -1.438594,0.115672 m 34.928805,0.139269 c 0.139789,0.437085 2.029916,2.201931 3.000277,2.80142 1.088626,0.672593 1.14516,0.734131 1.835943,1.998965 0.971969,1.779959 1.0791,1.865557 0.393142,0.314473 -0.71206,-1.609845 -1.899652,-3.792343 -2.368751,-4.352657 -0.19187,-0.229031 -0.591569,-0.5233 -0.888343,-0.653778 -0.566085,-0.24908 -2.043276,-0.330205 -1.972268,-0.108423 m -27.731133,0.905788 c -0.371494,0.170423 -0.618538,0.565096 -0.618538,0.988301 0,0.59733 0.430874,1.968582 0.793955,2.526738 l 0.30098,0.462687 0.309516,-0.84826 c 0.339825,-0.931391 0.519819,-2.109085 0.396483,-2.593828 -0.04355,-0.170886 -0.252116,-0.385881 -0.463656,-0.477802 -0.417884,-0.181682 -0.443862,-0.183841 -0.71874,-0.05784 M 39.51996,32.01025 c -0.337226,0.420429 -0.188901,1.691432 0.319166,2.736489 0.230838,0.474872 0.476521,0.839778 0.546044,0.810938 0.06952,-0.02884 0.280074,-0.41935 0.467862,-0.86754 0.391905,-0.935092 0.455862,-2.050015 0.148944,-2.596141 -0.243333,-0.433384 -1.160129,-0.485051 -1.482016,-0.08375 m -25.768142,1.121555 c -0.674825,0.766365 -1.937631,1.703925 -2.295269,1.703925 -0.109481,0 -0.199169,0.0694 -0.199169,0.154229 0,0.08483 0.165026,0.154229 0.366793,0.154229 0.235168,0 0.41244,0.106264 0.493964,0.296429 0.07002,0.16302 0.215127,0.405931 0.322505,0.539802 0.177768,0.221627 0.176159,0.243374 -0.01843,0.243374 -0.413678,0 0.199787,0.613986 0.71639,0.717011 0.59095,0.117832 0.549261,0.378942 -0.09736,0.609977 l -0.484934,0.173199 0.804099,0.312469 0.804099,0.312314 -0.463903,0.276996 c -0.486542,0.290568 -0.604311,0.528389 -0.261765,0.528389 0.287991,0 1.158644,0.33915 1.158644,0.451429 0,0.05167 -0.144491,0.203274 -0.321021,0.336991 l -0.321145,0.242757 0.785048,0.201423 c 1.054111,0.270518 1.082688,0.307225 0.525138,0.672286 l -0.482459,0.315861 0.577714,0.108886 c 0.699937,0.13202 1.128336,0.386036 0.844922,0.501091 -0.102059,0.04133 -0.269064,0.109965 -0.371122,0.152378 -0.102059,0.04241 0.176283,0.08483 0.618537,0.09408 l 0.804098,0.01696 -0.465016,0.356578 c -0.700184,0.536718 -0.689174,0.559544 0.219457,0.453743 0.960589,-0.111817 1.024422,0.09886 0.125068,0.412871 -0.307908,0.107498 -0.5599,0.245996 -0.5599,0.307842 0,0.204508 1.840768,0.508956 2.565693,0.42413 1.933177,-0.225946 3.655061,-1.818054 3.92796,-3.631944 0.04404,-0.292727 0.03451,-0.589002 -0.02128,-0.658405 -0.05579,-0.0694 -0.546787,0.154846 -1.0911,0.498469 -0.973701,0.614449 -1.006855,0.623395 -2.050204,0.552758 -1.450099,-0.09824 -2.46685,-0.697425 -3.588877,-2.1151 -1.297691,-1.639457 -1.935032,-3.595084 -1.819737,-5.582944 0.0287,-0.493996 0.02078,-0.895147 -0.01757,-0.891291 -0.03835,0.0039 -0.366793,0.344394 -0.729874,0.756803 m 31.734677,0.51821 c -0.176406,3.033227 -1.473108,5.520636 -3.532219,6.776679 -0.762162,0.464847 -0.912095,0.50109 -2.074327,0.50109 -1.235219,0 -1.266888,-0.0093 -2.26397,-0.659946 l -1.011185,-0.660102 0.08486,0.582987 c 0.228488,1.568974 1.228539,2.839514 2.808655,3.568556 0.834901,0.38511 2.090656,0.429066 3.24262,0.113359 L 43.483168,43.6692 42.830982,43.550598 c -1.122893,-0.204354 -0.948094,-0.411175 0.528478,-0.625708 0.99399,-0.144359 1.094069,-0.252165 0.431368,-0.465156 L 43.235753,42.2816 43.606875,42.093903 c 0.204117,-0.10318 0.644516,-0.275299 0.97865,-0.382489 0.625712,-0.200652 0.632145,-0.280851 0.03686,-0.458369 -0.486913,-0.145284 -0.337227,-0.316478 0.558415,-0.638818 0.746204,-0.268667 0.763275,-0.285632 0.436317,-0.436931 -0.187046,-0.08652 -0.340196,-0.216846 -0.340196,-0.289643 0,-0.170731 0.78245,-0.579285 1.109409,-0.579285 0.138305,0 0.251373,-0.0694 0.251373,-0.154229 0,-0.08483 -0.0767,-0.154229 -0.170469,-0.154229 -0.09365,0 -0.236899,-0.09994 -0.318299,-0.222244 -0.121481,-0.182454 -0.05208,-0.298742 0.386833,-0.648997 0.437925,-0.349483 0.490006,-0.436623 0.287496,-0.480887 -0.577961,-0.126159 -0.619155,-0.212836 -0.20523,-0.431533 0.227374,-0.119991 0.442625,-0.357658 0.478377,-0.528235 0.03575,-0.170424 0.113439,-0.310001 0.172695,-0.310001 0.05926,0 0.244322,-0.269747 0.411204,-0.599489 0.22589,-0.446031 0.424193,-0.635887 0.77478,-0.742305 l 0.471201,-0.142817 -0.494829,-0.200189 c -0.676804,-0.273744 -1.383174,-0.794422 -2.191355,-1.615076 l -0.680143,-0.690793 -0.07348,1.262675 m -17.984963,12.11008 c -0.09699,0.120916 -0.145356,0.320797 -0.107502,0.444026 0.03798,0.123229 0.06903,0.25309 0.06903,0.288563 0,0.03547 0.180984,0.06493 0.402049,0.06539 0.622744,0.0012 1.314145,0.291185 1.450099,0.607972 0.06779,0.15793 0.159954,0.77932 0.204736,1.380814 0.123584,1.656576 0.66468,1.971512 0.66468,0.386807 0,-0.967788 0.243333,-1.817746 0.586003,-2.046314 0.129645,-0.08652 0.607527,-0.238129 1.061905,-0.336682 0.667401,-0.144975 0.826242,-0.233966 0.826242,-0.462996 0,-0.155926 -0.06952,-0.338688 -0.154635,-0.406086 -0.08499,-0.0674 -1.205776,-0.12693 -2.490355,-0.13202 -1.865137,-0.0076 -2.371348,0.03486 -2.512251,0.210523 M 3.401946,46.967405 C 2.217694,47.087087 0.549375,47.36871 0.286125,47.493481 0.123707,47.570442 0,47.757676 0,47.926249 c 0,0.278846 0.03328,0.284707 0.538004,0.09531 0.295908,-0.111045 1.451088,-0.384647 2.56693,-0.608126 1.115965,-0.223478 2.084594,-0.432613 2.152634,-0.464847 0.143005,-0.06771 -1.125615,-0.05491 -1.855612,0.01882 m 52.018992,0.152687 c 2.432584,0.570957 4.164117,0.996321 4.360688,1.071585 0.172077,0.06586 0.216488,-0.01002 0.216488,-0.370304 0,-0.51127 0.186304,-0.464076 -3.15454,-0.801067 -2.064554,-0.208364 -2.581157,-0.17212 -1.422636,0.09979 m -47.170031,0.0031 c -0.741131,0.08544 -0.857911,0.374469 -0.39475,0.977351 0.261765,0.340538 0.342298,0.59625 0.342298,1.086853 0,0.371538 -0.07224,0.704982 -0.171582,0.792276 -0.118264,0.10395 -0.03711,0.120761 0.261518,0.05413 3.153427,-0.703902 5.048625,-0.959768 8.2884,-1.119087 3.150459,-0.154846 4.018885,-0.108269 4.951516,0.265583 0.808675,0.324189 0.878694,0.329742 1.170643,0.09115 0.353309,-0.288563 0.393885,-0.583449 0.126182,-0.917201 -0.531571,-0.662723 -1.911775,-0.708838 -2.921104,-0.09747 l -0.562869,0.341001 -0.963311,-0.403464 c -1.222601,-0.511887 -1.407172,-0.50618 -2.38174,0.07372 l -0.801624,0.476876 -0.286383,-0.335294 c -0.161067,-0.188795 -0.521674,-0.37387 -0.824263,-0.423377 -0.337968,-0.05521 -0.639072,-0.222399 -0.810284,-0.450041 -0.237518,-0.315707 -0.388194,-0.362285 -1.175221,-0.362902 -0.496561,-4.62e-4 -1.431666,-0.0273 -2.078038,-0.05969 -0.646371,-0.03223 -1.442553,-0.02792 -1.769388,0.0096 m 39.933515,0.06601 c -1.798831,0.151299 -2.056266,0.220239 -1.962124,0.52623 0.04924,0.159782 -0.01052,0.229802 -0.196077,0.229802 -0.295166,0 -0.941909,0.372463 -1.27097,0.731972 -0.191747,0.209443 -0.271291,0.184921 -0.814985,-0.250006 -0.70538,-0.564325 -0.926693,-0.583449 -2.003443,-0.173508 -1.015886,0.386807 -1.158025,0.384031 -1.847447,-0.03424 -1.105326,-0.670588 -2.864447,-0.496155 -3.214291,0.318792 -0.111213,0.259105 -0.07942,0.363519 0.192241,0.629872 0.404029,0.396215 0.488892,0.396061 1.440574,-0.0037 0.754986,-0.317095 0.846777,-0.320026 4.975267,-0.152841 3.828375,0.155 4.994689,0.281005 7.000234,0.756648 1.097038,0.260185 1.828521,0.34825 1.504654,0.18122 -0.236281,-0.121841 -0.278341,-0.260185 -0.278341,-0.916122 0,-0.653778 0.0475,-0.8114 0.309268,-1.025162 0.170098,-0.13896 0.309269,-0.373851 0.309269,-0.521911 0,-0.463922 -1.165077,-0.54736 -4.143829,-0.297046 m 5.8526,1.0156 c 0.08919,0.04457 0.195953,0.03902 0.237024,-0.01218 0.04107,-0.0512 -0.03192,-0.0876 -0.162304,-0.08097 -0.14412,0.0074 -0.173438,0.04396 -0.07472,0.09315 M 5.172581,48.35905 c 0.08919,0.04457 0.195952,0.03902 0.237023,-0.01218 0.04107,-0.0512 -0.03192,-0.0876 -0.162304,-0.08097 -0.144119,0.0074 -0.173438,0.04396 -0.07472,0.09316 m 50.681343,0.430299 c 0.816469,0.284862 1.645309,0.595017 1.841881,0.689405 0.196447,0.09439 0.381019,0.1422 0.409842,0.10611 0.108616,-0.135413 -3.154416,-1.344416 -3.568465,-1.322207 -0.09229,0.0051 0.500273,0.241985 1.316742,0.526692 m -52.354611,0.0096 c -0.929167,0.342543 -2.266197,0.988455 -1.519993,0.734285 1.435006,-0.488752 2.98469,-1.104898 2.783418,-1.106595 -0.136079,-0.0012 -0.704638,0.166259 -1.263425,0.37231 m 9.148168,0.772534 c -1.907817,0.235816 -3.398863,0.51929 -3.617578,0.687862 -0.226508,0.174434 0.160449,0.904863 0.754616,1.424462 0.343412,0.300438 0.483201,0.534712 0.483201,0.809703 0,0.212991 0.06965,0.387887 0.154635,0.388658 0.147583,0.0015 5.090686,-1.279486 6.062779,-1.571134 0.505098,-0.151607 0.509551,-0.18492 0.194716,-1.476436 l -0.122223,-0.501245 -1.134769,0.01774 c -0.62398,0.0097 -1.872931,0.108886 -2.775377,0.220394 m 30.4955,-0.154538 c -0.05109,0.06709 -0.09278,0.422588 -0.09278,0.789962 0,0.605659 -0.03736,0.688325 -0.40205,0.887127 l -0.402049,0.21916 0.581301,0.01249 c 0.633506,0.01373 2.333618,0.397141 4.891889,1.102894 1.955444,0.539648 2.133088,0.553991 2.051936,0.167338 -0.03798,-0.181373 0.164036,-0.653315 0.556683,-1.299998 0.490253,-0.807698 0.577219,-1.034107 0.424812,-1.106903 -0.799769,-0.382643 -7.396841,-1.051844 -7.609742,-0.772072 m -22.194976,0.70236 c -0.351453,0.07326 -1.102976,0.345011 -1.670051,0.604116 -0.567075,0.258951 -1.893961,0.68231 -2.948568,0.940644 -1.054606,0.258334 -2.743584,0.714544 -3.753408,1.013903 l -1.835943,0.544275 0.07967,0.561857 c 0.13014,0.916585 0.196819,1.101506 0.397596,1.101506 0.104904,0 1.645928,-0.592086 3.424594,-1.31573 2.117872,-0.861679 3.297917,-1.417984 3.419398,-1.612158 0.127419,-0.203429 0.528849,-0.379713 1.280249,-0.562012 1.046689,-0.254169 1.134273,-0.253398 2.001587,0.01573 0.761543,0.236433 0.967268,0.250468 1.282599,0.08776 0.4905,-0.253398 0.669752,-0.537797 0.574621,-0.911649 -0.146222,-0.574504 -0.944754,-0.740454 -2.252342,-0.46824 m 16.062549,0.05852 c -0.530952,0.296583 -0.496933,0.793201 0.08326,1.214401 0.39673,0.288101 0.442255,0.290106 1.0624,0.04642 0.964671,-0.379095 1.596445,-0.315398 2.976526,0.300593 4.64237,2.07207 7.278081,3.12962 7.473787,2.998988 0.115419,-0.07696 0.318052,-0.392514 0.450295,-0.701281 0.381514,-0.890057 0.386709,-0.887589 -4.151004,-1.999119 -2.60528,-0.638201 -2.630887,-0.645758 -4.639031,-1.379118 -1.823819,-0.666113 -2.694101,-0.79474 -3.256228,-0.480884 m -29.734946,0.03193 c 0.08919,0.04457 0.195952,0.03902 0.237023,-0.01218 0.04107,-0.0512 -0.03192,-0.0876 -0.162304,-0.08097 -0.144119,0.0074 -0.173438,0.04396 -0.07472,0.09316 m 45.276935,0 c 0.08919,0.04457 0.195952,0.03902 0.237023,-0.01218 0.04107,-0.0512 -0.03192,-0.0876 -0.162304,-0.08097 -0.144119,0.0074 -0.173438,0.04396 -0.07472,0.09316 m 1.113367,0.308458 c 0.08919,0.04457 0.195953,0.03902 0.237023,-0.01218 0.04107,-0.0512 -0.03192,-0.0876 -0.162304,-0.08097 -0.144119,0.0074 -0.173438,0.04396 -0.07472,0.09315 m 0.49483,0.154229 c 0.08919,0.04457 0.195952,0.03902 0.237023,-0.01218 0.04107,-0.0512 -0.03192,-0.0876 -0.162304,-0.08097 -0.144119,0.0074 -0.173438,0.04396 -0.07472,0.09315 m -48.988159,0.15423 c 0.08919,0.04457 0.195952,0.03902 0.237023,-0.01218 0.04107,-0.0512 -0.03192,-0.0876 -0.162304,-0.08097 -0.144119,0.0074 -0.173438,0.04396 -0.07472,0.09316 m 49.567975,0.04889 c 0.136078,0.07295 0.330917,0.132483 0.432976,0.132483 0.116903,0 0.09414,-0.04889 -0.06185,-0.132483 -0.136078,-0.07295 -0.330917,-0.132483 -0.432976,-0.132483 -0.116904,0 -0.09414,0.04889 0.06185,0.132483 M 4.206054,51.106952 c -0.238137,0.114284 -0.349474,0.207901 -0.247415,0.207901 0.102059,0 0.380401,-0.09362 0.618537,-0.207901 0.238137,-0.114284 0.349474,-0.207901 0.247415,-0.207901 -0.102058,0 -0.3804,0.09362 -0.618537,0.207901 m 36.543188,1.269153 c -0.07484,0.06539 -0.198304,0.266354 -0.274384,0.446493 -0.111584,0.264349 -0.09612,0.375086 0.08004,0.573887 0.455615,0.514201 2.517942,1.797542 2.888322,1.797542 0.34836,0 1.739698,-0.656554 2.010247,-0.948664 0.150428,-0.162403 -0.920508,-0.741226 -2.465119,-1.332232 -1.456285,-0.55723 -2.052431,-0.700201 -2.239105,-0.537026 m -23.120927,0.342389 c -1.284579,0.430299 -3.067574,1.23846 -3.270455,1.482297 -0.153397,0.184304 -0.119254,0.244145 0.247539,0.435235 0.233931,0.121841 0.759193,0.304448 1.167427,0.405623 l 0.742122,0.183995 1.237074,-0.725803 c 1.160129,-0.680459 1.675371,-1.081301 1.666093,-1.296142 -0.01027,-0.239518 -0.35133,-0.619539 -0.622249,-0.693261 -0.165892,-0.04519 -0.691277,0.04843 -1.167551,0.208056 m 3.711224,-0.07958 c -0.516602,0.209289 -4.069481,2.440061 -4.352647,2.732942 -0.253724,0.262653 -0.194469,1.006963 0.10812,1.358451 0.487531,0.56633 1.105574,0.426136 2.171437,-0.492453 0.514994,-0.443872 1.103842,-1.015908 1.308702,-1.271312 0.204735,-0.255249 0.762285,-0.710843 1.23893,-1.012361 0.981124,-0.620772 1.20355,-0.921211 0.956754,-1.291978 -0.193479,-0.290568 -0.749049,-0.299513 -1.431296,-0.02329 m 15.421374,0.102408 c 0.03278,0.288872 0.257682,0.506644 1.019349,0.98753 0.537385,0.339305 1.144913,0.825127 1.349896,1.079605 0.204983,0.254478 0.850736,0.861679 1.435007,1.349197 0.801377,0.668584 1.171633,0.88651 1.507128,0.886818 0.541839,3.09e-4 0.8542,-0.380792 0.8542,-1.042435 0,-0.601494 -0.14548,-0.731201 -2.536003,-2.261926 -1.680442,-1.076057 -1.941342,-1.196819 -2.763625,-1.278715 -0.904425,-0.09022 -0.907766,-0.08914 -0.865952,0.279926 m -17.118888,3.429904 c -1.470882,1.252188 -1.501932,1.484148 -0.234302,1.748806 0.577096,0.120453 1.093574,0.339304 1.402719,0.594399 0.269064,0.221936 0.56522,0.36722 0.658248,0.322802 0.0929,-0.04457 0.277723,-0.346707 0.410585,-0.67136 0.277228,-0.677529 0.686329,-2.34305 0.601342,-2.448852 -0.0313,-0.03902 -0.290465,-0.0056 -0.575859,0.07434 -0.482088,0.135105 -0.528725,0.118911 -0.654783,-0.225946 -0.0746,-0.204199 -0.208695,-0.371384 -0.297888,-0.371384 -0.08919,0 -0.678783,0.439708 -1.310062,0.977196 m 18.858462,-0.673981 c -0.210921,0.219468 -0.394379,0.270055 -0.730616,0.20204 l -0.448811,-0.09069 0.07558,0.581136 c 0.109605,0.8424 0.706865,2.716285 0.894282,2.805893 0.08808,0.0421 0.397224,-0.11922 0.686947,-0.358738 0.426049,-0.352105 0.706122,-0.450195 1.464573,-0.512503 0.84319,-0.0694 0.941538,-0.110583 0.975681,-0.409633 0.02387,-0.208364 -0.09179,-0.483509 -0.309269,-0.736291 -0.496562,-0.57728 -1.963361,-1.785357 -2.16018,-1.779342 -0.09154,0.0029 -0.293186,0.136955 -0.448192,0.298125 m 15.930801,1.900567 c 0,0.03917 0.614579,0.53826 1.365854,1.109062 0.751276,0.570802 1.794996,1.41382 2.319515,1.873268 0.852963,0.747087 0.896756,0.770221 0.415039,0.218543 -0.296279,-0.339304 -0.931888,-0.939873 -1.412616,-1.3347 -0.932878,-0.76621 -2.687792,-1.984776 -2.687792,-1.866173 M 4.1442,58.232001 C 3.111738,58.957803 1.337896,60.486215 1.082069,60.870246 1.000549,60.992858 1.294846,60.778326 1.736111,60.393832 2.177375,60.009338 3.148726,59.233103 3.89493,58.669086 4.64101,58.10507 5.276,57.612924 5.306061,57.575447 5.480983,57.357367 5.009287,57.624027 4.1442,58.232001 m 18.630346,-0.215613 c -0.07484,0.09331 -0.136078,0.361976 -0.136078,0.597176 0,0.38804 0.06581,0.451274 0.711317,0.683544 0.391164,0.140811 1.050772,0.45513 1.465563,0.69835 0.414791,0.243373 0.824387,0.442329 0.910239,0.442329 0.193479,0 0.0819,-0.646837 -0.226013,-1.310023 -0.179994,-0.387732 -0.319908,-0.480578 -0.873375,-0.579902 -0.362339,-0.06508 -0.896632,-0.249389 -1.187344,-0.409633 -0.384112,-0.211911 -0.565467,-0.24507 -0.664309,-0.121841 m 29.430007,-0.149294 c 0,0.03254 0.34799,0.323882 0.773172,0.647609 1.21221,0.922445 3.300516,2.672484 4.089893,3.427282 0.395369,0.37817 0.74274,0.657942 0.771811,0.621544 0.02907,-0.03624 -0.433595,-0.523609 -1.028133,-1.082998 -1.468284,-1.381431 -4.606743,-3.843084 -4.606743,-3.613437 m -16.205678,0.488598 c -0.238137,0.114284 -0.599982,0.214225 -0.804099,0.221936 -0.204117,0.0077 -0.433224,0.06509 -0.50918,0.127394 -0.309145,0.253861 -0.829087,1.886994 -0.6006,1.886994 0.03588,0 0.383865,-0.199264 0.773172,-0.442792 0.389184,-0.243528 1.057328,-0.600568 1.484737,-0.793509 0.883395,-0.398837 0.956754,-0.486285 0.770698,-0.919669 -0.153274,-0.357041 -0.48815,-0.381255 -1.114728,-0.08035 M 5.699327,59.319629 c -1.406059,1.057242 -3.71877,3.112963 -3.719513,3.306212 -2.47e-4,0.0583 0.598002,-0.427832 1.329361,-1.080375 C 4.040657,60.892922 5.16788,59.94873 5.814251,59.447485 6.460623,58.946086 7.042295,58.478 7.106994,58.407209 7.403892,58.082248 6.976483,58.359249 5.699327,59.319629 m 21.196657,1.611696 c 0.103667,0.808469 0.259538,1.048759 0.680144,1.048759 0.181726,0 0.819685,0.349791 1.417811,0.777469 0.659113,0.47117 1.173365,0.743539 1.305237,0.691256 0.119749,-0.04735 0.515984,-0.363519 0.880674,-0.702669 0.364566,-0.33915 0.872632,-0.687091 1.128954,-0.773151 0.402173,-0.134951 0.484439,-0.24106 0.599116,-0.772226 0.07323,-0.338687 0.102801,-0.677066 0.06569,-0.751713 -0.0809,-0.163329 -1.299918,0.627096 -1.970536,1.277789 -0.264239,0.256329 -0.578456,0.738912 -0.698205,1.07251 -0.177149,0.493225 -0.231704,0.552449 -0.292816,0.317558 -0.160943,-0.619076 -1.729059,-2.251901 -2.206941,-2.298015 -0.118141,-0.01141 -0.31731,-0.136493 -0.442749,-0.278076 -0.405266,-0.457135 -0.558663,-0.328662 -0.466377,0.390509 m 21.473638,0.346399 c 0,0.03948 1.015886,1.089629 2.257661,2.333488 1.241776,1.244013 2.092141,2.042612 1.889879,1.774716 -0.381019,-0.504484 -4.14754,-4.235289 -4.14754,-4.108204 M 9.764233,62.955429 c -1.673639,1.65488 -3.015122,3.131779 -2.627052,2.892107 0.149315,-0.09223 0.306671,-0.238593 0.349721,-0.32527 0.04293,-0.08683 0.908879,-0.990922 1.92427,-2.009298 1.557353,-1.562034 2.008514,-2.055105 1.815283,-1.984159 -0.01707,0.0062 -0.674948,0.648225 -1.462222,1.42662 m 44.110371,1.029635 c 0.123089,0.169652 0.251745,0.308458 0.285765,0.308458 0.03402,0 -0.03897,-0.138806 -0.162057,-0.308458 -0.123089,-0.169653 -0.251745,-0.308459 -0.285764,-0.308459 -0.03402,0 0.03897,0.138806 0.162056,0.308459 m -48.13,0.347015 -0.363329,0.501245 0.402049,-0.452971 c 0.221189,-0.24908 0.40205,-0.474717 0.40205,-0.501245 0,-0.119219 -0.102059,-0.01419 -0.44077,0.452971 m 44.060519,1.049068 c 0.483325,0.631723 1.248827,1.686188 1.700978,2.343205 0.452151,0.657016 0.82216,1.127261 0.82216,1.045211 0,-0.30013 -1.571456,-2.538459 -2.474149,-3.524138 l -0.927807,-1.013132 0.878818,1.148854 m 4.688019,-0.779166 c 0.123089,0.169652 0.251744,0.308458 0.285764,0.308458 0.03402,0 -0.03897,-0.138806 -0.162057,-0.308458 -0.123089,-0.169653 -0.251744,-0.308459 -0.285764,-0.308459 -0.03402,0 0.03897,0.138806 0.162057,0.308459 M 9.447292,66.03986 c -0.603321,0.790733 -1.283217,1.779805 -1.510715,2.197766 -0.37669,0.692027 -0.382256,0.717475 -0.06185,0.284091 0.831681,-1.125103 2.773889,-3.919736 2.724158,-3.919736 -0.03006,0 -0.548148,0.646991 -1.151593,1.437879 M 4.932464,65.18034 c -0.153768,0.244608 -0.149438,0.250006 0.04676,0.0583 0.206096,-0.201578 0.271538,-0.3282 0.169726,-0.3282 -0.02561,0 -0.123089,0.121533 -0.216488,0.269901 m 42.323791,0.424131 c 0.230838,0.296891 0.44745,0.539802 0.481469,0.539802 0.03402,0 -0.126924,-0.242911 -0.357762,-0.539802 -0.230838,-0.296892 -0.44745,-0.539803 -0.481469,-0.539803 -0.03402,0 0.126923,0.242911 0.357762,0.539803 m -34.831448,0.42413 -0.363328,0.501245 0.402049,-0.452971 c 0.221065,-0.24908 0.402049,-0.474718 0.402049,-0.501245 0,-0.119219 -0.102058,-0.01419 -0.44077,0.452971 m 35.326277,0.3282 c 0,0.03192 0.09748,0.153458 0.216489,0.269901 0.1962,0.191707 0.200529,0.186309 0.04676,-0.0583 -0.161686,-0.256946 -0.26325,-0.338533 -0.26325,-0.211602 m -36.060728,1.104435 c 0.136078,0.135105 0.776265,0.630798 1.422636,1.10166 0.646372,0.471016 1.322928,0.986913 1.503541,1.146694 0.180613,0.159782 0.389431,0.290414 0.463903,0.290414 0.30766,0 0.08944,-0.272677 -0.699442,-0.874017 -0.960713,-0.732435 -3.060523,-2.031508 -2.690638,-1.664751 m 35.363266,0.754644 c -1.633681,1.085157 -2.366524,1.667527 -2.190612,1.740631 0.07806,0.03239 0.495325,-0.209135 0.927311,-0.536872 0.43211,-0.327737 1.217034,-0.89129 1.744275,-1.252495 0.895643,-0.613216 1.092832,-0.79243 0.865953,-0.786724 -0.05109,0.0014 -0.657134,0.377245 -1.346927,0.83546"
     stroke="none"
     fill="#000000"
     fill-rule="evenodd"
     id="path1"
     style="stroke-width:0.138128" />
</svg>
