<?xml version="1.0" encoding="UTF-8" standalone="no"?>
<svg
   width="50"
   height="60"
   viewBox="0 0 60 70"
   version="1.1"
   id="svg1"
   xmlns="http://www.w3.org/2000/svg"
   xmlns:svg="http://www.w3.org/2000/svg">
  <defs
     id="defs1" />
  <path
     d="m 0.05378906,0.14587891 c -0.12761718,0.24089843 0.0069141,0.27466797 0.24773438,0.0620703 0.19828125,-0.175 0.20167968,-0.19974609 0.0276563,-0.20357422 C 0.22019531,0.00191406 0.09621094,0.065625 0.05378906,0.14587891 m 59.77042994,-0.00916 c 0.03984,0.0751953 0.09562,0.13671875 0.124101,0.13671875 C 59.976797,0.2734375 60,0.21191406 60,0.13671875 60,0.06152344 59.9441,0 59.875898,0 c -0.0682,0 -0.09152,0.06152344 -0.05168,0.13671875 M 34.679766,5.1128711 c -0.03656,0.042793 -1.354922,0.099258 -2.929688,0.1256445 -3.248906,0.054277 -3.196172,0.041973 -6.086016,1.4236524 L 24.082031,7.4186328 23.563945,7.2042578 C 23.13,7.0246094 22.996875,7.0185937 22.743633,7.1670703 c -0.166172,0.097617 -0.46043,0.2209375 -0.653789,0.2741211 -0.519258,0.1430078 -0.844688,0.4306641 -1.172227,1.0360547 -0.427734,0.7905078 -1.552969,1.9899419 -2.163984,2.3065819 -0.292031,0.151348 -0.831446,0.313496 -1.198711,0.360117 -0.860156,0.109375 -1.070625,0.312266 -2.252344,2.171778 -0.530625,0.835078 -1.228711,1.85664 -1.551328,2.270215 -0.3225,0.413574 -0.972773,1.336425 -1.445039,2.050781 -0.472148,0.714355 -1.181953,1.729492 -1.577109,2.255859 -1.6613676,2.212656 -1.9031254,2.745176 -1.7138676,3.774395 0.2617969,1.424746 1.0676956,3.079316 3.1556246,6.479511 0.554063,0.902344 1.327735,2.071289 1.719141,2.597657 0.391289,0.526367 0.94043,1.326171 1.220273,1.777343 1.012032,1.632012 1.674258,2.217989 3.170977,2.805606 0.613711,0.240898 0.909727,0.282051 1.523437,0.211504 2.408204,-0.276992 3.108282,-1.029766 4.226016,-4.544258 0.567188,-1.783223 0.897891,-3.590918 0.684961,-3.744316 -0.12,-0.08654 -0.120703,-0.149024 -0.0034,-0.313907 0.112968,-0.158867 0.120703,-0.543593 0.03352,-1.685195 -0.06211,-0.81375 -0.0859,-2.402285 -0.05285,-3.530215 0.05859,-1.998008 0.04945,-2.103555 -0.359414,-4.101562 -0.795235,-3.887461 -0.7275,-4.746465 0.625547,-7.929688 0.802851,-1.8886327 1.221445,-3.0660546 1.12875,-3.1743358 -0.02613,-0.030488 -0.224766,0.1260547 -0.441329,0.3479492 -0.216445,0.2217578 -0.624726,0.5437305 -0.907265,0.7155859 -0.474492,0.2884766 -0.524532,0.2949024 -0.656953,0.083672 -0.357539,-0.5705273 -0.849375,0.061113 -1.46461,1.8811137 -0.643711,1.904355 -0.869297,3.233808 -0.859687,5.06789 0.0098,1.893828 0.195117,2.937266 1.087851,6.128692 0.782461,2.796582 1.201055,5.434023 1.182071,7.447207 -0.0157,1.670156 -0.102891,2.125429 -0.434883,2.272949 -0.17168,0.07629 -0.185039,0.06098 -0.06762,-0.07711 0.223593,-0.262773 0.193945,-3.27291 -0.04219,-4.292832 -0.103828,-0.448164 -0.206016,-0.968652 -0.227109,-1.15664 -0.09809,-0.874317 -0.235547,-1.465489 -0.874453,-3.759766 -0.873164,-3.135781 -0.980625,-3.872148 -0.905039,-6.203476 0.06855,-2.112715 0.238359,-2.997286 1.086093,-5.654551 0.457735,-1.4350001 0.529336,-1.7772071 0.407696,-1.9482423 -0.244219,-0.3433008 -0.350039,-0.2460938 -0.705586,0.6470893 -0.75375,1.894102 -1.288243,4.792676 -1.288243,6.986192 0,2.542422 0.367852,4.503789 1.408711,7.512012 0.385313,1.113847 0.700196,2.068007 0.69961,2.120371 -0.0027,0.238437 -1.304766,-3.085606 -1.57125,-4.011192 -0.562149,-1.952754 -0.710742,-3.108027 -0.711914,-5.532187 -5.86e-4,-1.444981 0.05109,-2.427852 0.143906,-2.734375 0.134414,-0.444063 0.131719,-0.458828 -0.03867,-0.205078 -0.547969,0.816484 -0.921094,2.000605 -1.220273,3.871875 l -0.211524,1.323437 -0.008,-0.820312 c -0.01184,-1.21543 0.187382,-3.322403 0.388124,-4.10293 0.103477,-0.4025 0.422696,-1.041797 0.774258,-1.550938 0.329063,-0.476328 0.57211,-0.896738 0.54,-0.934062 -0.03199,-0.03732 -0.480937,0.39334 -0.997617,0.957031 -0.51668,0.563828 -1.206445,1.194649 -1.532812,1.401778 -0.702657,0.44625 -0.706641,0.55248 -0.0098,0.265781 0.275976,-0.113613 0.516445,-0.206582 0.534375,-0.206582 0.01793,0 -0.06164,0.292304 -0.176836,0.649414 -0.347344,1.076797 -0.518672,2.595469 -0.52043,4.614258 -0.0018,1.810839 0.0259,2.042988 0.513047,4.30664 0.460781,2.141563 0.515625,2.564707 0.521953,4.033203 0.01195,2.740664 -0.608437,4.408086 -1.731562,4.654043 -1.160625,0.253887 -3.072891,-1.461386 -4.626914,-4.150234 -1.337696,-2.314648 -2.713242,-5.435801 -2.713242,-6.156309 0,-0.133437 0.300234,-0.544961 0.667148,-0.914648 0.409102,-0.411934 0.630234,-0.56752 0.571758,-0.401953 -0.358125,1.013086 -0.130547,2.258047 0.808359,4.422715 0.754922,1.740566 1.162031,2.29332 0.604102,0.820175 -0.515157,-1.360214 -1.010742,-3.381601 -1.010039,-4.120156 0.0012,-1.349824 0.154336,-1.692304 1.45207,-3.24543 1.355508,-1.622578 1.859062,-2.334335 2.473828,-3.497402 0.235195,-0.445019 0.400781,-0.686191 0.367734,-0.535801 -0.171328,0.781211 -0.327773,2.967891 -0.264257,3.691817 0.107695,1.226094 0.529922,2.874101 1.383398,5.39998 0.41918,1.240723 0.830156,2.549805 0.913242,2.909239 0.224649,0.97248 0.277383,0.681679 0.123047,-0.678809 -0.08883,-0.782578 -0.442148,-2.291953 -1.008047,-4.305274 -0.714492,-2.541738 -0.871172,-3.25582 -0.87,-3.964843 0.0016,-1.040703 0.740274,-4.843262 1.007696,-5.188067 0.102539,-0.132207 0.427851,-0.336328 0.722812,-0.453496 0.641719,-0.255117 0.770508,-0.265644 0.658125,-0.05332 -0.05777,0.109101 -0.01969,0.13084 0.119883,0.06836 0.1125,-0.05045 0.250781,-0.0916 0.307265,-0.0916 0.05637,0 0.525469,-0.461426 1.042383,-1.025391 0.516914,-0.563965 0.994571,-1.025391 1.061367,-1.025391 0.221719,0 0.585938,-0.8804682 0.586407,-1.4173627 4.68e-4,-0.4838476 0.02273,-0.5208984 0.26414,-0.4376367 0.145079,0.050039 0.791016,0.1264648 1.435547,0.1699414 1.441641,0.097344 2.177344,-0.1173047 4.803282,-1.4012305 1.533398,-0.7496289 1.900195,-0.8785547 2.49996,-0.8785547 0.647344,0 0.752696,0.045254 1.32879,0.5714844 1.161679,1.0606641 2.394843,2.605586 2.763515,3.4617188 0.479297,1.113164 1.125117,3.508476 1.437656,5.332031 0.317696,1.85418 0.762774,3.535 0.995743,3.760449 0.09621,0.09324 0.17496,0.142325 0.17496,0.108965 0,-0.03322 -0.288867,-1.770508 -0.641953,-3.86039 C 36.250781,9.8509961 35.963789,8.7536914 35.017031,7.1424609 34.828828,6.8221289 34.707188,6.4991992 34.74668,6.4246875 c 0.03949,-0.074648 0.309257,-0.135625 0.599531,-0.135625 0.616523,0 3.485859,1.0624414 4.24582,1.5719922 0.372071,0.2495117 0.68168,0.3420703 1.144453,0.3420703 0.596133,0 0.667735,0.038008 1.189102,0.6320508 0.305156,0.3476758 0.973828,0.9474609 1.485937,1.3330082 1.162969,0.875683 1.497774,1.365 1.935352,2.828847 0.545508,1.824922 0.75082,3.448184 0.751172,5.938516 1.17e-4,2.134863 -0.01043,2.228652 -0.440391,3.896484 -0.242344,0.939942 -0.481054,1.757793 -0.530625,1.817266 -0.04957,0.05961 -0.153164,0.01969 -0.23039,-0.08873 -0.11086,-0.155996 -0.06879,-0.478652 0.201562,-1.543964 0.187969,-0.740606 0.40957,-1.808106 0.492422,-2.372071 0.213398,-1.451133 0.192422,-4.753164 -0.03797,-5.973515 -0.232734,-1.232657 -0.901289,-3.187461 -1.151836,-3.36752 -0.139687,-0.100351 -0.396679,-0.02242 -0.984258,0.29832 -0.43746,0.238848 -0.813867,0.412618 -0.836484,0.386231 -0.02262,-0.02652 0.322617,-0.254297 0.767227,-0.506406 0.539062,-0.30584 0.787968,-0.520215 0.747304,-0.643672 C 44.061088,10.735977 43.420546,10.29834 42.671132,9.8653516 41.921718,9.4322266 41.085468,8.911875 40.81289,8.7089844 40.208788,8.2591797 40.076249,8.2396289 40.394765,8.6474609 c 0.399257,0.5110547 0.838476,1.4131251 1.19789,2.4602541 0.296133,0.862832 0.376055,0.987656 0.614063,0.959492 0.310078,-0.03678 0.308203,-0.03459 -0.638555,0.737871 -0.507187,0.413848 -0.531328,0.46457 -0.570351,1.196563 -0.0423,0.792832 0.07418,1.025664 0.206249,0.412207 0.07969,-0.370371 0.444727,-0.605254 0.940782,-0.605254 0.679219,0 1.917656,1.705429 1.917656,2.640859 0,0.514609 -0.115547,0.452813 -0.582773,-0.312266 -0.490312,-0.802949 -1.202343,-1.371562 -1.717499,-1.371562 -0.39586,0 -0.554883,0.135215 -1.049883,0.892363 -0.164883,0.25211 -0.41461,0.477559 -0.554883,0.500801 -0.497109,0.08258 -0.294609,1.514297 0.401601,2.839238 l 0.248321,0.472637 0.231094,-0.370098 c 0.174023,-0.278632 0.330937,-0.370097 0.635273,-0.370097 0.838594,0 1.68375,-0.771367 1.685156,-1.538086 7.03e-4,-0.391563 0.210117,-0.271524 0.292852,0.16789 0.176953,0.939532 -0.525235,4.924883 -0.867539,4.924883 -0.176367,0 -0.581485,-0.638886 -0.953672,-1.503906 -0.210234,-0.48877 -0.405117,-0.811289 -0.432891,-0.716816 -0.121289,0.412343 0.529805,1.517031 1.599844,2.714687 l 1.113281,1.245918 -0.932344,-0.06521 -0.932343,-0.06535 -0.802383,-0.975489 C 41.0025,22.382363 40.271719,21.435723 39.819844,20.81543 39.04582,19.752852 38.789062,19.505801 38.789062,19.823809 c 0,0.169257 0.554649,0.912187 1.959493,2.624863 0.598008,0.729121 1.087265,1.375117 1.087265,1.435547 -1.17e-4,0.06043 -0.3825,0.112383 -0.849609,0.115254 -0.63457,0.004 -0.970078,0.0793 -1.326211,0.297773 -0.476953,0.292442 -1.339688,1.286113 -1.339688,1.543008 0,0.07492 -0.167343,0.136309 -0.371953,0.136309 h -0.37207 l 0.254883,0.316367 c 0.140156,0.174043 0.254765,0.386367 0.254765,0.471816 0,0.759746 0.319102,1.645684 0.950743,2.639629 0.765,1.203672 1.41457,1.772832 2.407265,2.10957 0.6,0.203438 0.626367,0.232149 0.626367,0.681543 0,0.657071 -0.366328,1.010899 -2.109375,2.0367 -0.805664,0.47414 -1.721953,1.053417 -2.036132,1.287343 -0.736055,0.547969 -1.58543,0.758242 -2.365196,0.585703 -0.80625,-0.178418 -1.784179,-0.642168 -2.277304,-1.079804 -0.225117,-0.199746 -0.49711,-0.345762 -0.604571,-0.324571 -0.296718,0.05865 -1.330312,-0.741425 -1.491796,-1.155 -0.322149,-0.824961 -1.004063,-1.848847 -1.533165,-2.301933 -0.965507,-0.826875 -1.232929,-0.588438 -0.820429,0.731582 0.141445,0.452812 0.354023,0.925449 0.472265,1.050273 0.194063,0.204942 0.198164,0.257305 0.04137,0.536485 -0.221954,0.395117 -0.113086,1.284062 0.231562,1.889589 0.325898,0.572715 1.188867,1.086778 1.633945,0.973165 0.30586,-0.07807 0.322383,-0.06248 0.205079,0.193183 -0.08836,0.192637 -0.09094,0.390059 -0.0084,0.643535 0.127031,0.389649 -0.04488,0.846563 -0.934805,2.486367 -0.485742,0.894825 -0.505312,1.530293 -0.07805,2.526836 0.339258,0.791329 0.63,1.282832 0.705118,1.191641 0.02637,-0.03213 -0.0034,-0.403594 -0.06633,-0.825644 -0.190195,-1.276954 -0.0191,-1.718418 1.258008,-3.244063 0.608086,-0.726387 1.105782,-1.389063 1.106016,-1.472598 2.34e-4,-0.08353 -0.27,-0.189218 -0.600352,-0.234882 -0.621328,-0.08572 -1.157109,-0.392793 -1.157109,-0.66295 0,-0.09064 0.08648,-0.06344 0.208828,0.06562 0.123984,0.130977 0.492656,0.244864 0.908203,0.280547 0.38461,0.03309 0.847852,0.127969 1.029258,0.210957 0.502617,0.229824 1.030899,0.181426 1.546875,-0.141504 0.27375,-0.171308 0.846094,-0.341797 1.38293,-0.411933 0.503789,-0.0659 1.113984,-0.237617 1.355976,-0.381582 0.31043,-0.184844 0.578555,-0.240215 0.910664,-0.188262 0.311602,0.04881 0.594024,-8.2e-4 0.835547,-0.146426 0.200625,-0.121133 0.622735,-0.220117 0.937852,-0.220117 0.741211,0 1.618594,-0.311445 1.973672,-0.700684 0.214687,-0.235293 0.312773,-0.269746 0.418007,-0.146972 0.164883,0.192363 -0.154101,1.518398 -0.50414,2.095488 -0.286641,0.4725 -0.903867,0.802949 -1.499883,0.802949 -0.40582,0 -0.480352,0.04334 -0.480352,0.279864 0,0.168984 0.140508,0.371875 0.354844,0.512695 0.195117,0.127969 0.386602,0.376933 0.425508,0.553027 0.149883,0.678262 -0.05672,3.638223 -0.349687,5.011836 l -0.29168,1.367188 0.436289,-0.587207 c 1.143867,-1.539454 1.799883,-3.426172 1.816406,-5.22334 0.0081,-0.884024 -0.04043,-1.271485 -0.203086,-1.61916 -0.117539,-0.251426 -0.188203,-0.486719 -0.157031,-0.523086 0.103711,-0.120996 1.013203,1.806465 1.630195,3.454882 0.594961,1.589629 0.609961,1.661954 0.654141,3.160801 0.05426,1.845703 -0.163008,3.17666 -0.765352,4.686719 l -0.408984,1.025391 -0.162773,-0.720508 c -0.204961,-0.907539 -0.414141,-1.378262 -0.799219,-1.797988 -0.396094,-0.431622 -0.501211,-0.282188 -0.329297,0.467578 0.381211,1.66332 0.238359,3.26375 -0.443203,4.96289 -0.322031,0.802676 -1.283086,2.51959 -1.496719,2.673672 -0.04734,0.03418 -0.08613,-0.725976 -0.08613,-1.689023 V 52.389663 L 39.935195,51.11189 C 39.63082,50.409018 39.3375,49.618647 39.283125,49.355464 39.228745,49.09228 39.137344,48.8898 39.079922,48.905386 c -0.05754,0.01572 -0.171328,0.411113 -0.253125,0.878828 -0.165938,0.948828 -0.766055,2.513711 -1.342852,3.501094 -0.406289,0.695761 -1.996875,2.927421 -2.045859,2.87041 -0.01606,-0.01887 0.05016,-0.433809 0.147187,-0.922168 0.190547,-0.957989 0.137461,-2.207871 -0.124687,-2.938633 -0.138281,-0.385547 -0.151406,-0.34002 -0.21832,0.757695 -0.10125,1.660996 -0.370664,2.76541 -1.087266,4.456211 -0.344531,0.812656 -0.611367,1.495156 -0.593086,1.516484 0.09738,0.113614 2.265703,-1.959042 3.181758,-3.041308 1.154883,-1.364453 1.836211,-2.461074 2.228203,-3.58627 l 0.252188,-0.724199 0.221953,0.789277 c 0.300937,1.070098 0.303984,3.101329 0.0061,4.13875 -0.360351,1.254942 -1.208086,2.746543 -2.490703,4.382793 -0.670547,0.85545 -1.219219,1.608633 -1.219219,1.673711 0,0.184844 1.846524,-1.00707 3.366915,-2.173418 1.673085,-1.283515 3.992929,-3.90414 4.526601,-5.113554 l 0.331758,-0.751953 -0.07758,0.654882 c -0.10582,0.893457 -0.488672,2.230157 -0.843399,2.944786 -0.161484,0.32539 -0.268125,0.621523 -0.236953,0.65789 0.08484,0.09898 1.201524,-1.09375 2.139375,-2.28498 0.906914,-1.152129 1.53,-2.410762 1.924102,-3.886641 0.361406,-1.353379 0.336914,-2.52793 -0.09035,-4.333027 -0.336094,-1.419824 -0.341719,-1.493789 -0.195,-2.562793 0.180469,-1.315235 0.06656,-2.567305 -0.373711,-4.106074 -0.39832,-1.392344 -1.212656,-3.187872 -1.886015,-4.158438 -0.931289,-1.342441 -0.972891,-1.425156 -0.519258,-1.035098 0.506133,0.43545 1.269844,0.456641 1.739414,0.04826 0.552773,-0.480703 0.776367,-1.080078 0.833672,-2.234531 0.06176,-1.244551 -0.181524,-1.962324 -0.810235,-2.390801 l -0.388359,-0.264551 0.251836,0.373516 c 0.512695,0.76043 0.437109,1.855684 -0.166289,2.409394 -0.42832,0.393204 -0.789844,0.342344 -1.29375,-0.181699 -0.241875,-0.251562 -0.690234,-0.626445 -0.996445,-0.833301 -0.306094,-0.206718 -0.579961,-0.420136 -0.608555,-0.47414 -0.02871,-0.05414 0.01418,-0.40168 0.09527,-0.772324 0.134649,-0.615918 0.181993,-0.68086 0.550078,-0.753047 0.569766,-0.111699 1.083985,-0.455684 1.461563,-0.977403 0.397852,-0.549882 0.750234,-1.425293 0.758672,-1.884804 0.0034,-0.187989 0.08227,-0.458965 0.175078,-0.601973 0.202266,-0.311719 0.225703,-0.257578 0.437461,1.009531 l 0.148008,0.886075 0.754101,0.481113 c 0.958008,0.611269 1.951992,1.681094 2.434336,2.620215 0.386133,0.75209 0.745899,2.093437 0.726328,2.708945 -0.0061,0.190996 -0.08039,-0.0592 -0.165234,-0.556035 -0.203555,-1.191504 -0.649922,-2.188731 -1.386563,-3.097363 -0.8775,-1.082403 -2.53875,-2.176153 -2.53875,-1.671524 0,0.07615 0.391172,0.587481 0.86918,1.136133 1.092891,1.254668 1.312852,1.950156 1.19461,3.778223 -0.09762,1.508554 0.12164,2.450957 0.73746,3.16955 0.988477,1.153086 2.611993,0.684961 3.406993,-0.982597 0.254531,-0.53375 0.287461,-0.757696 0.267773,-1.816582 -0.01734,-0.927364 0.05977,-1.62545 0.332227,-3.007813 0.823476,-4.177305 1.019648,-6.465156 0.629648,-7.344941 -0.09856,-0.222442 -0.678633,-1.173321 -1.289062,-2.113125 -1.01543,-1.563516 -1.109766,-1.760391 -1.109766,-2.316563 0,-1.152676 -0.227344,-1.970117 -0.744375,-2.675722 -1.985277,-2.710039 -2.514262,-3.475801 -3.066801,-4.439532 -0.344883,-0.601562 -0.836601,-1.331504 -1.092773,-1.622168 -0.306328,-0.347675 -0.491485,-0.698632 -0.541055,-1.02539 -0.04137,-0.273301 -0.102656,-0.605664 -0.136172,-0.738555 -0.07734,-0.306933 -0.774844,-0.7222851 -1.425117,-0.8486132 -0.42457,-0.082578 -0.491484,-0.1380859 -0.431602,-0.3582031 0.04582,-0.1685742 0.01488,-0.2605859 -0.08754,-0.2605859 -0.08707,0 -0.244922,-0.1691211 -0.350625,-0.3759766 C 42.8775,8.3038867 42.532031,7.7989844 42.215625,7.3885547 L 41.640234,6.6424805 41.167852,6.8075 C 40.448086,7.0590625 40.181367,7.016543 38.865117,6.4397266 36.731602,5.504707 34.85332,4.9092969 34.679766,5.1128711 m 5.662851,7.3627149 c -0.109453,0.63 -7.03e-4,0.810469 0.286524,0.475371 0.123281,-0.143828 0.152343,-0.334141 0.09633,-0.631094 -0.111446,-0.592402 -0.263789,-0.530468 -0.382852,0.155723 m -8.44875,0.177324 c -0.165351,0.423281 -0.170625,0.513106 -0.02402,0.407422 0.06164,-0.04443 0.200156,0.07615 0.307851,0.267832 0.149532,0.266328 0.177422,0.509004 0.118242,1.029766 -0.08859,0.77957 0.05883,0.897422 0.296251,0.236797 0.212695,-0.592129 0.185742,-1.507325 -0.05707,-1.939766 -0.249726,-0.444609 -0.468164,-0.445293 -0.64125,-0.0021 m 9.736992,0.464434 c -0.145078,0.141093 -0.263672,0.292851 -0.263672,0.337148 0,0.04443 0.272813,0.08066 0.606329,0.08066 h 0.606445 l -0.275274,-0.341797 c -0.326015,-0.404824 -0.335039,-0.405918 -0.673828,-0.07601 m -11.222226,0.07697 c 0.520898,0.216426 0.745547,0.499024 0.844219,1.061485 0.114843,0.654746 0.270585,0.555488 0.270585,-0.172676 0,-0.668008 -0.01781,-0.707383 -0.406406,-0.896738 -0.223476,-0.108965 -0.579492,-0.195371 -0.791015,-0.19209 l -0.38461,0.006 0.467227,0.194003 m 9.930469,0.716817 c 0.0634,0.357109 0.162421,0.707793 0.220078,0.779297 0.148125,0.183476 0.133711,-0.837129 -0.01641,-1.164297 -0.217734,-0.474688 -0.321562,-0.278496 -0.203671,0.385 m -11.560899,0.11334 c -0.440742,0.188398 -1.590703,0.982734 -1.590703,1.098945 0,0.03063 0.368789,-0.160918 0.819492,-0.425606 0.450703,-0.264824 1.080586,-0.546875 1.399805,-0.626718 0.503906,-0.126055 0.652969,-0.107735 1.132266,0.13959 0.64746,0.33414 0.771328,0.291757 0.330234,-0.113067 -0.37793,-0.346855 -1.369453,-0.381582 -2.091094,-0.07314 m 17.440781,0.536074 c 0.03375,0.15039 0.37793,1.474785 0.764883,2.943008 1.064649,4.039355 1.080469,4.162812 1.040391,8.131211 -0.0307,3.049238 -0.01172,3.477031 0.176133,3.964843 0.295429,0.767539 0.743554,1.275176 1.450546,1.64336 0.793243,0.41289 1.085274,1.033867 1.105547,2.350195 l 0.0143,0.92832 0.101836,-0.815937 c 0.05602,-0.448711 0.230156,-1.340801 0.386953,-1.982422 0.425157,-1.739609 0.537891,-2.635938 0.532149,-4.233633 -0.0059,-1.633242 -0.09516,-2.011406 -0.827461,-3.504785 l -0.510469,-1.040977 -0.150469,1.131075 c -0.08273,0.621933 -0.176015,1.160879 -0.207304,1.197382 -0.03129,0.0365 -0.05859,-0.605253 -0.06059,-1.426113 -0.0047,-1.945371 -0.166407,-3.344961 -0.460313,-3.985215 -0.130078,-0.283281 -0.4725,-0.818398 -0.760781,-1.189179 l -0.524297,-0.674024 0.288164,0.966465 c 0.322734,1.082949 0.563203,3.32418 0.447188,4.170059 -0.06891,0.502715 -0.106407,0.381308 -0.394454,-1.274629 C 48.091057,18.756172 47.656057,17.346738 46.526018,15.039063 46.3234,14.625488 46.185354,14.410156 46.218986,14.560547 M 29.69133,15.028262 c -1.137891,0.477968 -1.742461,1.063945 -2.519297,2.441523 -0.721054,1.279004 -0.869062,1.782539 -0.286406,0.974668 l 0.313242,-0.434355 0.492422,0.408652 c 1.106953,0.918887 1.821328,1.089785 3.555,0.84998 1.364414,-0.188535 1.510664,-0.13371 1.630547,0.611407 0.06281,0.390468 -0.05754,0.969609 -0.485274,2.33666 -0.0968,0.309258 0.724571,-0.722695 1.387735,-1.743574 0.241758,-0.372012 0.439453,-0.81334 0.439453,-0.980547 0,-0.167344 0.123867,-0.730215 0.275156,-1.250977 0.151406,-0.520761 0.307969,-1.192871 0.34793,-1.493652 0.06691,-0.503535 0.04043,-0.470449 -0.335156,0.416855 -0.224297,0.530196 -0.433946,1.264375 -0.465703,1.631739 -0.03187,0.367363 -0.13793,0.810332 -0.235782,0.984375 -0.235547,0.419453 -0.318398,0.403457 -0.149648,-0.02871 0.168516,-0.431485 -0.03164,-0.974121 -0.684727,-1.856504 -0.248203,-0.335235 -0.661992,-1.030996 -0.91957,-1.546016 -0.47625,-0.952246 -1.089141,-1.588262 -1.521797,-1.579238 -0.130078,0.0027 -0.507187,0.118672 -0.838125,0.257715 m 12.43418,1.054511 c 0.332344,0.933926 0.347461,1.018829 0.222773,1.249747 -0.06996,0.129746 -0.279844,0.271933 -0.466289,0.31623 l -0.339023,0.08039 0.323789,0.105683 c 0.409922,0.133985 0.642656,-0.07957 0.738984,-0.678535 0.09328,-0.580508 -0.01875,-0.983965 -0.326719,-1.176191 -0.214804,-0.134121 -0.23332,-0.12168 -0.153515,0.102675 M 30.5359,16.508789 c 0.05098,0.206856 0.09621,0.590762 0.100665,0.853262 0.0071,0.427793 -0.03457,0.493418 -0.402188,0.632871 -0.227461,0.08627 -0.428555,0.263183 -0.451289,0.397031 -0.03504,0.205488 0.01746,0.22832 0.351562,0.153399 0.58711,-0.131661 0.920039,-0.651055 0.920039,-1.435821 0,-0.656933 -0.146132,-0.976718 -0.44625,-0.976718 -0.124453,0 -0.142265,0.0927 -0.07254,0.375976 m 10.762852,-0.190312 c -0.106523,0.32375 -0.0055,0.703007 0.187266,0.703007 0.114257,0 0.17414,-0.137129 0.17414,-0.398808 0,-0.432168 -0.250078,-0.642578 -0.361406,-0.304199 M 29.456368,16.74832 c -0.11707,0.356016 0.06211,0.888399 0.298946,0.888399 0.266367,0 0.386601,-0.315821 0.290507,-0.762754 -0.08016,-0.372695 -0.480117,-0.458008 -0.589453,-0.125645 m -14.434219,0.553301 c -0.348984,0.837813 -0.331289,1.833399 0.06527,3.677598 0.405469,1.885215 0.466875,1.589765 0.14414,-0.693711 -0.245507,-1.737422 -0.238593,-2.669297 0.02391,-3.241602 0.06328,-0.137949 0.09434,-0.275078 0.06914,-0.304609 -0.02531,-0.02953 -0.161484,0.223535 -0.302461,0.562324 m 13.220039,0.103906 c 0,0.208633 0.343125,0.776426 0.34629,0.572989 0.0012,-0.0752 -0.02977,-0.275078 -0.06855,-0.444336 -0.07594,-0.33045 -0.277735,-0.423965 -0.277735,-0.128653 m -0.703125,3.046778 c 0,0.287929 1.125235,1.365683 1.669922,1.599472 0.397618,0.170762 0.198985,-0.130293 -0.292968,-0.444062 -0.273985,-0.17459 -0.695743,-0.536758 -0.9375,-0.804863 -0.241641,-0.267969 -0.439454,-0.425743 -0.439454,-0.350547 m 13.668868,4.969043 c -0.97793,0.08012 -1.057618,0.110332 -1.371211,0.519804 -0.359297,0.469219 -0.625664,1.374571 -0.508946,1.729766 0.118125,0.358887 0.384375,0.251016 0.554883,-0.224629 0.216914,-0.605527 0.4575,-0.808008 1.053164,-0.886348 0.374297,-0.04922 0.557461,-0.0067 0.703125,0.163379 0.433008,0.505039 0.116836,1.820957 -0.562265,2.340078 -0.225586,0.172403 -0.441211,0.20959 -0.855118,0.147247 l -0.553593,-0.0834 0.322734,0.332637 c 0.414141,0.426836 1.037109,0.565469 1.511367,0.336191 0.426328,-0.205898 0.742032,-0.929414 0.861328,-1.973808 0.143789,-1.257813 0.176368,-1.287754 1.434258,-1.3192 0.739453,-0.01846 1.007461,0.191133 0.939141,0.734043 -0.02988,0.238028 1.17e-4,0.368731 0.07793,0.339063 0.204961,-0.07848 0.213984,-1.001602 0.01418,-1.452363 -0.365976,-0.825645 -0.88582,-0.926543 -3.620976,-0.702461 m 2.409375,2.199668 c -0.325782,0.353964 -0.420118,0.79748 -0.268594,1.262324 0.15293,0.469082 0.5625,0.588574 1.107305,0.323066 0.467226,-0.227773 0.56707,-0.495469 0.184687,-0.495469 -0.343476,0 -0.695391,-0.24705 -0.695391,-0.488085 0,-0.112793 0.0852,-0.356836 0.189258,-0.54209 0.178594,-0.318008 0.176485,-0.337012 -0.03644,-0.337012 -0.124219,0 -0.340547,0.124687 -0.48082,0.277266 m -16.565039,0.99832 c -0.306914,0.157773 -1.271016,1.113574 -1.271016,1.26 0,0.04156 0.223711,0.445566 0.497227,0.898105 0.475429,0.78627 0.51539,0.819356 0.908203,0.749219 l 0.410976,-0.07328 -0.373359,0.166933 c -0.298594,0.133438 -0.351563,0.212051 -0.264141,0.39293 0.06,0.124414 0.180938,0.552891 0.268477,0.952383 0.154101,0.702324 0.148242,0.753457 -0.175196,1.551211 -0.239414,0.590625 -0.331171,1.019238 -0.322617,1.508555 0.0102,0.583379 0.02437,0.623437 0.0968,0.273437 0.136289,-0.658848 0.290508,-0.907129 1.169297,-1.883027 0.860273,-0.954981 1.021875,-1.329864 0.573398,-1.329864 -0.200507,0 -0.226523,-0.0365 -0.117187,-0.164062 0.188555,-0.21998 0.177188,-0.456641 -0.04852,-1.011582 -0.139922,-0.343984 -0.269531,-0.469766 -0.498047,-0.483574 -0.27246,-0.01641 -0.278085,-0.02557 -0.0477,-0.07752 0.259102,-0.05838 0.257813,-0.06644 -0.153398,-0.982461 -0.37125,-0.826601 -0.39961,-0.962363 -0.270352,-1.293359 0.186445,-0.477285 0.02777,-0.665137 -0.382851,-0.454043 m 6.17039,1.718828 c -0.512812,0.277813 -0.996094,0.759336 -0.996094,0.992441 0,0.08449 0.113086,0.05305 0.263672,-0.07328 0.526289,-0.442012 1.094883,-0.738418 1.611328,-0.84 0.422579,-0.08326 0.480821,-0.125371 0.292969,-0.211914 -0.374179,-0.172539 -0.670429,-0.139043 -1.171875,0.132754 m 2.13211,0.374199 c -0.09363,0.109239 0.01219,0.322793 0.159961,0.322793 0.0607,0 0.110273,-0.09229 0.110273,-0.205078 0,-0.211367 -0.138281,-0.27166 -0.270234,-0.117715 m 0.802617,0.31336 c -0.117422,0.221621 0.137695,0.289023 0.288984,0.07629 0.117774,-0.165567 0.110625,-0.203575 -0.03844,-0.203575 -0.100664,0 -0.213516,0.05729 -0.250547,0.127286 m 9.857695,0.101172 c -0.120469,0.140546 -0.09141,0.70246 0.04125,0.798164 0.245156,0.176777 0.584297,1.170039 0.584297,1.711308 0,0.636289 0.13125,0.993809 0.563555,1.534531 0.516328,0.64586 0.639961,0.514336 0.590508,-0.627949 C 47.76082,33.762012 47.6734,33.36293 47.400939,32.746738 47.062385,31.98084 46.173635,30.942051 46.01508,31.126895 m -12.382266,0.378574 c -0.534609,0.325254 -1.076601,0.896875 -0.850195,0.896875 0.06785,0 0.384844,-0.20002 0.70418,-0.444336 0.319336,-0.244317 0.680625,-0.517617 0.802734,-0.607168 0.416133,-0.305156 -0.101367,-0.183203 -0.656719,0.154629 m 3.398438,-0.128516 c 0,0.112793 0.04711,0.205078 0.104648,0.205078 0.05754,0 0.135,-0.09229 0.172149,-0.205078 0.04102,-0.124961 1.17e-4,-0.205078 -0.104649,-0.205078 -0.09469,0 -0.172148,0.09229 -0.172148,0.205078 m -2.769023,1.088418 c -0.313946,0.248555 -0.702657,0.624942 -0.86379,0.836582 -0.247265,0.32457 -0.201445,0.304473 0.292969,-0.128516 0.322266,-0.282324 0.787031,-0.624667 1.032891,-0.760839 0.297305,-0.164746 0.390351,-0.273028 0.277851,-0.323477 -0.09305,-0.04156 -0.425976,0.127695 -0.739921,0.37625 m 1.86082,0.164199 c -0.204024,0.09611 -0.183516,0.319649 0.0293,0.319649 0.09668,0 0.175781,-0.09228 0.175781,-0.205078 0,-0.112793 -0.01324,-0.200157 -0.0293,-0.194278 -0.01606,0.0059 -0.09516,0.04184 -0.175781,0.07971 m 1.075664,0.241582 c -0.124102,0.105821 -0.184922,0.239942 -0.135234,0.298047 0.0498,0.05797 0.178476,0.003 0.28582,-0.122363 0.253359,-0.295449 0.142031,-0.425332 -0.150586,-0.175684 m 0.963984,0.05469 c -0.213633,0.275351 -0.260742,0.497793 -0.07734,0.365586 0.122226,-0.08805 0.392812,-0.615645 0.31582,-0.615645 -0.02449,0 -0.131836,0.11252 -0.238477,0.250059 m -16.014263,0.160097 c -0.09668,0.07287 -0.123046,0.132481 -0.05859,0.132481 0.06445,0 0.196289,-0.05961 0.292968,-0.132481 0.09668,-0.07287 0.123047,-0.13248 0.05859,-0.13248 -0.06445,0 -0.196289,0.05961 -0.292969,0.13248 m -5.195859,4.067383 c -0.02941,0.05646 -0.229219,1.025391 -0.44414,2.153321 -0.472149,2.478847 -0.525821,4.434746 -0.176836,6.448613 0.201445,1.162656 0.203671,1.301152 0.03176,1.914062 -0.645586,2.302207 -0.695625,5.497735 -0.125976,8.053965 0.168164,0.754414 0.258398,0.894824 1.317304,2.048867 1.68375,1.83504 2.133399,2.292227 2.189766,2.226465 0.02801,-0.03267 -0.286523,-1.010215 -0.698906,-2.172461 -0.970664,-2.736289 -1.340742,-4.249629 -1.417383,-5.797558 -0.03375,-0.680723 -0.08426,-1.422149 -0.112266,-1.647735 -0.08918,-0.719277 0.229102,-0.05975 0.645586,1.338203 0.736641,2.471875 1.553907,3.782051 3.308203,5.303458 0.960118,0.832753 3.361407,2.31205 4.721719,2.908691 0.843164,0.369824 1.713047,1.111113 2.413946,2.05707 0.217265,0.293262 1.107773,1.252481 1.978828,2.131582 0.871054,0.879102 1.656211,1.700508 1.74457,1.825196 0.08848,0.124687 0.230742,0.226816 0.316055,0.226816 0.125273,0 0.120234,-0.137812 -0.02649,-0.717773 -0.339023,-1.340118 -1.087382,-3.39254 -1.503867,-4.124668 -0.479648,-0.843008 -1.353867,-2.033282 -1.428984,-1.945645 -0.02813,0.03295 0.195937,0.758516 0.498047,1.612461 0.302109,0.853945 0.620742,1.788145 0.708281,2.076074 L 31.050817,63.595962 30.4732,63.031724 C 29.433161,62.015903 28.277458,60.454439 27.284411,58.723989 26.747692,57.788696 26.289255,57.088423 26.2657,57.16772 c -0.02355,0.0793 0.02344,0.508867 0.104531,0.954433 0.08109,0.445704 0.116368,0.846563 0.0784,0.89086 -0.1575,0.183887 -3.248672,-3.748145 -3.783399,-4.812637 -0.479531,-0.954707 -0.967265,-2.441523 -1.121718,-3.420019 -0.07629,-0.482891 -0.17543,-0.878008 -0.22043,-0.878008 -0.302578,0 -0.429375,2.282383 -0.169102,3.041992 0.04523,0.13207 0.02953,0.239258 -0.03504,0.239258 -0.185976,0 -1.278633,-1.198887 -1.531758,-1.680821 -0.481875,-0.917246 -1.515351,-4.644609 -1.720898,-6.206074 -0.215039,-1.634609 -0.183398,-2.081679 0.349453,-4.928437 0.101719,-0.544004 0.197695,-1.360899 0.213164,-1.815352 l 0.02812,-0.826328 -0.703125,-0.337285 C 16.941437,36.999648 17.020539,37.022891 16.95257,37.15332 m 6.889219,0.239258 c -0.05777,0.225586 -0.106524,1.428711 -0.108164,2.673809 l -0.0032,2.263515 0.387422,0.863516 c 0.430546,0.959355 1.70789,3.222324 1.894921,3.357266 0.162891,0.117441 0.155743,0.0045 -0.120703,-1.896836 -0.132304,-0.910684 -0.505195,-2.7017 -0.828515,-3.98002 -0.323203,-1.27832 -0.602578,-2.385742 -0.620625,-2.460937 -0.01805,-0.0752 -0.07758,0.07861 -0.132305,0.341796 -0.0941,0.453086 -0.106406,0.424102 -0.231562,-0.546875 -0.119415,-0.925996 -0.142383,-0.985605 -0.237305,-0.615234 m -2.572266,0.06836 c -0.03984,0.0752 -0.01969,0.136719 0.04477,0.136719 0.06445,0 0.149765,-0.06152 0.189609,-0.136719 0.03984,-0.0752 0.01969,-0.136718 -0.04477,-0.136718 -0.06445,0 -0.149766,0.06152 -0.18961,0.136718 m -2.388515,0.957032 c -0.269414,1.47164 -0.270352,1.606855 -0.01781,2.685156 0.138399,0.591035 0.431133,1.457012 0.650625,1.924316 0.467227,0.994903 2.400234,3.980977 2.400234,3.70795 0,-0.102676 -0.237187,-1.076387 -0.526992,-2.163848 C 20.806406,42.393203 20.625,41.084668 20.625,39.074902 v -1.332597 l -0.815742,0.03021 -0.815625,0.03021 -0.112617,0.615235 m 20.964961,-0.0048 c -0.06773,0.147656 -0.33,0.340839 -0.582657,0.42916 -0.376523,0.13166 -0.561211,0.121543 -1.023281,-0.05592 -0.56168,-0.215742 -0.566016,-0.215059 -1.091484,0.17623 -0.290039,0.216153 -0.666328,0.432989 -0.836016,0.481797 -0.303047,0.08723 -0.311133,0.119766 -0.452109,1.831211 -0.113086,1.37293 -0.113086,1.914063 -3.52e-4,2.552676 0.20168,1.141328 0.71332,2.599297 0.828164,2.359765 0.04992,-0.103906 0.257227,-0.833574 0.460664,-1.62121 0.326016,-1.262325 0.372305,-1.645547 0.389766,-3.232305 0.01102,-0.990117 0.04922,-1.834356 0.08496,-1.875918 0.03574,-0.0417 0.286758,0.05223 0.557812,0.208633 0.623672,0.360117 1.161563,0.262226 1.72336,-0.313223 0.289218,-0.296269 0.407695,-0.532656 0.407695,-0.813613 0,-0.463887 -0.277383,-0.539629 -0.466523,-0.127285 m -6.444375,0.06932 c -0.330586,0.466895 -1.210313,2.796035 -1.353164,3.582988 -0.335157,1.845157 -0.158907,3.818692 0.419414,4.696836 l 0.222304,0.337285 0.0026,-0.420136 c 0.0014,-0.230918 0.234493,-0.975899 0.517969,-1.655254 0.416602,-0.998731 0.55043,-1.513203 0.698672,-2.686387 0.229336,-1.814941 0.62625,-3.051699 0.957773,-2.984434 0.701602,0.142598 1.226485,0.07506 1.540313,-0.197968 0.181992,-0.158321 0.349219,-0.396895 0.371602,-0.530196 0.0348,-0.206855 -0.01652,-0.22873 -0.351563,-0.149843 -0.948164,0.223125 -1.143047,0.232421 -1.404375,0.06726 -0.336563,-0.212734 -1.483359,-0.255254 -1.621523,-0.06016 m -6.051446,8.272578 c -0.670898,0.316231 -1.03207,1.396582 -0.959062,2.868906 0.04254,0.857637 0.135703,1.260274 0.502148,2.171368 0.2475,0.615234 0.520313,1.186855 0.606445,1.270117 0.185274,0.179511 0.18961,-0.01668 0.05004,-2.275821 -0.05121,-0.827832 -0.05414,-1.812207 -0.0066,-2.1875 0.04758,-0.375156 0.125977,-0.974394 0.174375,-1.33164 0.09059,-0.670059 0.05789,-0.71586 -0.367383,-0.51543 m 4.876406,1.306074 c 0,0.0402 0.14086,0.393887 0.313008,0.786133 0.459141,1.046582 0.495703,2.433731 0.117071,4.444863 -0.310313,1.648008 -0.247266,1.78459 0.329297,0.713809 0.798632,-1.483535 1.02539,-3.387344 0.542226,-4.551914 -0.305039,-0.735137 -1.301602,-1.801543 -1.301602,-1.392891 m -4.570312,1.19711 c 0,0.701777 0.791953,2.246152 1.777266,3.465957 0.538242,0.66623 1.142695,1.457422 1.34332,1.758203 0.846211,1.268476 1.558359,3.551406 1.574297,5.046289 0.0067,0.626035 0.02051,0.661582 0.136758,0.354101 0.07113,-0.187988 0.130664,-0.987792 0.132422,-1.777343 0.006,-2.727676 -0.489961,-3.824707 -3.176954,-7.027207 -1.39875,-1.667149 -1.787109,-2.062676 -1.787109,-1.82 M 0,69.863281 C 0,69.938477 0.05589844,70 0.12410156,70 0.19230466,70 0.21562496,69.93848 0.17578126,69.863281 0.13593746,69.788086 0.08015626,69.726562 0.0516797,69.726562 0.02320313,69.726562 0,69.788086 0,69.863281"
     stroke="none"
     fill="#000000"
     fill-rule="evenodd"
     id="path1"
     style="stroke-width:0.126577" />
</svg>
