<?xml version="1.0" encoding="UTF-8" standalone="no"?>
<svg
   width="50"
   height="60"
   viewBox="0 0 60.000057 69.999977"
   version="1.1"
   id="svg1"
   xmlns="http://www.w3.org/2000/svg"
   xmlns:svg="http://www.w3.org/2000/svg">
  <defs
     id="defs1" />
  <path
     d="m 5.5422306,0.13341626 c -0.780007,0.50207 -1.341769,2.94410904 -1.875005,8.14908504 -0.306539,2.9931677 -0.223527,8.6528627 0.148817,10.1482047 0.338084,1.357016 0.912222,2.501499 1.643781,3.276804 0.535047,0.567119 0.594513,0.696129 0.439055,0.952132 -0.187304,0.308631 -0.250544,1.728368 -0.08452,1.89914 0.05252,0.05387 0.110028,0.346667 0.127989,0.650486 0.01887,0.32043 0.17357,0.706841 0.368421,0.920151 0.184889,0.202287 0.266089,0.392931 0.180814,0.423359 -0.08543,0.03058 0.187304,0.508435 0.606135,1.062047 1.006101,1.329848 1.237779,1.826329 0.408568,0.875594 l -0.660319,-0.756985 -0.964142,1.060183 c -0.530217,0.582954 -1.226156,1.193386 -1.546279,1.356396 -0.688543,0.350393 -2.010691,1.853032 -2.767304,3.145155 -0.68914699,1.176774 -1.13212699,2.655039 -1.12986299,3.76987 l 0.0018,0.876371 0.385777,-0.694266 C 1.2998766,36.394214 2.7032246,34.614459 3.3925226,33.991762 c 0.664848,-0.600341 1.688003,-0.937072 1.883307,-0.619592 0.2273,0.369489 0.15742,0.521942 -0.350913,0.76568 -0.444489,0.212999 -1.167897,1.095735 -1.167897,1.425015 0,0.07545 0.223376,0.121714 0.496258,0.102774 0.722503,-0.04999 0.910712,0.114572 0.631944,0.552214 -0.251751,0.39526 -0.830266,0.714448 -1.294829,0.714448 -0.295069,0 -0.296125,0.01226 -0.03819,0.46155 0.257185,0.447889 0.255525,0.472107 -0.05569,0.815049 -0.176437,0.194369 -0.370986,0.561063 -0.432264,0.814893 -0.06128,0.253674 -0.514672,1.092009 -1.007609,1.862967 -1.11235599,1.739701 -1.52348899,2.564375 -1.84406499,3.698922 -0.393173,1.391171 -0.233338,1.573586 0.416416,0.475212 0.63164299,-1.067636 2.16313099,-2.619488 3.20485099,-3.247308 0.557838,-0.336265 0.668922,-0.47397 0.589684,-0.730749 -0.07637,-0.247619 -0.04467,-0.295435 0.146251,-0.22014 0.134026,0.05294 0.243753,0.03446 0.243753,-0.04114 0,-0.0756 -0.07275,-0.162388 -0.161647,-0.192817 -0.0889,-0.03058 0.08543,-0.317015 0.387287,-0.636824 0.30186,-0.319654 0.612324,-0.541037 0.689902,-0.491668 0.07758,0.04921 0.140969,-0.0085 0.140969,-0.12839 0,-0.119851 0.135837,-0.344494 0.30186,-0.498965 0.364345,-0.33906 0.403436,-0.140033 0.05117,0.26035 -0.547272,0.622076 -0.01645,0.429414 0.808835,-0.293417 0.481618,-0.421963 1.113412,-0.917822 1.403952,-1.101946 0.333405,-0.211136 0.432717,-0.335644 0.26941,-0.337197 -0.142478,-0.0014 -0.485693,0.202132 -0.762952,0.452546 -0.277107,0.250259 -0.698957,0.505485 -0.937427,0.567118 l -0.433622,0.111934 0.333707,-0.482198 c 0.374155,-0.540416 1.830179,-1.894017 2.037255,-1.894017 0.07395,0 0.04105,0.117832 -0.0729,0.261902 -0.184285,0.233026 -0.173871,0.24824 0.09479,0.137704 0.814117,-0.335334 0.870414,-0.320585 0.75948,0.198562 -0.08663,0.405661 -0.06384,0.472417 0.134177,0.394172 0.2977854,-0.117522 0.3002004,0.05931 0.01026,0.772977 -0.125423,0.308787 -0.242092,0.736493 -0.259298,0.950424 -0.01721,0.214086 -0.114405,0.389204 -0.21583,0.389204 -0.101576,0 -0.226546,0.06986 -0.277862,0.155248 -0.231678,0.385634 0.684317,0.09936 1.3657674,-0.42693 1.111751,-0.858363 1.948961,-1.213258 2.369905,-1.00445 0.334159,0.165804 0.332952,0.168598 -0.07124,0.178845 -0.428793,0.01102 -1.968884,0.654367 -2.355869,0.984267 -0.189568,0.161458 -0.156665,0.204461 0.214925,0.280998 l 0.438603,0.09035 -0.517993,0.149658 c -0.7892134,0.228059 -0.7685364,0.523494 0.03652,0.523494 0.444942,0 0.703637,0.07545 0.757972,0.220762 0.04528,0.121558 0.239375,0.25119 0.431207,0.288139 0.191832,0.0371 -0.09267,0.03431 -0.632246,-0.0062 -1.097413,-0.08244 -1.7921454,0.189402 -2.9586844,1.157058 -0.340649,0.28255 -0.705447,0.513713 -0.810797,0.513713 -0.153043,0 -0.152288,0.0489 0.0041,0.242652 0.177645,0.22014 0.208133,0.22014 0.327972,0 0.161193,-0.296212 0.418831,-0.318878 0.418831,-0.03664 0,0.141741 0.145044,0.184124 0.465468,0.135686 0.389853,-0.05884 0.457922,-0.02298 0.418831,0.220917 -0.02566,0.160216 0.0085,0.381598 0.07577,0.492134 0.06958,0.114107 0.04422,0.297765 -0.05856,0.425067 -0.144441,0.179 -0.129046,0.24467 0.07577,0.325554 0.154704,0.06101 0.672696,-0.114417 1.3031314,-0.441213 0.879319,-0.455961 1.032212,-0.496636 0.957652,-0.254761 -0.06309,0.204151 -0.0092,0.294815 0.185493,0.312047 1.230534,0.108829 1.375879,0.03881 1.091829,-0.525512 -0.164665,-0.327106 -0.146101,-0.322759 0.257034,0.05884 0.251148,0.237528 0.607192,0.409698 0.843247,0.407524 l 0.408417,-0.0039 -0.305785,-0.616642 c -0.450677,-0.908663 -0.264731,-0.861312 0.407813,0.10386 0.324651,0.465897 0.675262,0.8506 0.778951,0.854637 0.10384,0.004 0.188662,0.138635 0.188662,0.299006 0,0.160215 0.104897,0.380977 0.233338,0.490581 0.128291,0.10945 0.200738,0.285966 0.161194,0.392 -0.03954,0.106033 0.01404,0.31391 0.119235,0.46186 0.173418,0.244049 0.222773,0.215949 0.535047,-0.303508 0.337178,-0.561374 0.350158,-0.567119 0.666357,-0.295436 0.177343,0.152298 0.439659,0.417926 0.583194,0.59025 0.199831,0.240168 0.262769,0.258953 0.269561,0.08042 0.0057,-0.151367 0.144289,-0.07002 0.396493,0.23287 0.346083,0.415753 0.379439,0.428172 0.310615,0.116436 -0.09509,-0.429725 -0.04468,-0.431898 0.594514,-0.02562 0.676317,0.430035 1.665363,1.874145 1.943678,2.838231 0.292955,1.014386 0.284352,2.65861 -0.02204,4.246479 l -0.246318,1.275977 -0.349101,-0.282394 c -0.191983,-0.155403 -0.594061,-0.612606 -0.893356,-1.016094 -0.520407,-0.701252 -1.28351,-1.466155 -1.935679,-1.94028 -0.339895,-0.247154 -0.308803,-0.159129 0.223829,0.632943 0.624549,0.928689 0.250243,0.974953 -1.262681,0.156334 -1.908663,-1.032705 -2.684293,-1.26154 -4.621179,-1.363848 -1.628989,-0.08585 -1.848894,-0.06272 -2.8948404,0.305061 l -1.131976,0.397899 -0.04573,-0.600186 c -0.02521,-0.330056 0.01766,-1.077727 0.09524,-1.661456 0.07743,-0.58373 0.120895,-1.084247 0.0966,-1.112502 -0.238621,-0.275254 -1.992882,1.79916 -2.735609,3.235043 l -0.504559,0.975263 v -0.696284 c 0,-0.955392 0.691712,-2.324207 1.775995,-3.514643 0.479505,-0.526444 0.788006,-0.957255 0.685524,-0.957255 -0.312425,0 -1.689663,1.58228 -2.087213,2.397949 -0.344271,0.706376 -0.374005,0.731215 -0.370382,0.310495 0.0021,-0.251501 0.136139,-1.051179 0.297936,-1.77696 0.161797,-0.725782 0.295823,-1.579176 0.297936,-1.896346 0.0029,-0.42988 0.08709,-0.622386 0.330386,-0.756365 l 0.326613,-0.179776 -0.351969,-0.27308 -0.351969,-0.27308 0.322236,-0.56184 0.322235,-0.561685 h -0.311821 c -0.171306,0 -0.552103,0.117367 -0.845964,0.260816 -0.92822,0.453011 -1.875458,3.034153 -1.830179,4.986387 0.01132,0.486856 0.04935,0.732923 0.08452,0.547092 0.03517,-0.185987 0.156364,-0.416995 0.269411,-0.513403 0.167834,-0.143293 0.222772,-0.01071 0.300351,0.726091 0.195303,1.855671 0.427283,3.111001 0.797816,4.316962 l 0.381703,1.241978 0.191077,-0.948716 c 0.173117,-0.85976 0.771857,-2.342371 0.89245,-2.2101 0.02702,0.02965 0.126027,0.568826 0.220056,1.198198 0.09403,0.629373 0.34397,1.520337 0.555423,1.980179 0.384721,0.836628 1.479417,2.386462 1.68589,2.387083 0.06037,1.55e-4 0.08875,-0.793935 0.06324,-1.764852 l -0.04664,-1.765006 0.773064,0.15711 0.773065,0.157266 -0.122858,0.63729 c -0.06746,0.350548 -0.122102,1.300972 -0.121498,2.112139 0.0011,1.287932 0.05479,1.592837 0.4235104,2.406333 0.538518,1.188108 1.167293,2.295486 1.253173,2.206996 0.03668,-0.03757 -0.03728,-0.68107 -0.164212,-1.429673 -0.245589,-1.448612 -0.318941,-5.357118 -0.100696,-5.357118 0.07169,0 0.971538,0.176206 1.999825,0.391534 3.945163,0.826226 6.202625,1.589422 7.076812,2.392671 0.315746,0.290157 0.328122,0.329279 0.07547,0.239857 -0.166023,-0.05868 -1.354598,-0.143138 -2.641277,-0.187539 -2.324626,-0.08042 -4.118129,0.08306 -4.891797,0.44556 -0.494749,0.231939 -0.847171,1.025098 -0.828456,1.86452 l 0.01524,0.67517 0.136441,-0.620989 c 0.205416,-0.935365 0.432113,-1.287465 0.949049,-1.473917 0.62802,-0.226662 4.931491,-0.48639 5.972608,-0.360485 l 0.82921,0.100135 -1.372106,0.35505 c -2.53457,0.655765 -3.88464,1.539432 -4.292001,2.809045 -0.289635,0.902452 -0.118178,2.353704 0.381552,3.230696 0.474071,0.83197 0.647037,0.749534 0.393927,-0.187849 -0.26624,-0.986131 -0.198322,-2.355567 0.1541,-3.10417 0.439207,-0.933502 1.180576,-1.504501 2.56385,-1.974745 1.643479,-0.55858 1.848442,-0.504554 0.779706,0.205858 -1.014855,0.674859 -1.482134,1.360742 -1.987449,2.918183 -0.361477,1.11452 -0.401927,2.033118 -0.107613,2.447163 0.188814,0.265473 0.226999,0.223401 0.464412,-0.511851 0.142327,-0.440591 0.321029,-0.840819 0.397248,-0.889256 0.07622,-0.04844 0.212661,-0.230542 0.303219,-0.404574 0.145497,-0.279446 0.128442,-0.304751 -0.145195,-0.215328 -0.285258,0.09299 -0.297785,0.06505 -0.156514,-0.351791 0.212057,-0.625491 0.921881,-1.33435 1.724829,-1.722624 1.115978,-0.539639 1.217101,-0.384702 0.307143,0.47071 -1.258003,1.182829 -1.508547,1.826795 -0.506521,1.302835 1.067981,-0.558579 3.346876,-1.329227 3.491316,-1.180655 0.09312,0.09579 -0.265034,0.603756 -0.997196,1.414302 -1.218459,1.349099 -1.66491,2.10888 -1.58869,2.703321 0.04166,0.325088 0.189719,0.207721 1.254682,-0.994979 0.664092,-0.75 1.225854,-1.347547 1.248494,-1.327986 0.02264,0.01972 -0.05962,0.479559 -0.182625,1.021993 -0.122858,0.542279 -0.194398,1.015938 -0.15893,1.052422 0.03562,0.03664 0.185644,-0.155558 0.333556,-0.42693 0.694881,-1.275667 1.409535,-2.342993 1.568918,-2.342993 0.122706,0 0.148213,0.239392 0.08437,0.79378 -0.166928,1.449854 0.296125,2.03436 2.030766,2.564375 0.404492,0.123421 0.735331,0.294969 0.735331,0.380821 0,0.294038 -0.717824,0.894845 -1.679701,1.405764 -0.773366,0.410785 -0.894412,0.521631 -0.618512,0.566342 0.496711,0.08042 1.726339,-0.377716 2.43888,-0.908662 l 0.615342,-0.458445 0.64085,0.409697 c 0.352422,0.225264 0.96384,0.764749 1.358824,1.198975 l 0.717974,0.789277 0.942257,-0.941109 c 0.518144,-0.517594 1.145862,-1.083626 1.394897,-1.257813 l 0.45279,-0.316549 0.596476,0.53079 c 0.617908,0.549731 1.941264,1.048385 2.534872,0.955237 0.263222,-0.0413 0.125423,-0.154471 -0.609607,-0.500673 -0.967764,-0.455961 -1.691776,-1.146812 -1.691474,-1.614261 3.02e-4,-0.193594 0.158326,-0.270907 0.620776,-0.303509 1.354296,-0.09579 2.006163,-0.81334 2.045103,-2.251551 0.01358,-0.501759 0.0572,-0.945611 0.0969,-0.986441 0.03969,-0.04099 0.388947,0.448509 0.776234,1.087352 0.387136,0.638998 0.807476,1.250206 0.933956,1.358258 0.202095,0.17248 0.217037,0.121869 0.122253,-0.415131 -0.05932,-0.336421 -0.207982,-0.821258 -0.330386,-1.077416 -0.185644,-0.388429 -0.07999,-0.324001 0.636925,0.388118 0.472713,0.469623 1.074321,1.168236 1.336939,1.552473 0.413247,0.604688 0.483882,0.653281 0.524181,0.36126 0.142931,-1.031463 -0.974858,-2.77225 -2.335191,-3.637133 -0.565687,-0.359553 -0.665602,-0.760557 -0.18972,-0.760557 0.391815,0 2.813942,0.870006 3.265374,1.172894 0.41868,0.280997 0.646736,0.285965 0.646736,0.01397 0,-0.229611 -1.33211,-1.580728 -2.004504,-2.033274 -0.659866,-0.443852 -0.380344,-0.448664 0.666206,-0.01118 1.364258,0.570224 2.041028,1.075864 2.39496,1.789225 0.327513,0.660422 0.306233,0.717398 -0.169797,0.455341 -0.263373,-0.145001 -0.252053,-0.08989 0.09146,0.444007 0.21568,0.335179 0.42819,0.881184 0.47226,1.213413 0.0753,0.56836 0.066,0.586214 -0.15712,0.302577 -0.228808,-0.290934 -0.236958,-0.286587 -0.236958,0.129165 0,0.236753 -0.175683,0.954306 -0.390608,1.59439 -0.214773,0.640085 -0.36027,1.194938 -0.323292,1.232974 0.03698,0.03804 0.277712,-0.152298 0.535047,-0.423049 0.638281,-0.6716 1.300871,-2.796003 1.202011,-3.854169 -0.0949,-1.015628 -0.68885,-2.21926 -1.63186,-3.307078 -0.425623,-0.490892 -0.711635,-0.892672 -0.635717,-0.892672 0.277711,0 2.052197,0.649555 2.382587,0.872335 0.52267,0.352256 1.09364,1.300662 1.26721,2.104843 0.14942,0.692092 0.12527,0.961757 -0.24013,2.673668 -0.14701,0.689298 0.21266,0.36064 0.641,-0.585592 0.4143,-0.915028 0.48554,-2.290985 0.15998,-3.090819 -0.51527,-1.265886 -1.96767,-2.031721 -4.769994,-2.515316 -0.784686,-0.135376 -1.452099,-0.272459 -1.483493,-0.304751 -0.06082,-0.06241 1.054398,-0.177447 3.136329,-0.323224 1.356258,-0.09486 3.914368,0.137859 4.389648,0.399606 0.36254,0.199648 0.57792,0.620524 0.73458,1.436348 l 0.12527,0.652504 0.0164,-0.752794 c 0.0216,-0.980697 -0.32887,-1.724331 -0.93727,-1.988562 -0.55588,-0.241254 -4.604126,-0.290002 -6.4417,-0.07747 -1.125487,0.130253 -1.130316,0.129321 -0.830116,-0.1731 0.698052,-0.703581 4.264376,-1.885479 8.788356,-2.912905 0.2667,-0.06055 0.35695,0.0088 0.43695,0.336576 0.16572,0.679517 -0.0697,4.078501 -0.37778,5.451819 -0.15803,0.704357 -0.23938,1.28079 -0.18082,1.28079 0.16618,0 1.20714,-2.002535 1.49165,-2.869125 0.18745,-0.570844 0.25567,-1.30594 0.25507,-2.74943 l -7.6e-4,-1.970088 0.59542,-0.155402 c 0.32737,-0.08554 0.65036,-0.120472 0.71783,-0.07762 0.0673,0.04285 0.0841,0.894535 0.0373,1.892775 l -0.0851,1.814841 0.61308,-0.698613 c 0.8437,-0.961291 1.6056,-2.636254 1.82233,-4.006156 0.16089,-1.016559 0.20134,-1.10505 0.39,-0.85386 0.33326,0.443852 0.8505,2.324362 0.74741,2.717914 -0.078,0.298075 -0.0543,0.286121 0.14474,-0.07297 0.36918,-0.666166 0.9898,-3.453476 1.08821,-4.887029 0.0487,-0.710567 0.14746,-1.329383 0.2196,-1.375181 0.072,-0.0458 0.2347,0.148727 0.36163,0.432209 0.22338,0.49912 0.22775,0.475988 0.14006,-0.726403 -0.094,-1.288863 -0.8206,-3.812562 -1.23747,-4.298176 -0.48268,-0.56215 -1.73057,-0.657472 -1.30011,-0.09936 0.20828,0.27013 0.16104,1.098685 -0.0673,1.17693 -0.13297,0.04564 -0.12603,0.147484 0.0269,0.398985 0.20783,0.341389 0.84762,5.090714 0.84038,6.23706 l -0.004,0.620989 -0.48992,-0.931484 c -0.91946,-1.748705 -2.06231,-3.182569 -2.53653,-3.182569 -0.0863,0 -0.10263,0.581711 -0.0413,1.477644 l 0.10097,1.477643 -0.51301,-0.07716 c -2.62226,-0.395104 -5.22098,-0.519302 -5.50126,-0.263144 -0.0789,0.07203 -0.55089,0.296678 -1.04896,0.49912 -0.49807,0.202287 -1.3469,0.632943 -1.88618,0.956789 -0.539419,0.324001 -1.000511,0.527686 -1.024811,0.452701 -0.0243,-0.07498 0.05237,-0.424756 0.170551,-0.777478 0.118179,-0.352567 0.167382,-0.641171 0.109576,-0.641171 -0.12482,0 -2.274367,1.844648 -2.274367,1.951768 0,0.04052 0.169797,-0.04083 0.377326,-0.180707 0.207529,-0.139878 0.377325,-0.190178 0.377325,-0.111778 0,0.0784 -0.403134,0.435002 -0.895921,0.792382 -1.032212,0.748913 -0.930938,0.849668 -1.294679,-1.287311 -0.294314,-1.728678 -0.189719,-2.856395 0.376872,-4.065771 0.565838,-1.207358 1.10662,-1.916528 1.782033,-2.337248 0.708013,-0.440747 0.866188,-0.442299 0.568553,-0.0051 -0.129196,0.189712 -0.233941,0.416684 -0.232734,0.504554 0.0015,0.09843 0.04468,0.09377 0.113198,-0.01226 0.06098,-0.09439 0.515728,-0.534361 1.010477,-0.977747 0.832981,-0.746274 0.908151,-0.782447 1.013951,-0.488098 0.18006,0.500673 0.63632,0.394794 0.97063,-0.225419 0.0921,-0.170772 0.2279,-0.311581 0.30186,-0.312823 0.23319,-0.0042 0.51195,-0.241565 0.50954,-0.433761 -0.002,-0.111157 -0.0608,-0.09191 -0.14867,0.04797 -0.12723,0.202598 -0.14655,0.200114 -0.14866,-0.01987 -0.003,-0.310184 0.35725,-0.640861 0.52629,-0.483285 0.0679,0.06319 0.0806,0.03757 0.0281,-0.05713 -0.0797,-0.143759 0.65897,-0.992185 0.86378,-0.992185 0.0355,0 -0.0424,0.280221 -0.17312,0.622696 -0.267,0.698924 -0.17402,0.943128 0.22338,0.586525 0.1458,-0.130874 0.42426,-0.322604 0.61896,-0.426309 0.31605,-0.168444 0.34442,-0.157887 0.26519,0.09858 -0.0587,0.190178 0.0173,0.355361 0.22503,0.488718 0.26639,0.171238 0.4051,0.154937 0.92068,-0.107276 0.66892,-0.340457 0.86694,-0.309718 1.60016,0.248085 0.40721,0.309874 0.53821,0.343407 0.72371,0.185055 0.12467,-0.106344 0.19168,-0.286897 0.14897,-0.401314 -0.0432,-0.115659 0.0208,-0.208031 0.14398,-0.208031 0.12195,0 0.22172,-0.06986 0.22172,-0.155248 0,-0.08539 -0.0679,-0.155247 -0.15093,-0.155247 -0.083,0 -0.15093,-0.104792 -0.15093,-0.232871 0,-0.172324 0.17553,-0.232871 0.67451,-0.232871 0.56327,0 0.65866,-0.04192 0.57927,-0.254916 -0.0814,-0.218278 -0.016,-0.239547 0.45762,-0.148106 0.64598,0.124664 0.75676,-0.128855 0.17523,-0.401469 -0.42744,-0.200269 -0.45596,-0.288295 -0.18867,-0.584506 0.15093,-0.167202 0.15093,-0.187073 0,-0.09951 -0.10882,0.06319 -0.19002,0.0236 -0.19198,-0.09361 -0.002,-0.111778 -0.13614,-0.377872 -0.29854,-0.591337 -0.22036,-0.289691 -0.29597,-0.324156 -0.29854,-0.135376 -0.002,0.138947 0.0986,0.339526 0.22308,0.445871 0.22775,0.194524 0.31378,0.620989 0.12512,0.620989 -0.0557,0 -0.22836,-0.118299 -0.38367,-0.262834 -0.187,-0.174032 -0.49022,-0.250258 -0.89773,-0.225574 -0.40419,0.02453 -0.71073,-0.05139 -0.8932,-0.221383 -0.44872,-0.417615 -2.1011,-0.07452 -2.1011,0.4364 0,0.08492 0.14761,0.114573 0.32812,0.06614 l 0.32812,-0.08834 -0.32646,0.3358 c -0.38895,0.400072 -0.72341,0.191264 -0.55708,-0.347599 0.13508,-0.437952 1.40878,-1.274425 1.76392,-1.15861 0.14761,0.04828 0.38653,0.01972 0.53082,-0.06334 0.22654,-0.130408 0.18549,-0.188781 -0.2996,-0.426775 -0.39,-0.191265 -0.50411,-0.314531 -0.37249,-0.402867 0.43256,-0.290623 -1.21756,-1.157368 -1.93493,-1.016248 -0.36932,0.07265 -0.49716,-0.09377 -0.21145,-0.275409 0.29959,-0.190489 1.06194,0.112088 2.18803,0.868143 1.14541,0.76925 1.6382,0.975574 1.28563,0.538708 -0.10007,-0.124043 -0.37205,-0.749379 -0.60418,-1.389619 l -0.4223,-1.164044 0.42517,0.0874 c 0.37506,0.07716 0.41521,0.0489 0.34171,-0.240478 -0.0584,-0.230076 -0.0131,-0.327882 0.15168,-0.327882 0.12935,0 0.27711,0.06986 0.32842,0.155247 0.14701,0.24467 0.37748,0.181019 0.28104,-0.07762 -0.1781,-0.47723 0.22654,-0.20384 1.1288,0.76273 0.51135,0.547712 0.92958,1.041398 0.92958,1.097287 0,0.05589 -0.15289,0.05434 -0.33959,-0.0034 -0.25402,-0.07856 -0.15093,0.0947 0.40932,0.688056 0.74469,0.788656 1.29045,1.111105 0.75118,0.443852 -0.15516,-0.192196 0.13991,0.06769 0.65579,0.577365 0.94196,0.930241 1.14556,1.241202 0.69685,1.06422 -0.55573,-0.219365 0.187,0.594597 0.94542,1.03612 0.98346,0.572552 2.24358,1.83285 2.99053,2.99115 0.31741,0.492289 0.59814,0.873576 0.62365,0.847184 0.0256,-0.02624 -0.0552,-0.498965 -0.17976,-1.050248 -0.26609,-1.179569 -0.89909,-2.509106 -2.07756,-4.364001 -0.48297,-0.760246 -0.85351,-1.518474 -0.85351,-1.746532 0,-0.241099 -0.0845,-0.403177 -0.21024,-0.403177 -0.48222,0 -0.52901,-1.006779 -0.0539,-1.160163 0.29778,-0.09625 0.26548,-0.127769 -0.26096,-0.256003 -0.55724,-0.135686 -1.43701,-0.807131 -1.43701,-1.096822 0,-0.0694 0.26157,-0.126216 0.58124,-0.126216 0.54048,0 0.57911,-0.02981 0.5518,-0.42693 -0.016,-0.234889 -0.0399,-0.478938 -0.0528,-0.542589 -0.0131,-0.06365 -0.32933,-0.263455 -0.70288,-0.444008 -0.44147,-0.213465 -0.67919,-0.427861 -0.67919,-0.612605 0,-0.408146 0.17704,-0.467605 0.84431,-0.283327 0.79178,0.218588 2.73153,2.323586 3.93731,4.272561 0.14504,0.234423 0.16361,0.129321 0.0998,-0.565877 -0.19486,-2.126266 -1.07327,-4.07788 -2.59751,-5.771317 -0.54712,-0.607794 -1.21197,-1.198509 -1.47716,-1.312461 -0.26533,-0.114107 -0.84219,-0.62782 -1.28185,-1.141533 -0.43965,-0.513869 -0.89878,-0.934278 -1.02028,-0.934278 -0.1215,0 -0.37808,0.151831 -0.57022,0.337507 -0.55587,0.537311 -0.40675,0.212999 0.32994,-0.717398 0.37355,-0.471796 0.67918,-0.953994 0.67918,-1.071827 0,-0.117833 0.14459,-0.403177 0.32118,-0.63403 0.44887,-0.58699 0.57882,-2.553197 0.20738,-3.136305 -0.25085,-0.393708 -0.24572,-0.411406 0.27771,-0.966104 0.81472,-0.863486 1.54764,-2.236337 1.8572,-3.479247 0.39483,-1.584609 0.3977,-8.9450377 0.005,-12.1448397 -0.51467,-4.191366 -0.7871,-5.31007804 -1.41708,-5.81975504 -0.5364,-0.434072 -1.30313,-0.39821 -3.36408,0.157265 -4.59628,1.23871804 -6.49317,2.46719004 -10.750452,6.96222004 -3.473658,3.6678717 -4.378635,4.7937257 -4.788561,5.9580797 -0.263524,0.748603 -1.211064,0.462482 -1.493152,-0.450838 -0.101425,-0.328348 -0.395135,-0.767542 -0.652622,-0.975884 L 33.298413,11.568181 33.01723,11.92525 c -0.175079,0.222314 -0.281183,0.604532 -0.281183,1.012678 0,0.773131 -0.123461,0.960049 -0.388796,0.588387 -0.175834,-0.246067 -0.206321,-0.231629 -0.354535,0.167822 -0.0892,0.240323 -0.16225,0.607172 -0.16225,0.815048 0,0.274478 -0.08271,0.378027 -0.30186,0.378027 -0.167683,0 -0.30186,-0.103549 -0.30186,-0.23287 0,-0.128079 -0.06792,-0.232871 -0.15093,-0.232871 -0.08301,0 -0.150931,-0.166115 -0.150931,-0.369178 0,-0.480801 -0.377476,-0.832747 -0.510596,-0.475989 -0.05117,0.137239 -0.09856,0.401004 -0.105048,0.586214 -0.0065,0.185055 -0.04618,0.249327 -0.08799,0.142517 -0.149119,-0.37989 -0.350762,-0.184744 -0.446602,0.432209 -0.05358,0.344338 -0.114858,0.60624 -0.13629,0.582177 -0.02128,-0.02422 -0.08543,-0.462792 -0.142478,-0.974643 -0.0569,-0.511695 -0.13146,-0.959117 -0.16542,-0.994048 -0.110631,-0.113796 -0.518445,1.048851 -0.523576,1.492703 l -0.0051,0.431898 -0.296729,-0.366539 c -0.163306,-0.201511 -0.297936,-0.550818 -0.299143,-0.776237 -0.0035,-0.595062 -0.234697,-0.926671 -0.474374,-0.680138 -0.311972,0.320896 -0.387437,0.226506 -0.4626,-0.578296 -0.08996,-0.963309 -0.352573,-1.351428 -0.704844,-1.041709 -0.133423,0.117211 -0.361025,0.256313 -0.505918,0.309252 -0.152289,0.05542 -0.340498,0.392776 -0.446301,0.799834 -0.116367,0.447268 -0.267901,0.704512 -0.415812,0.70591 -0.12814,0.0011 -0.378986,0.04238 -0.557536,0.0916 -0.268807,0.07421 -0.34231,0.0067 -0.427887,-0.394173 C 24.0517,12.602597 23.302936,11.56182 20.967594,8.8378513 17.690448,5.0153523 15.429514,3.0538033 12.889511,1.8295223 10.39705,0.62806426 6.2579416,-0.32748274 5.5422306,0.13344626 M 13.489911,5.5757953 c -0.0566,0.09424 0.0056,0.294814 0.138252,0.445559 0.325103,0.369334 0.303671,0.482509 -0.09086,0.482509 -0.258242,0 -0.291748,0.04145 -0.15093,0.186297 0.09961,0.102463 0.181116,0.273235 0.181116,0.379424 0,0.136152 -0.203605,0.100445 -0.691713,-0.121714 -0.648698,-0.295125 -1.173633,-0.273235 -0.651867,0.02717 0.464261,0.26718 0.965047,0.745342 0.876602,0.836782 -0.04935,0.05092 -0.378986,-0.01242 -0.732464,-0.140654 -0.380646,-0.13817 -0.734275,-0.180707 -0.866943,-0.104326 -0.166174,0.09563 -0.02007,0.219365 0.565083,0.478162 0.911014,0.403177 2.557813,1.521889 2.557813,1.737527 0,0.3295897 -0.5355,0.3275717 -1.095602,-0.004 -0.324953,-0.192351 -0.633454,-0.305837 -0.685525,-0.252277 -0.192888,0.198406 0.222773,0.5720857 1.177406,1.0586307 0.716013,0.364832 0.994026,0.594287 1.029344,0.848737 0.07546,0.54585 -0.435886,0.437642 -1.199744,-0.253984 -0.366156,-0.331608 -0.800231,-0.629373 -0.964594,-0.661975 -0.164363,-0.0326 -0.298842,-0.163009 -0.298842,-0.290002 0,-0.1287 -0.166778,-0.2536737 -0.377325,-0.2827047 -0.30503,-0.04192 -0.341102,-0.01366 -0.188663,0.1474847 0.10384,0.10976 0.188663,0.298851 0.188663,0.420254 0,0.175275 -0.04528,0.182261 -0.218547,0.03431 -0.137196,-0.117056 -0.306539,-0.135686 -0.455356,-0.05015 -0.198775,0.114573 -0.16376,0.192041 0.218546,0.482664 0.473468,0.360174 0.623342,0.74705 0.228961,0.591337 -0.375967,-0.148261 -0.255072,0.158973 0.226396,0.575812 0.568101,0.491513 0.56644,0.567118 -0.01253,0.567118 -0.598136,0 -0.518294,0.298541 0.174476,0.65235 0.42517,0.217191 0.458375,0.265472 0.186549,0.271682 -0.525237,0.0118 -0.545763,0.273391 -0.05086,0.649865 0.592552,0.450528 0.577006,0.599565 -0.06233,0.599565 -0.285711,0 -0.561309,0.06986 -0.612626,0.155248 -0.05132,0.08539 -0.01841,0.155247 0.07305,0.155247 0.335216,0 1.716529,1.495963 2.039972,2.209169 0.183229,0.403953 0.377024,0.689143 0.430604,0.633875 0.205567,-0.211292 0.08543,-1.559925 -0.187908,-2.111674 -0.157123,-0.31686 -0.229721,-0.576123 -0.161198,-0.576123 0.168739,0 0.666809,0.748913 0.877507,1.319602 0.155609,0.421497 0.167231,0.380356 0.121801,-0.43314 -0.04467,-0.802007 -0.105651,-0.947474 -0.565535,-1.349875 -0.283447,-0.24793 -0.702127,-0.533119 -0.930334,-0.633564 -0.228206,-0.100445 -0.415058,-0.249948 -0.415058,-0.332074 0,-0.172324 -0.05086,-0.192351 1.143296,0.448354 0.906487,0.48639 1.46689,1.084868 1.863082,1.989805 l 0.203907,0.465742 0.199227,-0.465742 c 0.189418,-0.442921 0.199379,-0.412337 0.203303,0.620989 l 0.0041,1.086731 -0.727634,0.489184 c -1.11809,0.751707 -1.651025,2.226246 -0.717673,1.985302 0.279372,-0.07219 0.380495,-0.0267 0.422907,0.190178 0.04135,0.212068 0.131762,0.126061 0.353025,-0.335955 0.163609,-0.341544 0.423963,-0.645052 0.578666,-0.674549 0.27258,-0.05201 0.272882,-0.03928 0.0078,0.422117 -0.3245,0.565255 -0.206775,0.757917 0.314085,0.513869 0.417926,-0.195922 0.452187,-0.150901 0.221717,0.292175 -0.139912,0.268733 -0.104142,0.299938 0.339593,0.29792 0.582439,-0.0028 0.907392,-0.179311 0.843397,-0.45829 -0.0252,-0.10945 0.03924,-0.231164 0.142931,-0.270286 0.10384,-0.03912 0.188663,0.03726 0.188663,0.169685 0,0.154316 0.08452,0.207566 0.234998,0.148261 0.129347,-0.05108 0.199832,-0.187538 0.156666,-0.303353 -0.04317,-0.115659 0.05479,-0.283792 0.217641,-0.373525 0.450073,-0.247774 0.361628,-0.433916 -0.38291,-0.806044 -0.38291,-0.19142 -0.679186,-0.447422 -0.679186,-0.586834 0,-0.142983 -0.201491,-0.31034 -0.476637,-0.396036 l -0.476486,-0.148572 -0.02068,-1.929568 c -0.01917,-1.797764 -0.006,-1.893086 0.192285,-1.397226 0.151383,0.378648 0.187153,0.868609 0.124065,1.696698 l -0.08875,1.164354 0.297634,-0.366539 c 0.163759,-0.201511 0.297634,-0.572396 0.297634,-0.824207 0,-0.290779 0.06007,-0.419479 0.164514,-0.353033 0.09675,0.06148 0.129951,0.336576 0.0806,0.668961 l -0.08392,0.564324 0.234696,-0.537311 c 0.129045,-0.295591 0.288427,-1.084713 0.353931,-1.753673 0.179909,-1.8358 0.353026,-1.663009 0.273335,0.272769 l -0.07018,1.70772 0.28073,-0.620989 0.28073,-0.620989 -0.0809,0.538553 c -0.05796,0.386255 -0.03471,0.491047 0.08256,0.37042 0.0898,-0.09237 0.218849,-0.509367 0.286919,-0.926516 0.06792,-0.417305 0.139006,-0.618971 0.157873,-0.448199 0.01887,0.170772 0.09569,-0.0039 0.170853,-0.388118 0.374608,-1.916528 -0.701222,-4.769197 -2.594037,-6.8782307 -0.598136,-0.666477 -1.172576,-1.178327 -1.276416,-1.137342 -0.10384,0.04098 -0.383363,-0.136152 -0.621078,-0.393707 -0.677676,-0.733854 -2.051442,-1.380614 -2.245689,-1.057389 m 32.23218,0.31391 c -0.45294,0.256779 -0.87947,0.55237 -0.94754,0.657006 -0.0682,0.104482 -0.18881,0.294815 -0.2679,0.422894 -0.12783,0.206945 -0.16043,0.206945 -0.2922,0 -0.12889,-0.202598 -0.18323,-0.195146 -0.41777,0.05744 -0.19651,0.211602 -0.2184,0.309719 -0.0809,0.362192 0.10384,0.03959 0.18806,0.15354 0.1873,0.253053 -0.002,0.220607 -1.017865,1.345529 -1.215583,1.345529 -0.286013,0 -0.129045,-0.481888 0.311363,-0.955858 0.70726,-0.761333 0.53097,-0.740219 -0.229257,0.02732 -0.715409,0.722055 -1.772373,2.2583817 -2.317985,3.3688657 -0.685978,1.396294 -1.032513,4.142618 -0.54682,4.334349 0.124517,0.04921 0.235602,0.274011 0.246922,0.499741 l 0.02053,0.410318 0.07154,-0.388118 c 0.06837,-0.370575 0.07939,-0.36421 0.243601,0.143604 0.313784,0.969674 0.476487,0.701873 0.424718,-0.699234 -0.06701,-1.817169 0.160438,-2.233077 0.271523,-0.496481 0.04769,0.744877 0.167532,1.43759 0.266241,1.539122 0.138855,0.142827 0.16391,0.04704 0.110179,-0.422739 -0.06641,-0.58078 -0.06007,-0.574415 0.143987,0.142983 0.307596,1.080987 0.389249,1.062978 0.389249,-0.08601 0,-0.588077 0.09826,-1.237476 0.233036,-1.539432 l 0.233187,-0.522407 -0.09433,0.610898 c -0.143837,0.932881 -0.104595,2.370316 0.07411,2.713723 0.130403,0.250724 0.08875,0.380511 -0.225339,0.70358 -0.211906,0.217968 -0.450074,0.396347 -0.529312,0.396347 -0.07924,0 -0.144138,0.07747 -0.144138,0.172014 0,0.107741 0.155307,0.135841 0.415057,0.07529 0.391211,-0.09129 0.398456,-0.08352 0.12648,0.135065 -0.158628,0.127613 -0.430302,0.199182 -0.603721,0.159128 -0.18987,-0.04378 -0.482222,0.06955 -0.735633,0.285345 -0.402078,0.342475 -0.410681,0.377561 -0.195304,0.804491 0.165721,0.328503 0.416115,0.50238 0.948747,0.658249 1.260569,0.369333 1.331802,0.352256 1.294075,-0.310184 -0.03637,-0.636359 0.05147,-0.699234 0.494897,-0.354275 0.16104,0.12544 0.34382,0.230232 0.40616,0.232871 0.22398,0.0098 0.107,-0.418391 -0.18957,-0.694576 -0.16663,-0.154937 -0.26715,-0.318412 -0.22368,-0.363279 0.0436,-0.04471 0.34487,0.185521 0.66952,0.51154 0.6238,0.626578 1.06436,0.664148 1.06436,0.09082 0,-0.377251 -0.94255,-1.489132 -1.52499,-1.799006 -0.47317,-0.251656 -0.57671,-0.654367 -0.39574,-1.539587 0.15229,-0.744877 0.22941,-0.842062 0.4312,-0.543366 0.11139,0.165028 0.17463,0.176672 0.22821,0.04207 0.17523,-0.440902 0.70454,-0.976816 1.34796,-1.364779 0.38049,-0.2293 0.7148,-0.393086 0.74318,-0.364055 0.0282,0.02919 -0.21478,0.364676 -0.54018,0.745498 -0.50305,0.589163 -0.59135,0.797971 -0.58999,1.396915 l 0.002,0.704202 0.37899,-0.837559 c 0.42819,-0.946077 0.59466,-0.992807 0.35499,-0.09982 -0.20572,0.7663 -0.0566,1.761591 0.33793,2.256985 l 0.3091,0.388118 -0.10535,-0.388118 c -0.0581,-0.213465 -0.12693,-0.667564 -0.15289,-1.009108 -0.0261,-0.341544 -0.0152,-0.446336 0.0242,-0.232871 0.10429,0.565411 0.37899,1.241979 0.50441,1.241979 0.0596,0 0.18187,-0.166115 0.27182,-0.369023 0.09,-0.202908 0.37944,-0.622076 0.64357,-0.931484 0.52131,-0.610743 0.49611,-0.70327 -0.0847,-0.311736 -0.46441,0.312978 -0.47996,0.126216 -0.0324,-0.388119 l 0.33959,-0.390291 -0.41506,0.267491 c -0.57444,0.370109 -0.51935,0.114572 0.11094,-0.513714 0.61443,-0.612605 0.59466,-0.745652 -0.0592,-0.397898 -0.71073,0.378027 -0.55678,0.152297 0.21236,-0.311271 0.78152,-0.471176 0.86151,-0.690385 0.2516,-0.690385 -0.66017,0 -0.67345,-0.158352 -0.0611,-0.728731 l 0.56418,-0.525512 -0.64145,0.09734 c -0.82891,0.125906 -0.81502,-0.01956 0.0377,-0.39557 0.90996,-0.401159 0.89577,-0.686503 -0.0288,-0.579227 l -0.70816,0.08197 0.36857,-0.292175 c 0.20255,-0.160681 0.48735,-0.333006 0.63255,-0.38284 0.36766,-0.126216 0.33295,-0.434848 -0.0377,-0.335179 -0.16603,0.04456 -0.30186,0.01785 -0.30186,-0.05962 0,-0.07731 0.16979,-0.140654 0.37732,-0.140654 0.20753,0 0.37733,-0.07731 0.37733,-0.171859 0,-0.09765 -0.11033,-0.128389 -0.25568,-0.07095 -0.22413,0.08849 -0.22111,0.06179 0.0234,-0.216259 0.15349,-0.174498 0.37038,-0.31717 0.48207,-0.31717 0.11168,0 0.203,-0.06567 0.203,-0.146088 0,-0.290312 -0.31484,-0.3358 -0.75662,-0.109139 -0.56629,0.290623 -0.59904,0.03726 -0.0358,-0.276961 0.22927,-0.127924 0.31288,-0.2344227 0.18701,-0.2378387 -0.12558,-0.0034 -0.56705,0.2348887 -0.98105,0.5293927 -1.35988,0.967346 -2.26139,1.479507 -2.31557,1.315411 -0.091,-0.275719 0.47302,-0.79378 1.26072,-1.158145 0.74665,-0.345115 1.56575,-1.0746217 1.39912,-1.2460147 -0.0474,-0.04875 -0.4303,0.09066 -0.85079,0.309874 -0.86679,0.4517687 -1.22752,0.5017587 -1.22752,0.170461 0,-0.250258 1.25438,-1.160784 2.51616,-1.826329 0.44238,-0.233336 0.80431,-0.495239 0.80431,-0.582177 0,-0.206479 -0.0377,-0.201977 -0.74635,0.08973 -0.90755,0.373525 -1.09379,0.166425 -0.24919,-0.276961 0.8594,-0.451149 0.75118,-0.706065 -0.11561,-0.272304 -0.49158,0.245912 -0.61308,0.258021 -0.78755,0.07856 -0.17448,-0.179621 -0.14671,-0.252432 0.18006,-0.472728 0.21251,-0.143293 0.34819,-0.299782 0.30155,-0.347754 -0.0466,-0.04813 -0.19002,0.0023 -0.31861,0.112089 -0.30986,0.264541 -0.44253,0.105102 -0.23862,-0.287053 0.40344,-0.77546 0.11199,-0.823742 -1.0378,-0.171858 M 6.9255936,7.3975923 c -0.09131,0.319499 -0.204661,1.873524 -0.251902,3.4531647 -0.09524,3.183346 0.102783,4.840766 0.787101,6.590558 0.623945,1.595321 0.0738,1.291347 -0.757972,-0.418857 l -0.530368,-1.090302 v 0.783533 c 0,1.259521 0.395135,3.03198 0.948445,4.254707 0.698052,1.542537 1.579635,2.408662 1.813577,1.781463 0.04271,-0.114417 0.016,-0.306614 -0.05932,-0.42693 -0.07531,-0.120317 -0.207982,-0.482819 -0.294918,-0.805578 -0.08678,-0.32276 -0.222621,-0.545695 -0.30186,-0.495395 -0.07909,0.0503 -0.143836,0.02158 -0.143836,-0.06381 0,-0.430811 0.290088,-0.24467 0.522369,0.335179 0.144591,0.360639 0.357704,0.885065 0.473921,1.165441 0.271372,0.655144 0.271523,0.654523 -0.124065,0.654523 -0.307143,0 -0.290088,0.04502 0.203605,0.538242 0.513917,0.513403 1.1881224,1.96838 1.1881224,2.563909 0,0.381908 0.385777,0.505796 0.630435,0.202598 0.109877,-0.136152 0.165721,-0.28845 0.124216,-0.338595 -0.04151,-0.04999 0.12829,-0.12901 0.377325,-0.175584 0.418529,-0.07809 0.450074,-0.129632 0.417322,-0.68107 -0.01947,-0.328038 -0.205869,-0.989236 -0.414002,-1.469416 l -0.378683,-0.872955 0.380042,0.465742 c 0.208887,0.256158 0.4543,0.762574 0.54516,1.125542 0.09086,0.362969 0.217339,0.659801 0.281031,0.659801 0.06369,0 0.161194,-0.310649 0.216585,-0.690229 0.104595,-0.717863 -0.08226,-1.694679 -0.473166,-2.472934 l -0.224282,-0.446336 0.881583,0.50533 c 0.484788,0.278048 1.066321,0.723452 1.292415,0.989701 0.388343,0.457669 0.411284,0.465121 0.415058,0.135066 0.0054,-0.461085 0.277409,-0.446647 0.451281,0.02375 0.183984,0.497878 0.40404,0.617574 0.52735,0.286897 0.08935,-0.239391 0.132667,-0.226195 0.383815,0.116281 0.254166,0.346511 0.293559,0.358 0.385627,0.111467 0.07939,-0.212689 0.149119,-0.234734 0.309406,-0.09796 0.160288,0.136928 0.230018,0.114728 0.309407,-0.09796 0.111538,-0.299006 -0.210547,-0.634961 -1.591709,-1.66037 -0.755556,-0.560908 -0.830418,-0.582177 -2.210372,-0.625336 -1.6794,-0.05247 -1.869572,-0.180863 -2.236785,-1.511022 -0.1298,-0.469623 -0.475581,-1.262781 -0.768536,-1.762522 -0.3480454,-0.593355 -0.4505274,-0.876061 -0.2956724,-0.815048 0.130403,0.05154 0.262316,0.09361 0.2932574,0.09361 0.03094,0 0.297031,0.324467 0.591344,0.720968 0.567347,0.764283 0.73337,0.755589 0.240885,-0.01273 -0.160741,-0.250724 -0.260807,-0.508124 -0.222471,-0.571931 0.05554,-0.09253 -0.369326,-0.476609 -1.1309204,-1.022769 -0.03456,-0.02469 -0.02385,-0.08508 0.0237,-0.134134 0.04769,-0.0489 0.303068,0.02608 0.5674984,0.166736 0.264429,0.140654 0.525538,0.206168 0.580024,0.145466 0.05449,-0.0607 0.02385,-0.13817 -0.06807,-0.172324 -0.09207,-0.03415 -0.295823,-0.169375 -0.452791,-0.300714 -0.2751454,-0.230077 -0.2731834,-0.236131 0.05403,-0.164252 0.566592,0.124509 0.388494,-0.0961 -0.6683184,-0.828244 -0.689902,-0.477696 -1.043079,-0.832902 -1.118997,-1.125077 -0.06173,-0.237528 -0.04981,-0.42693 0.02687,-0.42693 0.07592,0 0.13795,0.131184 0.13795,0.291554 0,0.402401 0.291597,0.614469 1.166237,0.847806 l 0.7483124,0.199648 -0.164967,-0.458756 c -0.09056,-0.252432 -0.3515164,-0.601738 -0.5798734,-0.776392 -0.523728,-0.400693 -0.548329,-0.695197 -0.02883,-0.344959 0.21251,0.143138 0.5010884,0.234734 0.6414534,0.203684 0.265788,-0.05915 0.284805,-0.03757 -1.2952824,-1.470036 -0.302162,-0.274012 -0.50305,-0.546005 -0.44615,-0.604533 0.05675,-0.05853 0.414605,0.01599 0.794949,0.165493 1.2174034,0.478162 1.0658694,0.04068 -0.309708,-0.893913 -0.93954,-0.638377 -1.098017,-1.0081757 -0.27741,-0.647226 0.319821,0.140654 0.683261,0.290623 0.807778,0.333471 0.25311,0.08694 -0.422453,-0.5761227 -1.261625,-1.2382527 -0.770347,-0.607637 -0.685675,-0.825915 0.129649,-0.334402 0.373552,0.225108 0.679186,0.378803 0.679186,0.341233 0,-0.03741 -0.402833,-0.400538 -0.895318,-0.806665 -0.914486,-0.754501 -1.355503,-1.342733 -0.761442,-1.015783 0.421095,0.231785 0.371439,0.08306 -0.07215,-0.215793 -0.365704,-0.246533 -0.372647,-0.242341 -0.536557,0.331453 m 44.9781584,0.554698 c -0.91358,1.028048 -0.94165,1.080366 -0.40811,0.760246 0.77759,-0.466518 0.52961,-0.07405 -0.45974,0.727334 -0.43573,0.353032 -0.79238,0.6726857 -0.79238,0.7104107 0,0.03757 0.31529,-0.07048 0.70062,-0.2404777 0.38517,-0.16984 0.72959,-0.278824 0.76521,-0.242341 0.0356,0.03664 -0.23786,0.280843 -0.60779,0.5424337 -0.65338,0.462482 -1.53059,1.398002 -1.41875,1.513196 0.0305,0.03136 0.34548,-0.08709 0.70002,-0.2633 0.35453,-0.176206 0.67873,-0.285034 0.72069,-0.241875 0.0418,0.043 -0.251,0.449596 -0.65096,0.903539 -0.39982,0.453788 -0.86513,0.992651 -1.03403,1.197422 -0.30457,0.369489 -0.30457,0.371662 -0.005,0.289381 0.16603,-0.04564 0.4377,-0.136773 0.60372,-0.202287 0.23742,-0.09377 0.20738,-0.01475 -0.14142,0.370575 -0.24375,0.269354 -0.37098,0.48965 -0.28269,0.48965 0.0884,0 0.24526,-0.104792 0.34865,-0.232871 0.10339,-0.128079 0.2602,-0.232871 0.34865,-0.232871 0.0883,0 -0.0389,0.217812 -0.2827,0.484217 l -0.44328,0.484216 0.37733,-0.112244 c 0.5921,-0.176205 1.0553,-0.528461 1.23853,-0.94204 0.17146,-0.386877 0.4217,-0.514179 0.4217,-0.214397 0,0.381288 -0.36148,0.796108 -1.21106,1.389463 -0.79495,0.55532 -1.00037,0.788812 -0.86423,0.982716 0.0207,0.02965 -0.0555,0.169375 -0.16934,0.310494 -0.13463,0.166891 -0.14791,0.256779 -0.0377,0.256779 0.0931,0 0.16935,-0.06738 0.16935,-0.149813 0,-0.08228 0.14399,-0.22899 0.32012,-0.32602 0.38004,-0.209118 0.32103,-0.07312 -0.35816,0.82514 -0.33868,0.448043 -0.38457,0.582177 -0.19892,0.582177 0.19862,0 0.16421,0.158042 -0.19395,0.892672 -0.46471,0.952908 -0.80747,1.960928 -0.46199,1.358414 0.40192,-0.700942 1.21513,-1.940591 1.27294,-1.940591 0.0341,0 -0.0596,0.296832 -0.20843,0.659801 -0.14867,0.362968 -0.35861,1.009107 -0.46623,1.436037 -0.29658,1.175377 -0.53731,1.319602 -2.20252,1.319602 h -1.40727 l -1.13424,0.927137 c -1.05455,0.861933 -1.622956,1.529341 -1.34343,1.577002 0.0652,0.01118 0.44494,0.03058 0.84385,0.04316 0.67647,0.02143 0.74755,-0.01382 1.05651,-0.524735 0.30352,-0.501915 0.33521,-0.518526 0.37944,-0.198406 0.062,0.44944 0.23469,0.44292 0.52946,-0.01972 0.1292,-0.203063 0.42155,-0.417305 0.6496,-0.476143 0.22791,-0.05884 0.59889,-0.242031 0.82423,-0.407059 0.22549,-0.165183 0.44932,-0.300248 0.49762,-0.300248 0.0481,0 -0.0472,0.351946 -0.21206,0.781981 -0.2919,0.761798 -0.41309,2.170357 -0.1864,2.165078 0.0623,-0.0014 0.2753,-0.387807 0.47347,-0.858517 0.19802,-0.47071 0.38578,-0.829486 0.41702,-0.79735 0.0312,0.03214 -0.0548,0.331142 -0.19123,0.664303 -0.63526,1.552162 -0.50591,2.07783 0.14912,0.606085 0.20904,-0.469623 0.41868,-0.85386 0.46592,-0.85386 0.11094,0 -0.30156,1.016094 -0.68235,1.680863 -0.33718,0.588387 -0.27636,0.803094 0.22715,0.803094 0.22398,0 0.37944,0.112399 0.42985,0.310494 0.086,0.33875 0.55995,0.433606 0.55995,0.112089 0,-0.407835 1.03191,-2.376526 1.4278,-2.723814 0.36721,-0.322293 0.38487,-0.3802 0.16647,-0.544607 -0.22443,-0.168754 -0.22126,-0.256624 0.0391,-1.068412 0.25628,-0.798903 0.26036,-0.890964 0.0421,-0.951045 -0.155,-0.04269 -0.11984,-0.07312 0.098,-0.08461 0.40026,-0.02127 0.42577,0.19763 0.11319,0.967191 -0.29869,0.735406 -0.28601,0.877768 0.0785,0.877768 0.35212,0 1.46613,-1.663009 1.93598,-2.890083 0.29869,-0.780118 0.62681,-2.607068 0.62681,-3.49027 0,-0.481732 -0.0264,-0.460463 -0.75057,0.600031 -0.77654,1.137497 -1.20684,1.581504 -1.00007,1.031929 0.23681,-0.629528 0.8268,-2.842733 1.00218,-3.759779 0.2113,-1.104895 0.13961,-6.7801147 -0.091,-7.1940037 -0.11833,-0.212534 -0.30216,-0.07343 -1.12262,0.849668 M 16.45267,7.8859913 c 0.184436,0.544141 0.657602,1.015472 0.878564,0.874973 0.260053,-0.165338 0.187757,-0.389826 -0.28073,-0.871868 -0.576402,-0.59289 -0.798119,-0.593977 -0.597834,-0.0031 m 35.225735,-0.297144 c -0.0528,0.08787 0.008,0.113952 0.14203,0.06101 0.26141,-0.103239 0.30925,-0.214551 0.0922,-0.214551 -0.0782,0 -0.18354,0.06909 -0.23425,0.153539 m -34.032009,1.702132 c -0.129045,0.247929 -0.07275,0.403022 0.308199,0.8493567 0.25628,0.300249 0.422756,0.617885 0.36993,0.705755 -0.05283,0.08803 -0.02189,0.159904 0.06852,0.159904 0.235753,0 0.381552,-0.477075 0.184286,-0.602514 -0.09131,-0.05791 -0.211755,-0.400228 -0.26775,-0.7605567 -0.109726,-0.706375 -0.398908,-0.859759 -0.663187,-0.351945 m 24.223986,0.682932 c -0.428641,0.9971537 -0.502295,1.5214237 -0.109424,0.7804277 0.14127,-0.266559 0.385777,-0.67191 0.543499,-0.9007437 0.212359,-0.308321 0.242545,-0.46124 0.116669,-0.590716 -0.125876,-0.129476 -0.268505,0.05465 -0.550744,0.711032 M 18.399515,11.346151 c 0.0014,0.111778 0.06822,0.308011 0.148667,0.43609 0.118933,0.189246 0.146704,0.169219 0.148666,-0.107276 0.0012,-0.187073 -0.06566,-0.383306 -0.148666,-0.43609 -0.08301,-0.05278 -0.149874,-0.0045 -0.148667,0.107276 m 22.873313,0.54585 c -0.0818,0.221227 -0.0646,0.23908 0.08452,0.08694 0.103236,-0.105413 0.149571,-0.230697 0.103085,-0.278358 -0.04649,-0.04782 -0.130857,0.03835 -0.187606,0.19142 m -27.849476,0.161923 c 0.01026,0.173721 1.782937,1.28079 2.050838,1.28079 0.421548,0 0.121499,-0.381132 -0.702881,-0.892672 -0.767178,-0.475988 -1.363201,-0.647692 -1.347957,-0.388118 m 32.217854,0.127768 c -0.73745,0.39557 -1.4349,0.997464 -1.4349,1.238563 0,0.331142 0.099,0.290312 1.05334,-0.434848 0.47755,-0.362968 0.99629,-0.743013 1.15266,-0.8447 0.27529,-0.179 0.27469,-0.18521 -0.0175,-0.193128 -0.16602,-0.0045 -0.50516,0.100911 -0.75359,0.234113 m -31.09267,1.683655 c 0.584854,0.513092 1.282906,0.77872 1.282906,0.488253 0,-0.281153 -0.648245,-0.697837 -1.245777,-0.800921 l -0.48992,-0.08446 0.452791,0.397123 m 30.36745,0.0267 c -0.68719,0.367936 -1.00625,0.741772 -0.80763,0.946233 0.0498,0.05108 0.50411,-0.09175 1.00972,-0.317171 0.50562,-0.225574 1.06768,-0.415131 1.24895,-0.42103 0.3168,-0.01056 0.31786,-0.01584 0.0278,-0.135376 -0.19032,-0.07856 -0.46909,-0.0385 -0.75465,0.108207 l -0.45279,0.232716 0.36585,-0.407834 c 0.45234,-0.504244 0.29658,-0.505641 -0.63722,-0.0057 M 9.2571146,14.038332 c 0.161193,0.125285 0.364949,0.22573 0.45279,0.222935 0.08799,-0.0026 0.02792,-0.107431 -0.13312,-0.232871 -0.161193,-0.125284 -0.364949,-0.225729 -0.45279,-0.222935 -0.08799,0.0026 -0.02792,0.107432 0.13312,0.232871 m -1.424932,1.580262 c 0,0.679052 0.588326,2.232767 1.136052,3.00031 0.312727,0.438107 0.657451,1.052576 0.766121,1.36571 0.1704,0.490581 0.198473,0.514645 0.204209,0.173566 0.0036,-0.217501 -0.3245,-1.055836 -0.729295,-1.862967 -0.404644,-0.806975 -0.820456,-1.746843 -0.923843,-2.088387 -0.227754,-0.753104 -0.453244,-1.04559 -0.453244,-0.588232 m 43.1119924,1.95503 c -1.04821,2.322188 -1.26948,3.068307 -0.61701,2.080624 0.8843,-1.338698 2.08344,-4.301282 1.74083,-4.301282 -0.0667,0 -0.57248,0.999327 -1.12382,2.220658 m -8.05096,-1.133927 c 0,0.469623 0.0282,0.661664 0.0628,0.42693 0.0346,-0.234889 0.0346,-0.618971 0,-0.85386 -0.0346,-0.234889 -0.0628,-0.04269 -0.0628,0.42693 m -30.533167,-0.0576 c 0,0.05372 0.237715,0.368246 0.528255,0.699078 0.290541,0.330677 0.528256,0.666477 0.528256,0.746119 0,0.384081 0.324047,0.980386 0.457771,0.842837 0.23696,-0.243738 -0.223829,-1.775718 -0.630888,-2.097856 -0.344272,-0.272304 -0.883394,-0.388429 -0.883394,-0.190178 m 0.200133,1.295849 c 0.207982,0.25414 0.422906,0.672531 0.477845,0.929776 0.105651,0.494618 0.378533,0.799057 0.378533,0.422272 0,-0.3802 -0.452036,-1.562253 -0.64583,-1.688935 C 12.3199,17.0464 12.200213,17.237975 12.560181,17.677946 m 5.535212,1.798229 c 0,0.133047 0.06897,0.198096 0.153345,0.144535 0.08437,-0.05371 0.114405,-0.162544 0.06656,-0.24203 -0.129347,-0.215328 -0.219905,-0.175274 -0.219905,0.0975 m 23.092312,0.999948 c 0,0.08539 0.173872,0.155247 0.38623,0.155247 0.219,0 0.345932,-0.06722 0.292956,-0.155247 -0.05132,-0.08539 -0.225037,-0.155247 -0.386231,-0.155247 -0.161193,0 -0.292955,0.06986 -0.292955,0.155247 m 10.82607,0.09377 c -0.0605,0.06225 -0.11003,0.220296 -0.11003,0.351325 0,0.174653 0.0447,0.192041 0.16799,0.06536 0.0922,-0.09501 0.14187,-0.253208 0.11002,-0.351325 -0.0318,-0.09812 -0.10746,-0.127613 -0.16798,-0.06536 m -41.084243,3.748601 c 0.06098,0.149503 0.144289,0.42988 0.18504,0.623318 0.07803,0.370265 0.339895,0.640861 0.339895,0.351169 0,-0.260194 -0.424567,-1.24617 -0.536708,-1.24617 -0.05464,0 -0.04935,0.12218 0.01177,0.271683 m 27.21844,2.816962 c -0.215226,0.174188 -0.435584,0.271062 -0.489617,0.215328 -0.05418,-0.05573 -0.368874,0.170462 -0.699411,0.50238 -0.436942,0.438884 -0.601003,0.531412 -0.601003,0.339216 0,-0.895777 -0.986329,0.765369 -1.264191,2.129216 -0.266392,1.307027 -0.473619,1.567843 -0.674658,0.848892 -0.138705,-0.495859 -0.147761,-0.474591 -0.16059,0.376165 -0.0086,0.568205 -0.07033,0.865814 -0.166929,0.804336 -0.08437,-0.05372 -0.117272,-0.157731 -0.07305,-0.231319 0.04422,-0.07359 0.01917,-0.172635 -0.05554,-0.220296 -0.07486,-0.04751 -0.182475,0.358777 -0.239073,0.902763 -0.09267,0.890809 -0.05705,1.473918 0.155307,2.538915 0.0495,0.248861 -0.0012,0.349306 -0.176739,0.349306 -0.197417,0 -0.22715,0.1006 -0.14927,0.504554 0.05343,0.277426 0.159231,1.552472 0.234998,2.833263 0.07577,1.28079 0.240884,2.709686 0.367062,3.175272 0.126178,0.465742 0.202699,0.874198 0.170098,0.907731 -0.0326,0.03369 -0.211151,-0.242496 -0.396795,-0.613692 -0.289484,-0.579073 -0.355441,-1.04792 -0.465016,-3.302886 -0.07018,-1.445508 -0.166476,-2.667925 -0.213717,-2.716673 -0.132818,-0.136462 -0.513615,0.474591 -0.5192,0.833368 -0.0048,0.308166 -0.0157,0.306458 -0.299898,-0.0444 -0.16225,-0.200114 -0.368118,-0.64381 -0.457771,-0.985975 -0.0895,-0.34201 -0.197417,-0.586369 -0.239677,-0.5429 -0.114556,0.117988 0.112594,1.504812 0.246469,1.504812 0.153949,0 0.518294,0.917201 0.409021,1.029445 -0.128291,0.132115 -0.862113,-1.434485 -1.017119,-2.171289 -0.11682,-0.554699 -0.127988,-0.493531 -0.08165,0.443231 0.02958,0.597702 0.102482,1.209066 0.162099,1.358414 0.06641,0.16627 0.04075,0.271682 -0.06611,0.271682 -0.238168,0 -0.719484,-1.129579 -0.941352,-2.208703 l -0.182927,-0.888946 -0.279673,0.423204 c -0.153798,0.232871 -0.468789,0.842528 -0.699713,1.354844 -0.230923,0.512316 -0.533387,1.027426 -0.67179,1.144483 -0.313632,0.265472 -0.31318,0.252276 0.02792,-0.770803 0.153949,-0.461706 0.321783,-1.188729 0.3731,-1.615659 0.07999,-0.666166 0.07063,-0.710256 -0.06596,-0.310494 -0.345177,1.009883 -1.259965,3.027322 -1.373011,3.027322 -0.16225,0 -0.175683,0.06365 0.332348,-1.57219 0.522822,-1.683501 0.57444,-2.061062 0.145798,-1.067014 -0.165721,0.384237 -0.540782,0.910836 -0.833738,1.170254 l -0.532481,0.471796 -0.121952,2.245031 c -0.07697,1.416011 -0.207982,2.453218 -0.354987,2.808424 -0.387589,0.936762 -0.557385,0.837869 -0.3245,-0.188936 0.118027,-0.520699 0.276957,-2.00564 0.352874,-3.299781 0.07607,-1.294142 0.187154,-2.482249 0.246922,-2.640291 0.06807,-0.180397 0.03034,-0.337042 -0.101727,-0.42103 -0.162702,-0.103395 -0.198624,-0.481267 -0.158778,-1.673877 0.03351,-1.001655 -0.0063,-1.577002 -0.113651,-1.645155 -0.09071,-0.05775 -0.165872,-0.327882 -0.167079,-0.600341 -0.0011,-0.272459 -0.04815,-0.670048 -0.104595,-0.883513 l -0.102632,-0.388118 -0.08814,0.37663 c -0.164061,0.700786 -0.42683,0.523339 -0.602362,-0.406748 -0.202699,-1.074311 -0.316651,-1.37487 -0.851548,-2.246428 -0.386079,-0.629217 -0.412643,-0.644897 -0.53233,-0.312202 -0.125574,0.349306 -0.127084,0.348995 -0.67013,-0.160681 -0.735181,-0.689919 -0.882791,-0.762575 -1.658873,-0.816291 -0.805213,-0.05589 -0.845964,0.09067 -0.148818,0.533741 0.286466,0.18226 0.803854,0.764282 1.149484,1.29352 0.583345,0.892982 0.620625,0.9231 0.519653,0.418857 -0.08694,-0.433761 -0.07063,-0.505796 0.08075,-0.356913 0.26941,0.264852 0.420642,1.488511 0.238318,1.92755 -0.08845,0.212844 -0.14927,1.688004 -0.143232,3.4749 0.0094,2.780168 0.04392,3.194213 0.331442,3.958806 0.176588,0.469623 0.321029,1.115917 0.321029,1.436037 1.51e-4,0.320275 0.06913,0.582177 0.153345,0.582177 0.334461,0 0.75133,-1.011125 0.751783,-1.824155 7.54e-4,-1.00119 0.199227,-1.050248 0.45445,-0.112399 0.214623,0.788501 0.450527,1.053353 0.453998,0.509677 0.0014,-0.197164 0.06822,-0.463258 0.148666,-0.591337 0.09901,-0.157421 0.147006,0.374301 0.148667,1.642361 0.0021,1.805371 -0.01389,1.900692 -0.432264,2.56158 -0.38774,0.612606 -0.443433,0.861467 -0.518294,2.316445 -0.09448,1.832694 -0.303974,2.651779 -1.509302,5.899397 -0.952369,2.566237 -1.394594,4.444574 -1.125033,4.778666 0.09403,0.116591 0.447206,0.354119 0.784837,0.527841 0.911467,0.469002 1.928283,1.524373 1.468701,1.524373 -0.06943,0 -0.595872,-0.312823 -1.169709,-0.695352 -1.171067,-0.780118 -1.271737,-0.814428 -1.2657,-0.430191 0.0026,0.160526 0.34231,0.482043 0.830116,0.785862 0.544707,0.338905 0.82589,0.616487 0.82589,0.815049 0,0.420254 -0.157572,0.3802 -0.950257,-0.242497 -0.772762,-0.606861 -0.860905,-0.639774 -0.860905,-0.320896 0,0.170462 0.840379,0.979455 1.496774,1.441005 0.03456,0.02437 0.02415,0.08399 -0.02309,0.132737 -0.04739,0.04859 -0.370836,-0.06101 -0.719031,-0.243738 -0.348196,-0.182726 -0.660622,-0.303664 -0.69443,-0.268889 -0.121348,0.124819 0.267146,1.021993 0.478599,1.105361 0.118631,0.04689 0.215831,0.164717 0.215831,0.262057 0,0.09718 -0.101878,0.136463 -0.226396,0.08725 -0.365402,-0.144224 -0.27273,0.441368 0.151987,0.960515 0.207982,0.254451 1.000516,0.888481 1.761204,1.40918 l 1.382971,0.946698 h 2.011898 2.01205 v -0.524425 c 0,-0.627044 -0.162552,-0.784775 -1.056511,-1.024788 -0.983461,-0.264075 -1.777957,-0.885996 -2.274668,-1.780376 -1.015156,-1.828347 -0.569761,-3.632631 1.06934,-4.33202 0.775932,-0.330987 2.915216,-0.465121 4.143938,-0.259729 1.965714,0.328659 2.561737,1.021838 2.470727,2.873938 -0.04407,0.900434 -0.135385,1.241823 -0.471053,1.763609 -0.563725,0.876216 -1.471569,1.520182 -2.46635,1.749171 l -0.826192,0.190178 0.04498,0.711033 0.04498,0.711033 2.037557,-0.04828 2.037557,-0.04813 1.207441,-0.832902 c 0.664092,-0.458134 1.479115,-1.07695 1.811162,-1.37518 0.531576,-0.477386 0.581986,-0.579228 0.421849,-0.852153 -0.146553,-0.249637 -0.139157,-0.346511 0.03773,-0.497412 0.223376,-0.190799 0.315444,-1.392102 0.106406,-1.390705 -0.06234,4.66e-4 -0.384872,0.172945 -0.716919,0.383306 -0.332046,0.21036 -0.688543,0.384702 -0.792383,0.387342 -0.415209,0.01056 -0.142931,-0.311737 0.716918,-0.849048 0.631643,-0.394794 0.905581,-0.661819 0.905581,-0.882891 0,-0.308321 -0.01162,-0.309563 -0.415058,-0.04595 -0.228206,0.149192 -0.63119,0.43671 -0.895468,0.638842 -0.264279,0.202287 -0.584704,0.367626 -0.71224,0.367626 -0.43649,0 -0.07275,-0.441058 0.903317,-1.095115 0.641755,-0.430035 0.968519,-0.750775 0.968519,-0.950579 0,-0.253984 -0.177645,-0.175274 -1.125788,0.498965 -0.619266,0.440281 -1.201404,0.774684 -1.293773,0.743014 -0.291899,-0.100135 0.419133,-0.857586 1.352032,-1.440385 0.486901,-0.30444 0.918863,-0.643189 0.959916,-0.752949 0.127838,-0.342941 -0.590288,-2.886668 -1.455118,-5.153434 -0.953274,-2.498394 -1.304942,-4.057698 -1.304942,-5.785135 0,-1.057078 -0.05011,-1.288242 -0.378985,-1.746532 -0.208284,-0.290623 -0.445697,-0.77577 -0.52735,-1.078192 -0.164967,-0.610743 -0.196511,-2.219105 -0.05418,-2.765575 0.08633,-0.331143 0.104595,-0.335955 0.295068,-0.07762 0.187456,0.25414 0.203605,0.245601 0.210246,-0.112865 0.0056,-0.308321 0.03713,-0.340146 0.153345,-0.155247 0.111085,0.176671 0.146855,0.111157 0.148666,-0.271683 0.0039,-0.88196 0.265185,-0.542744 0.333858,0.433761 0.05328,0.758538 0.143534,1.018267 0.470902,1.354999 0.374156,0.384858 0.404945,0.39262 0.404945,0.101687 0,-0.173101 -0.07184,-0.388584 -0.159684,-0.478938 -0.08769,-0.0902 -0.186549,-0.575813 -0.219603,-1.078969 l -0.05992,-0.914717 0.164363,1.009107 c 0.124064,0.761023 0.193945,0.932726 0.284503,0.698613 0.06596,-0.170772 0.124819,-0.477385 0.130705,-0.681535 0.0057,-0.203995 0.115764,-0.450062 0.244205,-0.546626 0.485845,-0.365452 0.609154,-3.604997 0.278768,-7.324257 -0.06022,-0.677344 -0.01585,-1.113123 0.156515,-1.537569 0.132366,-0.325709 0.279221,-0.552525 0.326311,-0.503932 0.04709,0.04844 0.01238,0.2293 -0.07743,0.40178 -0.0898,0.172479 -0.163156,0.404419 -0.163156,0.515421 0,0.111157 0.142478,-0.07638 0.316652,-0.416684 0.372193,-0.726868 1.320186,-1.783015 1.600614,-1.783015 0.107613,0 0.195756,-0.112865 0.195756,-0.251035 0,-0.17248 -0.09207,-0.226195 -0.294615,-0.171704 -0.162099,0.04362 -0.316501,0.0118 -0.343216,-0.07064 -0.02671,-0.08244 -0.224584,-0.0075 -0.43981,0.16658 m -14.317235,3.198826 c 0,0.369799 0.06958,0.543365 0.217641,0.543365 0.126781,0 0.313331,0.3077 0.446904,0.737425 l 0.229263,0.737424 -0.08724,-0.85386 c -0.143383,-1.402038 -0.80657,-2.359603 -0.80657,-1.164354 M 35.98333,30.173455 c -0.112141,0.405817 -0.139912,0.424136 -0.235451,0.155248 -0.112443,-0.316084 -0.188814,-0.01552 -0.366459,1.441626 l -0.07109,0.582177 0.184588,-0.465742 c 0.101425,-0.256158 0.307294,-0.697526 0.457469,-0.980852 0.150176,-0.283171 0.247073,-0.667408 0.215528,-0.85386 -0.05071,-0.299006 -0.07229,-0.284879 -0.184587,0.121403 m 4.177444,0.905713 c -0.265335,0.281463 -0.711484,0.962688 -0.991611,1.513661 -0.279975,0.550817 -0.755405,1.478265 -1.056511,2.060908 -0.300954,0.582488 -0.547272,1.2027 -0.547272,1.37813 0,0.274943 0.09146,0.23225 0.661979,-0.308632 0.740313,-0.702028 1.177859,-0.96067 2.457596,-1.453425 1.112959,-0.428482 4.272082,-0.626423 5.238942,-0.328348 0.34201,0.105413 0.63889,0.192662 0.65956,0.194059 0.0207,0.0012 0.0377,-0.102463 0.0377,-0.230542 0,-0.332074 0.4952,-0.287828 0.95644,0.08539 0.21628,0.175119 0.48026,0.306613 0.58636,0.292176 0.43212,-0.05868 0.7053,0.02887 1.22827,0.394017 0.96913,0.676413 0.478,-0.252587 -0.53097,-1.004295 -0.32752,-0.244048 -0.57504,-0.493531 -0.54999,-0.554232 0.0927,-0.224954 -1.64861,-1.01066 -2.66799,-1.203943 -1.08911,-0.206479 -1.0633,-0.415442 0.0512,-0.415442 0.5429,0 2.47541,0.839267 3.1152,1.35298 0.16603,0.133358 -0.0418,-0.09905 -0.46169,-0.516507 -1.21982,-1.212327 -3.08411,-1.70741 -4.72034,-1.253622 -0.768544,0.212999 -0.801748,0.210049 -0.73111,-0.068 0.0963,-0.378648 -0.14882,-0.367625 -0.803253,0.03586 -0.720842,0.444472 -1.267662,0.985509 -2.062159,2.04057 -1.570881,2.086058 -1.130768,0.161457 0.497013,-2.173462 0.348951,-0.500362 0.191984,-0.430967 -0.367364,0.162699 m -22.959187,-0.0236 c 0.15908,0.305527 0.143836,0.324467 -0.18338,0.227438 -1.738112,-0.515421 -3.217982,-0.413579 -4.511453,0.310649 -0.620776,0.347444 -1.732225,1.323484 -1.27868,1.122749 0.08301,-0.03664 0.62636,-0.298851 1.207441,-0.582333 1.139221,-0.55594 2.071365,-0.7441 2.745419,-0.554388 0.357101,0.1006 0.236206,0.150901 -0.764763,0.318102 -1.492246,0.249327 -3.218283,1.068101 -2.950835,1.399709 0.09735,0.120628 0.113047,0.219365 0.03471,0.219365 -0.191983,0 -1.403952,1.076019 -1.403952,1.24648 0,0.07452 0.288578,7.77e-4 0.641453,-0.163941 0.352874,-0.164717 0.796911,-0.301024 0.987083,-0.302887 0.190021,-0.0019 0.611871,-0.143138 0.937276,-0.31391 0.701523,-0.368092 0.905581,-0.388118 0.905581,-0.08849 0,0.178379 0.09659,0.192041 0.490523,0.06955 0.269712,-0.08399 1.249701,-0.146709 2.17762,-0.139568 1.312941,0.01009 1.953338,0.09486 2.88669,0.382219 1.560165,0.480335 1.974015,0.711188 2.644145,1.473918 1.064058,1.21155 0.966708,0.759625 -0.463808,-2.154833 -0.722503,-1.471899 -1.311583,-2.478057 -1.540544,-2.631752 -0.422152,-0.283326 -0.4057,-0.238615 0.3165,0.858984 0.417473,0.634495 1.095602,2.219881 0.994026,2.324207 -0.136742,0.140809 -0.792534,-0.526133 -1.266304,-1.288087 -0.73352,-1.179258 -3.154892,-2.79057 -2.604752,-1.733181 m 0.989045,1.138584 c 0.09871,0.264852 1.089565,0.932105 1.206083,0.812099 0.135082,-0.138792 -0.288729,-0.702184 -0.65881,-0.875595 -0.485542,-0.227593 -0.648849,-0.208652 -0.547273,0.0635 m 22.77068,0.391223 c -0.238621,0.256158 -0.383815,0.465742 -0.322538,0.465742 0.253865,0 0.971688,-0.471641 1.054096,-0.692869 0.149119,-0.399761 -0.268504,-0.269975 -0.731558,0.227127 M 17.810131,32.97179 c 0.281334,0.297919 0.613531,0.540571 0.738049,0.539173 0.13795,-0.0016 0.006,-0.213154 -0.337329,-0.541657 -0.734879,-0.702805 -1.065114,-0.700631 -0.40072,0.0025 m 24.178405,-0.0033 c -0.232885,0.210826 -0.34246,0.385479 -0.243299,0.388119 0.09916,0.0028 0.370835,-0.167512 0.603721,-0.378183 0.232885,-0.210826 0.34246,-0.385479 0.243299,-0.388118 -0.09916,-0.0028 -0.370835,0.167512 -0.603721,0.378182 m -25.662652,0.02205 c 0.05071,0.05201 0.41853,0.122955 0.817589,0.157731 0.518143,0.04502 0.660772,0.01863 0.499126,-0.09237 -0.240281,-0.164873 -1.472927,-0.226196 -1.316715,-0.06536 m 26.748451,0.06055 c -0.0513,0.08539 0.009,0.155247 0.13312,0.155247 0.12451,0 0.26835,-0.06986 0.31967,-0.155247 0.0513,-0.08539 -0.009,-0.155247 -0.13312,-0.155247 -0.12452,0 -0.26836,0.06986 -0.31967,0.155247 M 24.26089,35.690311 c -0.01253,0.341544 -0.02943,0.702494 -0.03773,0.802163 -0.0083,0.09951 0.06988,0.210204 0.17357,0.245756 0.135837,0.04657 0.188662,-0.177603 0.188662,-0.802163 0,-0.981628 -0.289635,-1.200993 -0.324499,-0.245756 m 11.217581,0.310494 c -0.0051,0.738512 0.02913,0.917046 0.127536,0.665546 0.07607,-0.194525 0.07909,-0.632478 0.0069,-1.009108 -0.123611,-0.645207 -0.127687,-0.634806 -0.134478,0.343562 M 18.47268,35.534299 c -0.249035,0.06971 -0.78363,0.173722 -1.187972,0.231319 -0.450526,0.06412 -0.680996,0.160215 -0.595419,0.24824 0.08573,0.08818 0.625756,0.07638 1.395651,-0.03012 0.690807,-0.09563 1.58703,-0.14112 1.991674,-0.101221 0.404493,0.04005 0.735483,0.04983 0.735483,0.02189 0,-0.02794 -0.200435,-0.157421 -0.445244,-0.287673 -0.479203,-0.254916 -1.169407,-0.284879 -1.894173,-0.08244 m 21.254284,0.05139 c -0.795251,0.302111 -0.718578,0.384703 0.282541,0.304595 0.523426,-0.04207 1.456929,-0.0033 2.074535,0.08601 0.632247,0.09144 1.222985,0.104637 1.352185,0.03027 0.16134,-0.09284 0.007,-0.16301 -0.5189,-0.235666 -0.411737,-0.05698 -1.117637,-0.168133 -1.568767,-0.247309 -0.978631,-0.171548 -1.009723,-0.170461 -1.621594,0.0621 m -21.578482,1.190281 c -0.457771,0.190023 -0.531425,0.377251 -0.346536,0.880718 0.361327,0.983492 1.642573,1.91482 2.634335,1.91482 0.789515,0 1.339052,-0.357534 1.654194,-1.076329 0.267297,-0.609812 0.267448,-0.643035 0.0042,-0.942196 -0.285862,-0.324933 -0.829814,-0.424291 -0.829814,-0.151677 0,0.354896 -0.806118,1.378286 -1.22676,1.557441 -0.606739,0.258487 -0.72371,0.102929 -0.924296,-1.2308 -0.174928,-1.162337 -0.258845,-1.245084 -0.965349,-0.951977 m 1.607104,0.389205 c 0,0.523649 0.02973,0.560443 0.415058,0.5148 0.350007,-0.0413 0.415058,-0.122179 0.415058,-0.5148 0,-0.39262 -0.06505,-0.473504 -0.415058,-0.5148 -0.385325,-0.04564 -0.415058,-0.0088 -0.415058,0.5148 m 19.555113,-0.404109 c -0.05192,0.08632 -0.05102,0.334869 0.0021,0.552215 0.07607,0.311892 0.190474,0.39526 0.542443,0.39526 0.41219,0 0.442376,-0.03819 0.398606,-0.504554 -0.03894,-0.415442 -0.118027,-0.512937 -0.448111,-0.552215 -0.220358,-0.02624 -0.443131,0.02282 -0.495051,0.109294 m 1.50583,0.753416 c -0.146251,1.255484 -0.239375,1.591284 -0.441018,1.591284 -0.311067,0 -1.253173,-0.90416 -1.449231,-1.39086 -0.215981,-0.536535 -0.589382,-0.609656 -0.960218,-0.18816 -0.386079,0.438729 -0.299294,0.896864 0.283447,1.496273 0.448263,0.46093 0.638887,0.548489 1.194914,0.548489 1.382671,0 2.563247,-0.890033 2.749947,-2.073327 0.07592,-0.481267 0.04271,-0.538088 -0.409021,-0.70001 C 40.987796,36.5122 40.928178,36.55629 40.81649,37.514477 M 14.925782,37.185665 c -0.532934,0.144535 -0.947992,0.371817 -1.159294,0.634806 l -0.32933,0.409853 0.32933,0.357379 c 0.41053,0.445715 0.559498,0.44882 1.086697,0.02236 l 0.420793,-0.340613 -0.07773,0.418236 c -0.06188,0.33285 -0.02038,0.418081 0.203303,0.418081 0.32284,0 0.360874,0.166115 0.09976,0.434693 -0.140818,0.144845 -0.08648,0.186296 0.244808,0.186296 0.374307,0 0.401626,0.03027 0.224584,0.249638 -0.169192,0.209894 -0.164664,0.278048 0.02868,0.42693 0.12648,0.09749 0.274542,0.299627 0.329179,0.448975 0.05449,0.149348 0.23696,0.271683 0.4057,0.271683 0.205869,0 0.306539,0.101842 0.306539,0.310495 0,0.192817 0.100671,0.310494 0.265486,0.310494 0.146101,0 0.354686,0.146554 0.463356,0.325709 0.133573,0.220141 0.297785,0.299006 0.505767,0.242962 0.218547,-0.05884 0.330235,0.0045 0.384419,0.217657 0.08784,0.34558 0.115009,0.353808 0.487202,0.148882 0.219755,-0.120938 0.291899,-0.08647 0.357252,0.170616 0.07199,0.283172 0.156062,0.309408 0.692769,0.216105 0.767782,-0.133513 1.574956,0.130407 1.966922,0.642879 0.164061,0.214551 0.368873,0.344959 0.455205,0.290157 0.264128,-0.167978 0.176589,-1.366176 -0.138855,-1.898053 -0.365251,-0.616177 -0.872528,-0.893293 -2.085251,-1.138739 -1.680155,-0.339992 -2.773794,-1.328762 -3.521201,-3.183501 -0.387135,-0.96067 -0.484485,-0.990478 -1.946093,-0.593976 m 28.240536,0.665545 c -0.404188,1.139981 -1.444851,2.367366 -2.308926,2.722882 -0.3488,0.143604 -1.011534,0.332695 -1.472625,0.420099 -1.439119,0.27308 -2.121324,0.929931 -2.121324,2.042899 0,1.030376 0.119235,1.102101 0.792384,0.476609 0.580326,-0.539329 0.643113,-0.560132 1.406669,-0.467915 0.717672,0.08678 0.809136,0.06412 0.897732,-0.22309 0.09282,-0.300404 0.120593,-0.304906 0.463054,-0.07421 0.343819,0.231784 0.364345,0.227903 0.364345,-0.06847 0,-0.255381 0.09856,-0.314065 0.528256,-0.314065 0.368873,0 0.528255,-0.07017 0.528255,-0.232871 0,-0.128079 0.131309,-0.232871 0.291748,-0.232871 0.160439,0 0.334763,-0.139567 0.387292,-0.310184 0.0527,-0.170461 0.25356,-0.350859 0.4466,-0.400693 0.24375,-0.06287 0.37974,-0.240789 0.44569,-0.582488 0.0522,-0.270596 0.24632,-0.610432 0.43151,-0.755278 0.26941,-0.210826 0.299,-0.302111 0.14792,-0.457979 -0.25342,-0.261592 -0.23802,-0.443076 0.0377,-0.443076 0.12572,0 0.22639,-0.138015 0.22639,-0.310495 0,-0.170772 0.0574,-0.310494 0.12754,-0.310494 0.0702,0 0.25054,0.139722 0.40072,0.310494 0.31348,0.356293 0.83011,0.414821 0.83011,0.09423 0,-0.118919 0.10143,-0.256313 0.22549,-0.305216 0.30368,-0.119851 0.0199,-0.778875 -0.43075,-1.000258 -0.27439,-0.134599 -1.88814,-0.496481 -2.2146,-0.496481 -0.058,0 -0.25205,0.413424 -0.43121,0.918909 m 8.51096,-0.203995 c 0.5441,0.431277 0.91644,0.552991 0.45279,0.147951 -0.24904,-0.217657 -0.52071,-0.393708 -0.60373,-0.391379 -0.083,0.0023 -0.0151,0.111778 0.15094,0.243428 m -27.746098,0.581712 c -0.06596,0.328969 -0.08331,0.635892 -0.03834,0.682001 0.136743,0.140654 0.265335,-0.373059 0.210246,-0.840043 -0.0483,-0.409853 -0.06007,-0.398986 -0.17191,0.158042 m -11.684408,0.268896 c -0.321632,0.125284 -0.479052,0.452701 -0.21749,0.452701 0.186549,0 0.717673,-0.430501 0.632246,-0.512627 -0.04135,-0.03974 -0.227904,-0.01273 -0.414756,0.05993 m 35.3555,0.297454 c 0.28571,0.324777 0.67919,0.417925 0.67919,0.160681 0,-0.170151 -0.49068,-0.471176 -0.76809,-0.471176 -0.11546,0 -0.0823,0.11597 0.0889,0.310495 m -35.393117,1.62932 c 0,0.132736 0.179154,0.311426 0.398304,0.397122 0.560102,0.219054 0.580327,0.105724 0.05267,-0.29559 -0.365553,-0.278048 -0.450979,-0.297144 -0.450979,-0.101532 m 35.355392,0.07669 c -0.70244,0.440592 -0.60553,0.522562 0.15093,0.127458 0.78906,-0.412026 0.81999,-0.4364 0.55346,-0.435624 -0.11773,3.11e-4 -0.43453,0.138947 -0.70439,0.308166 m -39.8159824,0.41746 c -0.503654,0.659025 -0.972896,1.391792 -0.972896,1.519405 0,0.04564 0.06792,0.08306 0.150931,0.08306 0.08301,0 0.15093,-0.102308 0.15093,-0.227438 0,-0.124974 0.137799,-0.303198 0.306086,-0.39588 0.168287,-0.09268 0.269109,-0.230077 0.22398,-0.305217 -0.04528,-0.07514 -0.0027,-0.187228 0.09448,-0.249016 0.11033,-0.07017 0.13629,-0.04518 0.06898,0.06676 -0.142327,0.237218 0.08965,0.228679 0.408266,-0.01475 0.190323,-0.145622 0.224886,-0.303509 0.138252,-0.632167 l -0.115462,-0.438263 -0.453545,0.59351 m 0.08362,0.205237 c 0,0.08539 0.06792,0.155247 0.150931,0.155247 0.08301,0 0.15093,-0.06986 0.15093,-0.155247 0,-0.08539 -0.06792,-0.155247 -0.15093,-0.155247 -0.08301,0 -0.150931,0.06986 -0.150931,0.155247 m 3.5381054,-0.01459 c 0.04649,0.07731 0.220358,0.104171 0.38623,0.05946 0.275599,-0.07405 0.378684,0.07436 0.319519,0.459688 -0.0098,0.06412 0.05011,0.116435 0.133121,0.116435 0.208283,0 0.189568,-0.3639 -0.03019,-0.58994 -0.20934,-0.215328 -0.935314,-0.256313 -0.808684,-0.04564 m -2.3255324,0.421962 c -0.258845,0.224177 -0.437395,0.441678 -0.396795,0.48344 0.103538,0.106499 1.146314,-0.574105 1.146314,-0.748292 0,-0.248551 -0.263976,-0.155247 -0.749519,0.264852 m 2.6361484,-0.09687 c -0.05132,0.08539 -0.02128,0.155247 0.06656,0.155247 0.08784,0 0.159835,-0.06986 0.159835,-0.155247 0,-0.08539 -0.02988,-0.155248 -0.06656,-0.155248 -0.03668,0 -0.108519,0.06986 -0.159835,0.155248 m 38.796443,-0.01226 c -0.0365,0.0607 0.13357,0.232095 0.37808,0.380666 0.24722,0.150124 0.44464,0.19732 0.44464,0.106189 0,-0.09035 0.1132,-0.164096 0.2516,-0.164096 0.3891,0 0.13342,-0.168598 -0.46683,-0.307855 -0.29763,-0.06909 -0.57097,-0.07576 -0.60749,-0.0149 m 3.9183,0.169996 c 0.0522,0.08678 0.15802,0.117677 0.2353,0.06846 0.20934,-0.133047 0.1704,-0.226195 -0.0948,-0.226195 -0.12934,0 -0.19258,0.07095 -0.14051,0.157731 M 5.4172506,41.754148 c 0,0.09035 0.06792,0.121248 0.15093,0.06846 0.08301,-0.05278 0.15093,-0.126682 0.15093,-0.164407 0,-0.03773 -0.06792,-0.06846 -0.15093,-0.06846 -0.08301,0 -0.15093,0.07405 -0.15093,0.164407 m 46.4134344,0.297453 c -0.11908,0.197941 0.12814,0.316084 0.3571,0.170462 0.15153,-0.09641 0.14278,-0.143604 -0.0401,-0.215794 -0.12889,-0.05092 -0.27152,-0.03043 -0.31695,0.04533 M 3.7300526,43.134605 c -1.566242,1.043417 -2.235768,1.715327 -1.709022,1.715327 0.508182,0 1.809803,-0.84113 2.583773,-1.669685 0.679639,-0.727489 0.961274,-1.135478 0.774725,-1.122127 -0.02083,0.0016 -0.763103,0.485924 -1.649516,1.076485 m 51.0152924,-0.81893 c 0.41521,0.798282 2.70799,2.534257 3.34688,2.534257 0.43619,0 -0.31031,-0.733078 -1.70838,-1.678068 -1.81448,-1.226454 -1.83742,-1.238252 -1.6385,-0.856189 m -3.14342,0.826537 c 0,0.08539 0.10595,0.155247 0.2353,0.155247 0.12935,0 0.19334,-0.06986 0.14203,-0.155247 -0.0513,-0.08539 -0.15712,-0.155248 -0.2353,-0.155248 -0.0782,0 -0.14203,0.06986 -0.14203,0.155248 m -44.7719184,1.45684 c -0.333404,0.296988 -0.39106,0.42693 -0.25326,0.571155 0.138553,0.144846 0.279824,0.10386 0.632548,-0.183347 0.249638,-0.203374 0.436792,-0.435313 0.415812,-0.515266 -0.07728,-0.294814 -0.374608,-0.247154 -0.7951,0.127458 M 46.621195,44.38419 c 0,0.08539 0.0679,0.155247 0.15093,0.155247 0.083,0 0.15093,-0.06986 0.15093,-0.155247 0,-0.08539 -0.0679,-0.155247 -0.15093,-0.155247 -0.083,0 -0.15093,0.06986 -0.15093,0.155247 m 6.1824,0.31686 c 0.64794,0.569602 1.00549,0.622541 0.74302,0.11007 -0.23182,-0.453012 -0.42607,-0.578296 -0.88822,-0.573483 -0.37053,0.0039 -0.36782,0.01226 0.1452,0.463413 M 13.416559,44.62622 c 0,0.133047 0.06898,0.198096 0.153345,0.144536 0.08437,-0.05372 0.114405,-0.162544 0.06656,-0.242031 -0.129347,-0.215328 -0.219905,-0.175274 -0.219905,0.0975 m 32.449976,-0.08678 c -0.19349,0.128545 -0.18805,0.150901 0.0377,0.152919 0.14519,0.0012 0.26412,-0.06753 0.26412,-0.152919 0,-0.189401 -0.017,-0.189401 -0.30186,0 M 9.4061536,44.862204 c -0.160137,0.06241 -0.444791,0.07731 -0.632699,0.03322 -0.187908,-0.04409 -0.452489,0.0149 -0.588024,0.131184 -0.135535,0.11628 -0.423208,0.293107 -0.639491,0.392931 -0.384117,0.177293 -0.379589,0.181639 0.19636,0.194059 0.579572,0.01242 0.584854,0.0177 0.316199,0.32307 -0.150176,0.170772 -0.205567,0.310494 -0.123159,0.310494 0.08256,0 0.227602,0.174654 0.322085,0.388119 0.106707,0.240943 0.296426,0.388118 0.500484,0.388118 0.308803,0 0.313482,0.01708 0.07833,0.284258 -0.48675,0.553301 0.273636,0.683398 1.071151,0.183191 0.5222184,-0.327571 0.6361714,-0.687279 0.2641284,-0.834143 -0.2565824,-0.101222 -0.3112184,-0.56479 -0.06656,-0.56479 0.08784,0 0.118329,-0.06909 0.06762,-0.153539 -0.05282,-0.08787 0.0077,-0.113952 0.142025,-0.06101 0.31152,0.123111 0.30171,-0.196853 -0.01147,-0.377251 -0.296427,-0.170616 -0.121499,-0.319498 0.698504,-0.594597 0.51271,-0.172014 0.501239,-0.176826 -0.388041,-0.167046 -0.503956,0.0057 -1.0473044,0.06132 -1.2074414,0.123732 m 39.1770904,-0.07529 c 1.12156,0.416995 1.34494,0.575036 1.2014,0.850756 -0.0928,0.178689 -0.0933,0.313599 -9e-4,0.372127 0.0795,0.05061 0.10655,0.194215 0.0601,0.319033 -0.0466,0.124975 -0.14082,0.19142 -0.2095,0.147796 -0.25295,-0.160836 -0.31514,0.261281 -0.0906,0.614003 0.24465,0.384082 1.54446,0.935986 1.67849,0.712585 0.0433,-0.07188 0.0356,-0.246378 -0.017,-0.387653 -0.0611,-0.163785 0.0183,-0.338904 0.2196,-0.483905 0.17342,-0.124974 0.28013,-0.321517 0.23711,-0.436711 -0.0497,-0.133202 0.0764,-0.249638 0.34593,-0.319654 l 0.42412,-0.11007 -0.45279,-0.258332 -0.4528,-0.258331 0.83012,-0.08228 0.83012,-0.08228 -0.67919,-0.214862 c -0.37355,-0.118143 -1.0867,-0.233026 -1.58477,-0.255382 -0.49807,-0.02235 -1.27913,-0.07902 -1.73569,-0.125905 -0.45657,-0.04688 -0.72824,-0.04735 -0.60372,-9.32e-4 M 8.5123766,45.469229 c -0.05283,0.08787 0.0077,0.113952 0.142025,0.06101 0.261411,-0.103239 0.309256,-0.214551 0.09222,-0.214551 -0.07818,0 -0.183531,0.06909 -0.234243,0.153539 m 35.4940864,0.06412 c -0.0853,0.228524 0.0124,0.403333 0.22504,0.403333 0.0691,0 0.12572,-0.139723 0.12572,-0.310495 0,-0.355982 -0.22986,-0.416839 -0.35076,-0.09284 M 9.1905146,46.712914 c 0,0.08539 0.06384,0.155248 0.142025,0.155248 0.07818,0 0.183984,-0.06986 0.2353,-0.155248 0.05132,-0.08539 -0.01268,-0.155247 -0.142025,-0.155247 -0.129347,0 -0.2353,0.06986 -0.2353,0.155247 m 1.8178024,0.608414 c -0.08527,0.163786 -0.35861,0.343873 -0.607342,0.400073 -0.5032024,0.113641 -0.7662734,0.388739 -0.37159,0.388739 0.169947,0 0.229413,0.09237 0.181267,0.281618 -0.05298,0.208032 0.01147,0.27898 0.246469,0.271683 0.284352,-0.0088 0.315444,0.06971 0.292804,0.739288 -0.02068,0.608569 0.01705,0.732301 0.200888,0.659801 0.124517,-0.04921 0.28888,-0.08942 0.3651,-0.08942 0.07622,0 0.138554,-0.06769 0.138554,-0.150434 0,-0.08259 -0.101878,-0.110071 -0.226395,-0.06101 -0.289937,0.114573 -0.289786,-0.110691 3.02e-4,-0.496325 0.189115,-0.25119 0.211453,-0.256158 0.13478,-0.02965 -0.05086,0.150279 -0.01856,0.271682 0.0723,0.271682 0.178852,0 0.264731,-0.323224 0.37159,-1.397225 0.05705,-0.573328 0.04105,-0.636048 -0.08905,-0.349307 -0.232734,0.512472 -0.362534,0.426154 -0.292201,-0.194059 0.06777,-0.596149 -0.164212,-0.732456 -0.417473,-0.245446 m 37.674725,-0.07405 c -0.0549,0.14702 -0.0998,0.401315 -0.0998,0.565101 0,0.371817 -0.27681,0.384858 -0.55392,0.02608 -0.18292,-0.236907 -0.19802,-0.152608 -0.11712,0.659801 0.0715,0.718484 0.17795,1.011281 0.46577,1.28079 0.46457,0.435003 1.04836,0.491824 0.79872,0.07762 -0.21507,-0.356758 0.0596,-1.125543 0.40238,-1.125543 0.21448,0 0.22006,-0.03602 0.0414,-0.261902 -0.18066,-0.228679 -0.17448,-0.249327 0.0497,-0.16301 0.15108,0.05822 0.39951,-0.0236 0.60372,-0.198716 l 0.34698,-0.297454 -0.62892,-0.0053 c -0.50245,-0.004 -0.68719,-0.0874 -0.91902,-0.414976 -0.25295,-0.357068 -0.30306,-0.375388 -0.38985,-0.142517 m 1.56047,-0.162854 c 0,0.03353 0.10535,0.102618 0.23424,0.15354 0.13433,0.05294 0.19485,0.02686 0.14203,-0.06101 -0.0886,-0.14764 -0.37627,-0.218277 -0.37627,-0.09253 M 11.0959,47.417567 c -0.05177,0.138636 -0.0898,0.333781 -0.08467,0.433605 0.0053,0.09967 0.07471,0.01397 0.154251,-0.190488 0.07954,-0.204616 0.117574,-0.399607 0.08452,-0.433606 -0.03305,-0.034 -0.102482,0.0517 -0.1541,0.190489 m 41.411604,-0.199804 c 0,0.02142 0.51829,0.562927 1.1516,1.203167 0.63345,0.64024 1.07704,1.015472 0.98572,0.833988 -0.2439,-0.485613 -1.74128,-2.076277 -1.95424,-2.076277 -0.10067,0 -0.18308,0.01754 -0.18308,0.03912 m -40.570816,1.125233 c 0.003,0.256158 0.03683,0.342165 0.07516,0.191109 0.03834,-0.151055 0.03577,-0.360639 -0.0056,-0.465742 -0.04135,-0.105102 -0.0726,0.01847 -0.06958,0.274633 m 3.690393,0.55594 0.09825,0.996533 -0.335518,-0.306303 -0.335668,-0.306303 0.111537,0.457048 c 0.108821,0.446336 1.045644,1.630407 1.29,1.630407 0.06762,0 0.0815,-0.226972 0.03094,-0.504554 -0.09795,-0.537155 -0.794798,-2.789017 -0.896978,-2.898311 -0.03336,-0.03571 -0.0166,0.38346 0.03743,0.931483 m 28.68865,-0.497723 c -0.0602,0.288139 -0.28556,0.927448 -0.50064,1.420668 -0.40464,0.927448 -0.43241,1.395674 -0.0895,1.51304 0.14791,0.05061 0.17719,-0.06474 0.11501,-0.452856 -0.0503,-0.313599 0.006,-0.706065 0.14082,-0.986596 l 0.22428,-0.465742 -0.0539,0.465742 c -0.0296,0.256158 -0.11003,0.605464 -0.17886,0.776236 -0.10927,0.271528 -0.0945,0.284879 0.11864,0.10681 0.25099,-0.209739 0.4961,-1.796366 0.38955,-2.521371 -0.0495,-0.337042 -0.0682,-0.320896 -0.16542,0.144069 m 4.56941,-0.309407 c 0,0.08539 0.0679,0.198406 0.15093,0.25119 0.083,0.05278 0.15093,0.02608 0.15093,-0.0593 0,-0.08539 -0.0679,-0.198406 -0.15093,-0.25119 -0.083,-0.05278 -0.15093,-0.02608 -0.15093,0.05931 M 13.01383,48.80859 c -0.09705,0.426775 -0.149873,0.80325 -0.117423,0.836473 0.117725,0.121248 0.382456,-0.828555 0.338687,-1.215276 -0.03381,-0.298696 -0.08875,-0.204771 -0.221264,0.378803 m 32.964095,-0.07747 c -0.11048,0.416839 0.0161,1.552473 0.17312,1.552473 0.0522,0 0.0743,-0.331764 0.0487,-0.737425 -0.0687,-1.097288 -0.10837,-1.243375 -0.22187,-0.815048 m -32.186758,0.260971 c -0.05841,0.271527 -0.234545,0.635427 -0.391361,0.808528 -0.39423,0.435158 -0.365704,0.48375 0.280881,0.478006 0.502597,-0.0043 0.536405,-0.02794 0.302313,-0.210826 -0.221566,-0.172945 -0.237414,-0.283637 -0.09961,-0.690385 0.09026,-0.266404 0.130403,-0.573328 0.0892,-0.681846 -0.0412,-0.108518 -0.122857,0.02484 -0.181418,0.296523 m 0.778196,-0.0281 c -0.04769,0.128079 -0.02098,0.232871 0.05932,0.232871 0.08045,0 0.146251,-0.104792 0.146251,-0.232871 0,-0.128079 -0.02671,-0.232871 -0.05931,-0.232871 -0.0326,0 -0.09841,0.104792 -0.146252,0.232871 m 31.946168,0.42693 c 0.0112,0.405661 0.0696,0.737425 0.1295,0.737425 0.21447,0 0.22564,-0.242031 0.0392,-0.853861 l -0.18911,-0.620989 0.0204,0.737425 m -34.611292,0.04254 c -0.105048,0.130097 -0.152742,0.275874 -0.106255,0.323846 0.04664,0.04797 0.16059,-0.05853 0.253261,-0.236597 0.197718,-0.380046 0.124366,-0.423515 -0.147006,-0.08725 M 48.432305,49.3355 c 0,0.07623 0.11153,0.18257 0.24767,0.236441 0.20723,0.08182 0.21659,0.05899 0.057,-0.138636 -0.21733,-0.269354 -0.30472,-0.297453 -0.30472,-0.0978 M 8.7753606,50.223053 c -0.435886,0.300559 -0.792383,0.584817 -0.792383,0.631857 0,0.04689 0.169796,-0.02748 0.377325,-0.165339 0.207529,-0.137859 0.54033,-0.358931 0.739558,-0.491357 0.287069,-0.190489 0.376721,-0.198561 0.432113,-0.03881 0.03849,0.111002 0.104594,0.166891 0.147157,0.124198 0.04241,-0.04269 0.03471,-0.196698 -0.01721,-0.34232 -0.08226,-0.231319 -0.194398,-0.195612 -0.886564,0.281773 M 15.836624,49.82702 c -0.0029,0.133046 0.09448,0.377561 0.216283,0.543365 0.283748,0.385945 0.287069,0.110691 0.0048,-0.397278 -0.138252,-0.248706 -0.217641,-0.301179 -0.221112,-0.146087 m 34.55772,0.205547 c 0,0.118143 0.11893,0.249948 0.26413,0.292952 0.14519,0.043 0.39996,0.127147 0.56598,0.186917 0.23364,0.0843 0.20602,0.01801 -0.12165,-0.292796 -0.47135,-0.447267 -0.70846,-0.509832 -0.70846,-0.187073 m -5.58442,0.154471 c 0,0.249327 0.16588,0.319499 0.60372,0.255382 0.30805,-0.04502 0.35092,-0.10681 0.22263,-0.320275 -0.082,-0.136463 -0.13977,-0.131805 -0.23002,0.01847 -0.0984,0.163786 -0.16421,0.16332 -0.35846,-0.0025 -0.19998,-0.170617 -0.23787,-0.162854 -0.23787,0.0489 M 9.7941056,50.900066 c -1.110996,0.365607 -1.831537,0.789898 -1.782937,1.050092 0.07924,0.422894 0.478599,0.402091 0.95252,-0.04983 0.42351,-0.403643 0.464865,-0.410784 1.8067844,-0.309408 1.317621,0.09951 1.387048,0.08865 1.713359,-0.268578 l 0.340046,-0.372283 -0.933352,-0.100445 c -1.13907,-0.122334 -1.60484,-0.111157 -2.0964204,0.05046 m 37.6972194,0.459842 c 0.48282,0.453633 0.48962,0.454875 1.72317,0.326951 0.6813,-0.07064 1.32818,-0.09299 1.43746,-0.04983 0.10942,0.04316 0.29778,-0.0057 0.41837,-0.108829 0.12075,-0.102929 0.30654,-0.153694 0.4131,-0.112709 0.11954,0.04611 0.0552,0.130563 -0.16814,0.220761 l -0.36178,0.145933 0.46276,0.33906 0.46275,0.338905 0.10308,-0.482664 c 0.0566,-0.265473 0.0451,-0.53995 -0.0255,-0.609967 -0.23953,-0.237373 -1.91289,-0.462947 -3.43487,-0.462947 h -1.51519 l 0.48479,0.45534 m -34.726008,0.133823 c -0.269561,0.306303 -0.253562,0.31686 1.207743,0.811323 0.81457,0.275564 2.042085,0.736803 2.727912,1.025098 0.685826,0.288294 1.277925,0.524114 1.315809,0.524114 0.134176,0 -0.132517,-0.546315 -0.36495,-0.747515 -0.509389,-0.440903 -3.402418,-1.783015 -3.990593,-1.851169 -0.489315,-0.05682 -0.681449,-0.0057 -0.895921,0.238149 m 32.723768,-0.01118 c -1.33105,0.554388 -3.244998,1.767956 -3.244998,2.057492 0,0.258642 0.130253,0.23225 1.320638,-0.268578 0.72643,-0.305682 1.92421,-0.742082 2.66195,-0.96983 l 1.34132,-0.414199 -0.45898,-0.336111 c -0.54048,-0.39588 -0.80747,-0.407213 -1.61993,-0.06877 M 8.9262576,52.326622 c -0.269712,0.346357 -0.490523,0.72159 -0.490523,0.833833 0,0.187694 0.447659,0.3861 1.331657,0.589785 0.2423944,0.05589 0.4289434,-0.02127 0.6037204,-0.249793 0.139309,-0.181795 0.473921,-0.567895 0.743633,-0.857741 0.269712,-0.290002 0.490523,-0.549421 0.490523,-0.576434 0,-0.08135 -1.498736,-0.3861 -1.8562904,-0.377406 -0.201341,0.0048 -0.525539,0.256158 -0.82272,0.637756 M 49.337805,51.939435 c -1.09062,0.176672 -1.07523,0.15649 -0.54018,0.710878 0.2682,0.277892 0.55814,0.636824 0.64432,0.797505 0.14233,0.265628 0.22383,0.275719 0.89547,0.11007 1.08111,-0.26687 1.14797,-0.331763 0.94844,-0.920461 -0.2519,-0.743324 -0.69292,-0.901366 -1.94805,-0.697992 m -7.371602,0.517595 c 0,0.213465 0.03426,0.300869 0.07607,0.194059 0.04196,-0.106655 0.04196,-0.281308 0,-0.388118 -0.04181,-0.106655 -0.07607,-0.01941 -0.07607,0.194059 m -30.141806,0.382063 c -0.154704,0.295436 -0.247979,0.57131 -0.207378,0.613072 0.04045,0.04176 0.852604,0.251501 1.80452,0.466208 0.951917,0.214551 2.205995,0.532498 2.786775,0.706375 1.338599,0.400848 1.52047,0.398519 1.52047,-0.0191 0,-0.259728 -0.205265,-0.430811 -0.910864,-0.759314 -0.912523,-0.424602 -4.200385,-1.544555 -4.534545,-1.544555 -0.09765,0 -0.304275,0.24172 -0.458978,0.53731 m 6.743106,-0.265628 c 0.24994,0.328038 0.622285,0.648158 0.761442,0.654833 0.05584,0.0028 -0.102179,-0.204616 -0.351214,-0.460774 -0.495806,-0.509987 -0.738803,-0.62487 -0.410228,-0.194059 m 27.600892,0.2633 c -0.87162,0.279134 -2.09415,0.711032 -2.71674,0.959583 -1.009419,0.403177 -1.137407,0.500362 -1.181781,0.89733 -0.03773,0.337662 0.0032,0.424446 0.169495,0.358776 0.580476,-0.229145 2.460916,-0.761177 3.955426,-1.119178 2.23844,-0.536224 2.08102,-0.440591 1.78309,-1.08316 -0.13991,-0.301645 -0.29265,-0.542124 -0.33944,-0.534516 -0.0469,0.0076 -0.79842,0.24203 -1.67005,0.521165 m -34.916476,1.242444 c -0.09312,0.249482 0.237564,0.370109 1.938245,0.706996 0.498069,0.09858 1.848894,0.420254 3.001698,0.714758 1.152956,0.29466 2.124342,0.506572 2.158603,0.471331 0.162854,-0.167356 -1.457834,-0.764282 -3.575535,-1.316807 -3.135725,-0.818154 -3.4157,-0.863951 -3.523011,-0.576278 m 35.595666,0.106655 c -0.58108,0.163786 -1.80769,0.509832 -2.72595,0.768939 -0.98587,0.278204 -1.851006,0.622387 -2.113021,0.84082 l -0.443584,0.369644 0.679186,-0.236908 c 0.373552,-0.130252 1.967529,-0.549109 3.542029,-0.930707 1.57465,-0.381443 2.88895,-0.720348 2.9205,-0.75295 0.0317,-0.0326 0.013,-0.133823 -0.0418,-0.224798 -0.13538,-0.225419 -0.57082,-0.185675 -1.81735,0.16596 m -19.017198,2.920046 c -0.805665,0.339215 -1.107525,1.404833 -0.337781,1.19261 0.185795,-0.05123 1.475342,-0.09408 2.865861,-0.09517 2.784812,-0.0023 2.954156,-0.07157 2.063668,-0.842217 -0.447659,-0.387497 -0.532783,-0.401624 -2.37715,-0.392154 -1.051983,0.0054 -2.048574,0.06707 -2.214598,0.136928 m -8.060424,2.270336 c -0.947086,0.4423 -0.942257,0.641016 0.0088,0.36095 0.704542,-0.20741 1.033419,-0.405816 1.033419,-0.623473 0,-0.196077 -0.130253,-0.16332 -1.042173,0.262523 m 19.45565,-0.111157 c 0,0.18847 1.136504,0.542589 1.407273,0.438574 0.09765,-0.03757 -0.01223,-0.145933 -0.244205,-0.240789 -0.73337,-0.299938 -1.163068,-0.373059 -1.163068,-0.197785 m -12.376327,0.333316 c 0,0.402867 0.517841,0.931484 0.912674,0.931484 0.281938,0 0.266543,-0.05418 -0.176135,-0.620989 -0.539576,-0.69054 -0.736539,-0.773598 -0.736539,-0.310495 m 5.652635,0.255537 c -0.414907,0.460619 -0.468185,0.675947 -0.167079,0.675947 0.231526,0 0.611719,-0.413113 0.750424,-0.815048 0.138252,-0.401315 -0.160589,-0.330056 -0.583345,0.139101 M 20.246148,61.25706 c -0.518898,0.396967 -0.921278,0.744566 -0.89411,0.772355 0.02702,0.02779 0.61021,-0.18226 1.296188,-0.466828 1.161558,-0.482043 1.229778,-0.535138 0.99644,-0.77515 -0.137648,-0.141586 -0.296426,-0.256313 -0.352723,-0.254916 -0.05645,0.0016 -0.527048,0.327572 -1.045795,0.724539 m 18.166555,-0.371196 c -0.236205,0.177758 -0.122857,0.2574 0.983763,0.691937 0.68794,0.27013 1.274001,0.467294 1.302225,0.438263 0.06128,-0.06288 -1.762562,-1.330935 -1.914247,-1.330935 -0.05765,0 -0.225036,0.09035 -0.371741,0.200735 m -13.743698,2.478685 c -0.175985,0.596926 -0.184135,0.90121 -0.02989,1.104584 0.09494,0.125285 1.063605,0.690385 2.152566,1.25564 1.088961,0.565256 2.254444,1.269458 2.589811,1.564738 0.335517,0.295435 0.66379,0.537 0.729596,0.537 0.06596,0 0.326764,-0.20415 0.579723,-0.453788 0.549234,-0.541657 2.753418,-1.86778 3.765103,-2.265213 0.738199,-0.290002 1.204573,-0.794555 1.089866,-1.179103 -0.232734,-0.779962 -0.179606,-0.776392 -1.188876,-0.08026 -1.389614,0.958497 -3.279863,1.558838 -4.597332,1.460256 C 28.630765,65.223793 27.060035,64.622055 25.59888,63.714324 25.01146,63.349338 24.707185,63.23492 24.669,63.364552 m -7.673138,1.46569 c -0.453545,0.870626 -0.235602,1.927239 0.551801,2.673979 0.476788,0.452235 0.519048,0.23846 0.154703,-0.783688 -0.13312,-0.373681 -0.288276,-1.0636 -0.344875,-1.533223 l -0.102633,-0.85386 -0.258996,0.496792 m 1.803012,1.357016 c -0.212359,0.569137 -0.09116,1.595942 0.278315,2.358672 0.372948,0.769871 1.05802,1.581194 1.206233,1.428741 0.04181,-0.04316 -0.08739,-0.56153 -0.28722,-1.15209 -0.199831,-0.590564 -0.435584,-1.354536 -0.524029,-1.697632 -0.08829,-0.343252 -0.253563,-0.754657 -0.367062,-0.914407 -0.191832,-0.269975 -0.213566,-0.271683 -0.306237,-0.02329 m 21.972259,0.352567 c -0.427882,1.186399 -1.042922,3.460151 -0.935913,3.460151 0.266995,0 1.176651,-1.294762 1.345542,-1.915286 0.336575,-1.236389 -0.02687,-2.606446 -0.409624,-1.544865"
     stroke="none"
     fill="#000000"
     fill-rule="evenodd"
     id="path1"
     style="stroke-width:0.153073" />
</svg>
