<?xml version="1.0" encoding="UTF-8" standalone="no"?>
<svg
   width="50"
   height="60"
   viewBox="0 0 59.999908 70.000008"
   version="1.1"
   id="svg1"
   xmlns="http://www.w3.org/2000/svg"
   xmlns:svg="http://www.w3.org/2000/svg">
  <defs
     id="defs1" />
  <path
     d="m 28.498949,0.14185794 c -1.235815,0.161253 -3.494408,0.797209 -4.55001,1.28141496 -2.150043,0.98593 -3.877422,2.466757 -4.952525,4.245739 -0.817051,1.35224 -1.089077,2.233045 -0.860439,2.786591 0.155188,0.375664 0.09214,0.53558 -0.615389,1.5595241 -2.499581,3.61706 -2.951332,8.475294 -1.121903,12.066667 0.875715,1.718846 2.671182,3.287426 3.763347,3.287426 0.562251,0 0.589064,-0.273655 0.13065,-1.336352 -0.375701,-0.870707 -0.412913,-1.46672 -0.11505,-1.83882 0.199063,-0.249007 0.282913,-0.243514 1.645641,0.107205 2.092192,0.538401 2.051405,0.46015 1.423341,2.731949 -0.451589,1.633914 -0.599464,1.96429 -1.072503,2.397268 l -0.548601,0.502171 -1.650679,-0.158432 c -2.626818,-0.252273 -4.152209,0.08464 -6.366927,1.406288 -3.06622,1.829913 -5.2005004,4.992019 -7.6997564,11.408292 -0.932427,2.393555 -1.111177,3.011247 -1.179265,4.074686 -0.07134,1.113627 -0.14365,1.344222 -0.648214,2.064813 -1.291065,1.844315 -1.556754,3.84231 -0.609864,4.586658 0.298676,0.234605 0.593939,0.338245 0.841102,0.295037 0.209301,-0.03653 0.380738,-0.04009 0.380738,-0.0078 0,0.03222 -0.19435,0.407142 -0.432088,0.833142 -0.601089,1.077842 -2.661594,6.223393 -3.47572102,8.680053 -0.822902,2.482943 -0.980202,3.624187 -0.558513,4.04989 0.160387,0.161995 0.366763,0.294592 0.458413,0.294592 0.09165,0 0.76342702,-0.366606 1.49272902,-0.814581 1.317878,-0.809533 2.799394,-1.499388 2.941419,-1.369613 0.04079,0.03727 -0.138775,0.560674 -0.398938,1.163072 -0.260326,0.602397 -0.604664,1.609414 -0.765377,2.237647 -0.326789,1.278296 -0.217913,1.604662 0.534951,1.604662 0.456464,0 2.765269,-1.182968 5.36105,-2.746945 l 1.7252674,-1.039386 2.489668,-0.05048 c 1.369228,-0.02777 2.487718,0.0056 2.485118,0.07425 -0.0024,0.0686 -0.22295,0.320576 -0.489938,0.56008 -0.476614,0.427483 -0.968015,1.579122 -0.968015,2.269126 0,0.458666 0.425426,1.378819 0.637489,1.378819 0.09165,0 0.274625,-0.190653 0.406576,-0.423773 0.131788,-0.23312 0.651464,-0.76766 1.154727,-1.187868 0.826965,-0.690598 0.98784,-0.764246 1.673754,-0.765136 0.417301,-5.95e-4 1.246053,-0.04306 1.841617,-0.09458 l 1.082903,-0.09339 0.404463,0.729351 c 0.222463,0.401055 0.563714,1.20836 0.758227,1.793832 0.427701,1.286164 0.654552,1.508295 1.204615,1.178959 0.594427,-0.355767 0.949978,-1.372879 0.884815,-2.530755 -0.03055,-0.540628 -0.03234,-0.982812 -0.0041,-0.982664 0.285839,0.0018 0.776427,0.463121 1.342254,1.262556 0.375538,0.53068 0.786176,0.964995 0.912277,0.964995 0.547138,0 0.886764,-1.613126 0.643014,-3.053417 l -0.127401,-0.75192 1.595592,-0.250937 c 2.195047,-0.345373 4.881667,-0.594232 5.202117,-0.48183 0.22458,0.07869 0.18899,0.167193 -0.22912,0.57092 -0.27219,0.262816 -0.58273,0.634173 -0.6903,0.825123 -0.2951,0.524296 -0.25952,1.879505 0.0611,2.32644 0.31915,0.445155 0.51837,0.382643 0.66007,-0.206837 0.14219,-0.59141 0.67763,-1.003006 1.73843,-1.336501 0.49839,-0.156799 1.18967,-0.455547 1.53596,-0.66387 0.44021,-0.264895 0.89716,-0.391996 1.51873,-0.422732 l 0.88887,-0.04381 0.533,0.722076 c 0.46248,0.626749 0.53284,0.84591 0.53284,1.659898 0,1.285422 0.44493,1.697316 1.26604,1.171832 0.64724,-0.414269 1.06471,-1.373473 1.07803,-2.4773 0.007,-0.551171 0.0621,-1.002265 0.12301,-1.002265 0.26455,0 0.82209,0.957126 0.89067,1.528937 0.13276,1.105905 0.2093,1.292252 0.53089,1.292252 0.35896,0 1.10289,-0.757414 1.41732,-1.442963 0.26147,-0.570326 0.28536,-2.11901 0.0448,-2.910725 -0.19825,-0.651991 -1.11767,-1.64594 -1.83755,-1.985968 -0.3809,-0.179961 -0.78861,-0.213222 -1.79969,-0.146701 -1.53482,0.100975 -1.85706,-4.46e-4 -2.94678,-0.927577 l -0.77318,-0.657783 0.55413,-0.381602 c 2.48105,-1.707858 5.1095,-4.289394 6.92365,-6.799658 l 1.21518,-1.681428 0.77464,0.09383 c 0.8307,0.100672 1.51369,-0.119974 2.27419,-0.734993 0.24863,-0.201047 0.35588,-0.235347 0.29364,-0.09399 -0.054,0.122499 -0.29413,0.65407 -0.53349,1.181187 -0.23953,0.527266 -0.47255,1.212071 -0.51805,1.521958 -0.0752,0.512267 -0.0484,0.563494 0.29477,0.563494 0.62823,0 2.60537,-1.175693 3.73881,-2.223244 1.24914,-1.15446 2.99423,-3.487138 3.79796,-5.076802 1.29838,-2.567727 1.91523,-4.950443 1.93522,-7.47407 0.0431,-5.469394 -2.62958,-10.308178 -6.6617,-12.060432 -0.67991,-0.295631 -1.53856,-0.540332 -2.07188,-0.59052 -0.50083,-0.04737 -0.91066,-0.104685 -0.91066,-0.127695 0,-0.02302 0.16137,-0.631649 0.35864,-1.352685 0.48214,-1.762946 0.51578,-5.15743 0.0694,-7.027581 -0.71988,-3.015998 -2.22983,-6.09629 -4.29294,-8.7575621 -1.33997,-1.728558 -4.88833,-5.030981 -6.53511,-6.082245 -3.5651,-2.27580796 -7.47469,-3.18571496 -11.456275,-2.66646896 m 0.487501,1.70177096 c -0.17875,0.03741 -0.714676,0.140317 -1.191127,0.228368 -2.067655,0.382791 -3.982397,1.365307 -5.874389,3.014217 l -1.005065,0.876054 1.547816,1.425442 c 1.441541,1.327888 1.581454,1.51082 2.040842,2.6694371 0.559652,1.412079 1.363054,2.447158 2.762507,3.559301 0.590364,0.469208 1.462341,1.442369 2.279555,2.544118 1.458275,1.965922 2.117055,3.131222 2.119485,3.748467 10e-4,0.27128 0.14122,0.488512 0.42446,0.65808 0.2327,0.139278 0.58565,0.491629 0.78438,0.782954 0.79691,1.168268 2.19799,4.710048 2.20286,5.568431 0.004,0.65808 -0.59703,1.656929 -1.48347,2.467056 -0.89635,0.818886 -3.686151,2.164444 -4.770354,2.300604 l -0.650002,0.08167 -0.640576,-1.050819 c -1.120278,-1.838078 -3.085232,-3.258027 -4.518811,-3.265748 -0.784714,-0.0042 -0.788289,0.230002 -0.0057,0.364083 0.889527,0.152492 1.473391,0.471732 2.500393,1.366642 1.065353,0.928617 1.621754,1.940681 2.002492,3.642302 0.483927,2.163852 0.245863,5.501763 -0.627901,8.803741 -0.369851,1.397973 -0.731414,2.390141 -1.795954,4.928468 -0.313463,0.747614 -0.414051,1.192917 -0.335564,1.484835 0.06175,0.229407 0.602714,0.857493 1.202178,1.395598 0.916177,0.822598 1.308778,1.055718 2.463181,1.462563 0.755302,0.266083 1.612816,0.519395 1.90548,0.562753 0.806168,0.11953 0.698748,-0.276328 -0.531377,-1.957311 -1.829754,-2.500761 -2.110555,-3.208731 -1.359153,-3.426555 0.513989,-0.149078 0.88124,0.04825 1.460066,0.784735 0.860765,1.095364 2.948402,2.907012 4.304962,3.736144 0.67909,0.415012 1.28343,0.754593 1.34306,0.754445 0.0595,0 0.72979,-0.3378 1.48948,-0.750585 4.10996,-2.233192 7.9817,-5.919 9.77863,-9.309029 0.60612,-1.143621 0.94168,-1.443855 1.19486,-1.069528 0.16494,0.243811 -0.23628,1.578678 -0.89976,2.993579 -1.07478,2.292734 -3.22889,4.941681 -5.32628,6.550055 -0.51513,0.395115 -0.57021,0.694756 -0.1274,0.694756 0.11733,0 0.78829,-0.342998 1.4911,-0.762315 3.30071,-1.968744 5.55752,-4.857196 6.69274,-8.566019 0.40691,-1.329225 0.43892,-1.636735 0.42689,-4.109432 -0.0115,-2.394743 -0.0574,-2.824158 -0.44005,-4.129477 -0.23481,-0.801217 -0.64951,-1.83199 -0.92137,-2.290655 -0.57119,-0.963807 -0.58744,-1.126843 -0.22799,-2.297636 0.14657,-0.477078 0.22214,-0.907978 0.16802,-0.957422 -0.0541,-0.04959 -0.35945,0.11938 -0.67827,0.375218 -0.69014,0.553547 -0.79756,0.566464 -1.12808,0.13512 -0.35312,-0.460448 -0.31737,-0.966332 0.16217,-2.300901 0.63782,-1.774528 0.87247,-2.809607 0.98589,-4.347749 0.25172,-3.418389 -0.97256,-7.445413 -3.08702,-10.152862 -0.91276,-1.1687141 -2.72123,-2.7245261 -3.76318,-3.2370911 -1.08095,-0.531869 -2.95637,-0.992465 -4.45657,-1.094621 -1.65182,-0.112397 -1.76492,-0.02717 -1.39393,1.050373 0.73613,2.138609 -0.39894,4.5283041 -2.47196,5.2042011 -0.82956,0.270537 -2.562466,0.261332 -3.596131,-0.01916 -2.368118,-0.642636 -3.590283,-3.4844631 -2.18433,-5.0787321 0.707689,-0.802405 2.714894,-1.996213 4.033261,-2.398753 1.39344,-0.425702 3.86166,-0.567207 5.60626,-0.321466 1.13978,0.160659 3.46971,0.826459 4.95626,1.416682 l 0.65,0.257916 -0.4875,-0.474406 c -1.70316,-1.657373 -4.46567,-3.172797 -7.31251,-4.011135 -1.36224,-0.401054 -1.9271,-0.486433 -3.49376,-0.527711 -1.027816,-0.02717 -2.015006,-0.01871 -2.193757,0.01871 m 2.275007,4.954601 c -0.692578,0.152641 -1.163017,0.407439 -1.454217,0.787111 -0.369364,0.481978 -0.319963,0.539886 0.386913,0.453173 l 0.639114,-0.07825 0.05151,0.574929 c 0.047,0.521622 0.0982,0.579234 0.55299,0.61977 0.62205,0.05553 0.93357,-0.256579 0.94949,-0.950443 0.009,-0.418724 0.0694,-0.506923 0.32045,-0.472772 0.48117,0.06578 0.95437,0.764245 0.95437,1.409258 0,1.9541921 -2.68906,2.9898651 -4.334863,1.6695491 -0.966065,-0.775084 -1.285541,-0.394372 -0.422826,0.503508 0.668364,0.695497 1.258403,0.886596 2.511929,0.81369 0.87474,-0.05092 1.15538,-0.137645 1.66726,-0.515684 0.96151,-0.710196 1.26685,-1.302201 1.25661,-2.4372091 -0.011,-1.230484 -0.43599,-1.932069 -1.37881,-2.276848 -0.69567,-0.254352 -0.93552,-0.268458 -1.69992,-0.09979 M 18.28441,11.36975 c -1.428541,2.602769 -1.822116,4.226288 -1.551878,6.400533 0.1976,1.588775 0.960539,3.715356 1.700566,4.740636 0.309563,0.428671 0.588252,0.779539 0.619127,0.779539 0.03104,0 0.0598,-0.350868 0.06403,-0.779539 0.01755,-1.806452 0.803727,-2.841976 2.855619,-3.761535 0.819164,-0.3672 1.781979,-0.849177 2.13948,-1.071161 0.854427,-0.53068 1.422366,-1.56962 1.439266,-2.632911 0.01983,-1.260625 -0.532189,-1.846245 -2.691494,-2.854894 -1.05479,-0.492668 -2.124367,-1.130553 -2.716356,-1.620104 L 19.166305,9.7628599 18.284415,11.36975 m 24.153572,5.615798 c -0.4186,2.80441 -2.40175,5.422917 -5.52972,7.30064 -1.30748,0.784885 -1.51516,1.046958 -1.19503,1.508743 0.21417,0.308697 1.00051,0.01559 2.78639,-1.038644 4.17496,-2.464679 5.72213,-5.50978 4.35469,-8.571511 l -0.22246,-0.498163 -0.19387,1.298935 m -18.462808,1.839859 c -0.766515,0.372248 -0.784065,0.396155 -0.703465,0.956532 0.101238,0.703366 0.246351,0.841902 0.71094,0.678866 0.25415,-0.08909 0.435663,-0.36705 0.621889,-0.952521 0.144625,-0.454657 0.239038,-0.880211 0.20995,-0.945692 -0.02925,-0.06549 -0.406901,0.05271 -0.839314,0.262815 m 18.438598,9.957162 c -0.93015,1.304873 -2.66566,2.996398 -3.74238,3.647499 -0.80081,0.484205 -0.73077,0.493857 -3.67251,-0.508705 -2.09528,-0.714057 -2.73001,-0.780726 -2.65201,-0.278703 0.0395,0.253906 0.676,0.6805 2.65201,1.777496 1.52701,0.847694 2.77843,1.445043 3.03225,1.447716 0.79219,0.0078 3.28852,-2.123167 4.479,-3.82375 0.83363,-1.190838 1.40839,-2.682653 1.19698,-3.106574 -0.0934,-0.187534 -0.23254,-0.341066 -0.30891,-0.341066 -0.0764,0 -0.51935,0.53365 -0.98443,1.186087 m 10.20795,3.105534 c 0.41632,0.710643 2.99764,1.294925 4.35062,0.984594 0.60532,-0.138832 0.27966,-0.285236 -1.17341,-0.527413 -0.62563,-0.104241 -1.53969,-0.311816 -2.03126,-0.461042 -1.17699,-0.357399 -1.3572,-0.356806 -1.14595,0.0038 m -8.48398,1.306997 c -1.45341,1.885445 -4.60023,4.646794 -5.2954,4.646794 -0.14918,0 -1.34437,-0.534541 -2.65591,-1.187869 -1.31154,-0.653328 -2.49146,-1.187868 -2.62178,-1.187868 -0.50879,0 -0.442,0.478265 0.1365,0.976725 0.99564,0.857938 4.81667,3.329298 5.14769,3.329298 0.72962,0 3.56542,-2.244626 4.9548,-3.921896 1.3663,-1.649504 2.08228,-3.556331 1.41082,-3.757377 -0.10156,-0.03044 -0.58597,0.465644 -1.07672,1.102193 m -21.976398,1.171544 c -2.052379,1.689744 -5.349187,2.276551 -7.439105,1.323881 -0.597676,-0.272468 -0.604663,-0.272765 -0.604663,-0.0294 0,0.255985 0.747989,0.88808 1.462503,1.235829 0.440051,0.214114 0.917965,0.276773 2.112505,0.276773 1.372641,0 1.642879,-0.04633 2.437506,-0.417981 1.05219,-0.491926 2.336105,-1.583727 2.775669,-2.360147 0.534626,-0.944653 0.375213,-0.950741 -0.744415,-0.02896 m 0.605802,3.35276 c -2.441893,3.770889 -4.888337,5.490627 -7.862906,5.527004 -1.064865,0.01292 -1.318853,-0.03505 -1.759554,-0.332009 -0.640902,-0.431938 -0.729627,-0.367645 -0.327438,0.236683 0.441676,0.663573 1.40254,1.19663 2.488043,1.379858 2.297105,0.388137 5.000624,-1.020824 6.858328,-3.573851 0.89034,-1.22395 1.344041,-2.171276 1.629067,-3.401611 0.369038,-1.593229 0.08271,-1.547495 -1.02554,0.163926 m 23.233496,-1.045471 c -1.30666,2.197113 -4.57276,5.153717 -7.31609,6.623112 l -0.70184,0.37596 -1.81692,-1.123872 c -0.99937,-0.618137 -2.60862,-1.700138 -3.57614,-2.404543 -0.98037,-0.713762 -1.87965,-1.259884 -2.031263,-1.233602 -0.160063,0.02777 -0.293476,0.21738 -0.324188,0.460893 -0.04518,0.35829 0.248788,0.688519 2.193761,2.465273 2.09837,1.916626 5.10576,4.17135 5.56385,4.17135 0.43469,0 3.21816,-1.90846 4.64426,-3.184083 2.18969,-1.958795 3.59077,-3.827462 4.14977,-5.534577 0.16559,-0.505587 0.16527,-0.670255 -10e-4,-0.853781 -0.30323,-0.333939 -0.4745,-0.28197 -0.78374,0.23787 m 7.54441,0.988307 c -0.0437,0.06445 -0.0175,0.572107 0.0579,1.128179 0.32386,2.385686 -0.60889,6.635583 -1.90175,8.665799 -0.53088,0.833735 -0.15015,0.862541 0.65374,0.04944 1.09834,-1.110805 2.06766,-3.387802 2.31385,-5.435093 0.1287,-1.070566 -0.16185,-3.01793 -0.58094,-3.894576 -0.30518,-0.637886 -0.39878,-0.726679 -0.54275,-0.513754 M 21.55492,45.006911 c -0.423313,0.755039 -1.154565,1.840007 -1.625003,2.411076 -1.220541,1.481569 -3.994422,4.067708 -5.904939,5.505623 -2.106168,1.585062 -2.357718,1.858568 -1.228991,1.335907 1.371991,-0.635213 1.156191,-0.333643 -0.371313,0.519395 -0.766677,0.428078 -1.394091,0.809087 -1.394091,0.846505 0,0.03757 0.218888,0.03876 0.486201,0.0029 0.267476,-0.03593 0.459552,-0.04068 0.426726,-0.01085 -0.03283,0.02999 -0.452726,0.327407 -0.933077,0.661049 l -0.873602,0.606407 0.568264,-0.09652 c 0.312651,-0.05301 0.934215,-0.269647 1.381253,-0.481236 3.15137,-1.491369 6.132765,-4.382642 8.479108,-8.223021 0.927714,-1.518393 2.161742,-4.452578 1.872004,-4.450795 -0.06224,2.96e-4 -0.459389,0.618434 -0.88254,1.373473 m -9.086371,11.740152 c -0.773177,0.341214 -1.784254,0.768699 -2.246893,0.950146 -0.8506894,0.333494 -1.0029524,0.730985 -0.2283134,0.595716 0.2130384,-0.03727 0.3872394,-0.05048 0.3872394,-0.02955 0,0.02108 -0.361401,0.250195 -0.8032404,0.509151 -0.441676,0.259103 -0.770251,0.549983 -0.730114,0.646497 0.04014,0.09666 -0.256588,0.365566 -0.659426,0.597646 -0.402676,0.232081 -0.732227,0.450055 -0.732227,0.484503 0,0.25554 2.6695564,-1.129812 4.0625094,-2.108021 0.999378,-0.701883 2.756169,-2.293626 2.513231,-2.277145 -0.08629,0.0058 -0.789589,0.289691 -1.562766,0.631055 m 24.732078,4.211143 c -1.58422,0.744645 -2.75828,1.97498 -1.70983,1.7919 0.48864,-0.08538 0.69453,0.134081 0.3575,0.381009 -0.13195,0.09652 -0.28373,0.392739 -0.33719,0.658227 -0.0921,0.457182 -0.0717,0.482573 0.3913,0.482573 0.26878,0 0.75514,0.10171 1.08095,0.22614 0.65586,0.250344 0.85264,0.138832 0.85736,-0.485987 0.003,-0.399569 0.5382,-0.928023 0.93974,-0.928023 0.55315,0 2.4752,1.34749 2.4752,1.735329 0,0.125617 0.21288,0.194958 0.59898,0.194958 0.39114,0 0.7293,0.111953 0.975,0.322803 l 0.37603,0.322952 -1.7e-4,-0.434315 c 0,-0.238761 -0.21628,-0.8517 -0.48051,-1.362188 -0.26439,-0.510338 -0.42884,-0.927577 -0.36563,-0.927131 0.0634,4.45e-4 0.37099,0.06118 0.68381,0.134823 0.31281,0.07379 0.84727,0.177438 1.18787,0.230299 0.377,0.05865 0.86922,0.302757 1.25938,0.624818 1.02879,0.849327 0.74702,-0.123984 -0.351,-1.212369 -0.76131,-0.754741 -1.03236,-0.803741 -2.34878,-0.424662 -0.8177,0.235643 -0.87035,0.233564 -1.39555,-0.05509 -0.30014,-0.164966 -0.74198,-0.342106 -0.98167,-0.39363 -0.23985,-0.05152 -0.48246,-0.22718 -0.53917,-0.390364 -0.10823,-0.311518 -1.04569,-1.038939 -1.33917,-1.038939 -0.0941,0 -0.69453,0.246037 -1.33445,0.546864 m -16.360646,0.332158 c -0.458576,0.15086 -1.026027,0.240841 -1.260678,0.199859 -0.899602,-0.157244 -1.876554,0.538402 -2.146467,1.528639 -0.108388,0.397342 -0.09441,0.417833 0.155513,0.229555 0.151125,-0.113586 0.312975,-0.171795 0.359613,-0.129032 0.1118,0.102154 -0.853452,1.405101 -1.111503,1.500576 -0.110012,0.04068 0.09246,0.08167 0.449964,0.09087 0.357501,0.0093 0.832814,0.112548 1.056252,0.229259 0.642364,0.335572 0.975003,0.281079 0.975003,-0.159918 0,-0.396599 0.785364,-1.250677 1.150177,-1.250677 0.324514,0 1.324866,1.060025 1.93733,2.052786 0.545839,0.884665 0.592639,0.92045 1.161878,0.888971 0.3263,-0.01812 0.710289,0.05568 0.853127,0.164074 0.22555,0.171053 0.26,0.15175 0.26,-0.145365 0,-0.188426 -0.119925,-0.732915 -0.266338,-1.210142 -0.146575,-0.477077 -0.238063,-0.89001 -0.203125,-0.917628 0.03477,-0.02746 0.438588,-0.09385 0.897327,-0.147147 0.786014,-0.09162 0.873439,-0.06712 1.518566,0.425257 0.729464,0.556961 1.104352,0.571661 0.791214,0.03088 -0.855077,-1.476224 -2.236005,-2.089164 -3.427295,-1.521214 -0.437126,0.208322 -0.453864,0.200304 -0.840452,-0.409221 -0.216938,-0.342106 -0.523414,-0.872342 -0.681039,-1.178663 -0.324676,-0.630907 -0.465726,-0.654515 -1.629067,-0.271725"
     stroke="none"
     fill="#000000"
     fill-rule="evenodd"
     id="path1"
     style="stroke-width:0.155334" />
</svg>
