<?xml version="1.0" encoding="UTF-8" standalone="no"?>
<svg
   width="49.99884"
   height="50"
   viewBox="0 0 49.99884 50"
   version="1.1"
   id="svg1"
   xmlns="http://www.w3.org/2000/svg"
   xmlns:svg="http://www.w3.org/2000/svg">
  <defs
     id="defs1" />
  <path
     d="m 21.201136,0.09851701 c -5.6294,0.506155 -10.814,2.33958999 -14.5139004,5.13244599 -2.6385,1.991692 -4.56052,4.368017 -5.65935,6.997059 -0.96784996,2.315924 -1.33947996,5.5995 -0.73390996,6.484936 0.0819,0.11967 0.43777,0.467157 0.79071996,0.772249 0.90591,0.782745 1.03649,1.034433 1.1843,2.284952 0.38504,3.255381 0.63594,4.269852 1.83914,7.434684 0.755,1.986135 1.3967,3.233053 2.2252,4.324285 1.3471,1.774269 3.9131004,3.722538 6.2752004,4.764586 1.3545,0.597425 2.2218,0.804662 3.6284,0.866812 0.7053,0.03118 1.2818,0.08469 1.2813,0.118847 -6e-4,0.03426 -0.2069,0.171942 -0.4585,0.306121 -0.736,0.392144 -2.1863,1.647087 -3.1379,2.714962 -0.4849,0.54433 -1.0528,1.102346 -1.2618,1.23992 -0.2391,0.157434 -1.4615,0.527661 -3.2976004,0.998522 -2.0923,0.536612 -3.0716,0.839955 -3.4623,1.072402 -1.001,0.595573 -2.77901,2.959756 -3.06384,4.073935 l -0.0803,0.314764 1.16684,-0.02994 1.1668,-0.02994 0.089,-0.486502 c 0.1174,-0.644758 0.7881,-1.541205 1.6844,-2.251303 0.6902,-0.546903 0.7982,-0.591972 2.0756,-0.866401 0.741,-0.159183 1.3833004,-0.261361 1.4273004,-0.226993 0.068,0.05299 -0.2535,0.469832 -1.6040004,2.082654 -0.1748,0.20878 -0.1377,0.245206 0.7088,0.697751 0.491,0.262699 1.0339004,0.594956 1.2063004,0.738396 l 0.3133,0.260949 h 4.0717 4.0718 l -0.088,-0.668837 -0.088,-0.668733 0.7598,0.262698 c 0.418,0.144469 1.0076,0.376298 1.3106,0.515004 0.3235,0.148276 0.5835,0.210632 0.6304,0.15126 0.044,-0.05556 0.4025,-0.884099 0.797,-1.841255 l 0.7171,-1.74021 0.4934,-0.07213 c 0.6235,-0.09117 0.8222,-0.219995 0.8222,-0.533217 0,-0.246852 -0.01,-0.248292 -1.2066,-0.218966 l -1.2065,0.02963 -0.5545,1.177358 -0.5544,1.177256 -0.3101,-0.498026 c -0.2412,-0.387 -0.4567,-0.559662 -0.9678,-0.774925 -0.5453,-0.229668 -0.7303,-0.387719 -1.0848,-0.926801 -0.3857,-0.586519 -0.4272,-0.736029 -0.4245,-1.534209 0,-1.163363 0.2354,-1.54635 1.5637,-2.585722 l 1.0509,-0.82236 0.039,-0.628192 0.039,-0.628089 1.6437,-0.44668 c 2.1347,-0.580035 5.5221,-1.914621 7.0942,-2.795016 0.6832,-0.382677 1.8018,-1.112429 2.4856,-1.621774 l 1.2432,-0.926082 -0.075,0.463041 c -0.041,0.254672 -0.2842,1.403219 -0.5406,2.552383 -0.2563,1.149164 -0.5289,2.677199 -0.6059,3.395632 -0.2254,2.106938 -0.02,1.795775 -2.4776,3.754128 -2.6708,2.128032 -3.1918,2.460701 -4.3098,2.751799 -0.4805,0.125124 -1.0589,0.358599 -1.2852,0.518914 l -0.4116,0.291305 0.2533,0.339254 c 0.7904,1.059128 0.7815,1.021468 0.4111,1.735065 -0.1847,0.355409 -0.3356,0.685094 -0.3356,0.732736 0,0.04754 2.0189,0.07429 4.4867,0.05937 l 4.4867,-0.02706 0.3276,-0.693635 c 0.1802,-0.381443 0.3708,-0.672747 0.4237,-0.647125 0.053,0.02552 0.2008,0.349236 0.3289,0.719359 l 0.2328,0.67285 h 2.3897 2.3897 l 0.6941,-0.549887 0.6941,-0.549989 -0.3041,-0.152803 c -1.0824,-0.544022 -6.7132,-2.875689 -6.8469,-2.83525 -0.09,0.02727 -0.4225,0.564601 -0.7387,1.19413 -0.3163,0.62953 -0.618,1.144534 -0.6703,1.144534 -0.1499,0 -2.4088,-1.123645 -2.685,-1.335615 -0.2434,-0.18676 -0.2426,-0.196432 0.041,-0.48218 0.159,-0.160418 1.2766,-1.111297 2.4835,-2.113112 1.4658,-1.216768 2.2381,-1.787337 2.3262,-1.718395 0.072,0.0567 0.1399,0.481768 0.1498,0.944603 l 0.018,0.841499 0.4559,0.225758 c 0.2508,0.124198 1.7516,0.814335 3.3353,1.533797 5.1596,2.343706 6.0853,2.850787 6.3836,3.496163 0.1617,0.349853 0.1792,0.356747 0.9091,0.356747 0.4093,0 1.0188,0.02943 1.3543,0.06544 0.7745,0.08304 0.7882,-0.02747 0.1254,-1.014368 -0.7109,-1.058717 -1.8557,-1.760892 -6.1954,-3.800843 -1.208,-0.567688 -2.3782,-1.139698 -2.6006,-1.271099 -0.4446,-0.262698 -1.1002,-1.247637 -1.917,-2.879804 -0.8008,-1.600371 -0.906,-1.766449 -1.3105,-2.069689 -0.2087,-0.156509 -0.3789,-0.393483 -0.3789,-0.527764 0,-0.617594 1.1339,-5.16311 1.2927,-5.181631 0.049,-0.0058 0.5965,-0.02521 1.2178,-0.04342 2.4921,-0.07296 5.2105,-1.199584 7.4848,-3.101961 1.3326,-1.114796 2.2115,-2.266533 2.8131,-3.687039 0.1917,-0.452751 0.5519,-1.147312 0.8003,-1.543469 0.319,-0.50883 0.5119,-1.022394 0.6573,-1.749265 0.2414,-1.207918 0.6254,-2.270854 1.0667,-2.952347 0.2832,-0.437316 0.316,-0.620371 0.316,-1.766654 0,-2.346793 -0.3845,-4.365651 -1.1885,-6.239628 -1.1525,-2.686153 -3.2381,-5.269818 -5.7152,-7.079998 -3.9151,-2.860871 -8.465,-4.47894099 -13.9393,-4.95690199 -1.4033,-0.122551 -6.5525,-0.115863 -7.9559,0.01029 m -6.1148,2.67441999 c -1.7964,0.526632 -4.1604,1.479261 -5.2733004,2.124945 -1.9694,1.142785 -3.9234,2.844099 -5.1837,4.513721 -1.61913,2.145216 -2.14356,3.249208 -2.35975,4.967706 -0.11086,0.881629 -0.21382,1.246608 -0.41423,1.466707 -0.2371,0.260641 -0.24315,0.299948 -0.055,0.356541 0.74088,0.222466 2.72668,-0.510888 3.93308,-1.452301 0.982,-0.766281 1.5812,-1.538838 1.8624,-2.400917 0.3018,-0.925464 0.1235,-1.60068 -0.635,-2.403387 -0.3207,-0.339461 -0.236,-0.536613 0.3273,-0.762165 0.7546,-0.302109 1.3843,-0.749509 1.653,-1.174374 l 0.26,-0.411078 0.084,0.410152 c 0.1664,0.814437 0.6176,1.541308 1.3279004,2.139453 0.8616,0.725431 1.8428,1.196498 3.2789,1.574133 1.6167,0.425071 2.5948,0.458101 5.7972,0.195815 2.2461,-0.183982 3.2645,-0.216806 5.4573,-0.175647 3.8037,0.07141 5.904,0.391938 9.2708,1.414538 2.2211,0.674599 3.1564,0.806617 4.3485,0.613889 1.5341,-0.247984 2.734,-0.904988 3.4183,-1.871508 0.3322,-0.469317 0.386,-0.653813 0.3837,-1.317505 0,-0.468803 -0.095,-0.981234 -0.238,-1.305466 -0.7931,-1.799273 -3.5438,-3.794464 -6.4336,-4.666524 -1.8461,-0.557089 -2.5891,-0.653608 -5.0294,-0.65371 -2.1745,-1.03e-4 -2.2671,0.0087 -3.3914,0.323614 -0.6357,0.178013 -2.2263,0.491955 -3.5348,0.697648 -1.3083,0.205692 -2.8298,0.488353 -3.3809,0.628088 -2.2012,0.558428 -4.3464,1.56549 -5.0929,2.390834 -0.2091,0.231109 -0.4098,0.421264 -0.4459,0.422499 -0.036,0.0012 -0.066,-0.634469 -0.066,-1.412686 0,-1.25875 -0.033,-1.47144 -0.3023,-1.928101 -0.1662,-0.28225 -0.4265,-0.616565 -0.5782,-0.742924 -0.3479,-0.28976 -0.2696,-0.372799 1.0777,-1.143093 1.5451,-0.883275 1.5439,-0.890787 -0.066,-0.418897 M 9.5483356,13.59142 c -0.5296,0.825241 -1.4339,1.771079 -2.1043,2.200986 l -0.6039,0.387102 0.7438,0.116275 c 0.9513,0.148585 1.3921,0.474154 1.4766,1.090718 0.09,0.657724 -0.086,0.769265 -1.512,0.958185 -1.5587,0.206517 -2.1421,0.442153 -2.757,1.113047 -0.4411,0.48146 -0.4942,0.510271 -0.5343,0.290173 -0.069,-0.377945 0.2406,-1.10924 0.5969,-1.410011 l 0.3215,-0.271445 -0.7375,0.04785 c -0.4055,0.02634 -0.8025,0.09888 -0.8822,0.161241 -0.10533,0.08242 -0.034,0.457896 0.2629,1.380273 0.2853,0.887392 0.4321,1.637106 0.4894,2.50186 0.131,1.975743 0.407,3.177488 1.3063,5.688918 0.9507,2.654561 1.322,3.483198 1.9927,4.446528 1.3251,1.903097 3.9725004,3.943357 6.3248004,4.874275 1.0796,0.427232 2.0424,0.579315 3.6675,0.579315 2.4597,0 4.266,-0.366728 7.1508,-1.451992 3.1732,-1.193719 5.6448,-2.697984 7.6737,-4.670434 0.5397,-0.524574 1.0686,-0.939356 1.2201,-0.956745 0.1601,-0.01832 0.5259,0.136442 0.9107,0.385352 1.5509,1.002844 3.3768,0.922892 5.7889,-0.253643 3.3055,-1.611999 5.6993,-4.640902 5.1887,-6.565094 -0.3832,-1.444481 -2.1138,-2.297402 -4.1101,-2.025751 -1.8511,0.251791 -3.3053,1.08866 -4.8458,2.788842 -0.5005,0.552459 -1.162,1.164393 -1.4697,1.359899 -0.5399,0.343062 -2.2639,1.202671 -2.4119,1.202671 -0.04,0 -0.034,-0.09539 0.014,-0.211969 0.047,-0.116584 0.098,-1.239406 0.1132,-2.495275 l 0.027,-2.283305 0.501,-1.080428 c 0.8006,-1.726113 0.938,-2.292052 0.7573,-3.116676 -0.084,-0.384426 -0.3041,-0.932049 -0.4886,-1.217076 l -0.3356,-0.518092 -0.5694,0.410666 c -0.3133,0.225861 -0.7504,0.483929 -0.9714,0.573347 -0.555,0.224524 -1.9226,0.364053 -3.6389,0.371256 -1.4104,0.006 -1.435,0.01 -0.9863,0.162064 0.2531,0.08582 0.6284,0.280809 0.834,0.433304 0.3959,0.293876 0.9401,1.032786 0.8262,1.121999 -0.037,0.02912 -0.3226,-0.108661 -0.6338,-0.306328 -1.2731,-0.807851 -2.097,-0.999241 -4.7084,-1.093702 -2.1974,-0.07944 -2.5099,-0.152597 -2.7726,-0.648874 -0.2947,-0.556781 0.1737,-1.206993 1.0287,-1.427812 0.2612,-0.0674 0.404,-0.155376 0.3372,-0.207648 -0.064,-0.0498 -1.3562,-0.320321 -2.8723,-0.601129 -4.7226,-0.874633 -6.7214,-1.37945 -8.3559,-2.11054 -0.3195,-0.142925 -0.654,-0.260434 -0.7432,-0.261155 -0.089,-7.2e-4 -0.3182004,0.241913 -0.5089004,0.53898 m 13.6897004,6.08641 c -1.377,0.474874 -2.1294,1.930468 -2.0075,3.883882 0.08,1.288694 0.3978,2.016285 1.185,2.716094 0.9728,0.864857 1.9958,1.063759 3.2049,0.623253 1.1282,-0.411077 1.9119,-1.47 2.1781,-2.942469 0.3275,-1.812444 -0.5873,-3.709574 -2.0372,-4.224681 -0.6489,-0.230491 -1.9347,-0.258994 -2.5233,-0.05608 m -15.9355004,0.0711 c -0.5493,0.125741 -1.2892,0.813716 -1.5826,1.47144 -0.187,0.419 -0.2338,0.849319 -0.2307,2.120623 0,1.426989 0.036,1.658612 0.3118,2.200061 0.9654,1.897849 3.0815,2.133588 4.1628,0.463658 0.7250004,-1.119324 0.9054004,-2.530672 0.5025004,-3.929672 -0.5083004,-1.764802 -1.7210004,-2.656413 -3.1638004,-2.32611 m 18.8614004,1.336541 c -0.3017,0.137471 -0.3177,0.937503 -0.024,1.167788 0.2461,0.192522 0.6007,0.209089 0.8191,0.03817 0.2504,-0.195917 0.1961,-0.949439 -0.083,-1.146797 -0.276,-0.195506 -0.3925,-0.205178 -0.7129,-0.05917 m -17.0212004,0.07265 c -0.3087,0.153523 -0.4504,0.638893 -0.2716,0.930609 0.2059,0.336064 0.5633,0.401713 0.8977,0.164945 0.3059004,-0.2166 0.3275004,-0.636218 0.048,-0.94769 -0.2126,-0.237694 -0.4081,-0.2805 -0.6746,-0.147864 m 31.6885004,2.846259 c -0.8501,0.309723 -1.7559,1.006033 -2.1995,1.690819 -0.5652,0.872883 -0.3841,1.028979 0.7338,0.632102 1.2019,-0.426718 2.0884,-0.175853 2.0826,0.589399 -0.01,1.106565 -1.6108,2.307898 -3.2857,2.463068 -0.498,0.0462 -0.7575,0.01183 -1.1646,-0.154244 -0.4497,-0.183467 -0.546,-0.192831 -0.68,-0.06637 -0.518,0.488251 0.5807,1.038034 1.903,0.952217 1.7354,-0.112673 4.3436,-1.633093 5.2362,-3.05257 0.3767,-0.598968 0.426,-0.775438 0.4203,-1.503647 -0.01,-0.94841 -0.2398,-1.401984 -0.844,-1.64647 -0.5634,-0.228022 -1.4152,-0.190978 -2.2021,0.09569 m 0.7362,0.507596 c -0.5263,0.147144 -1.1106,0.449046 -1.4677,0.758357 -0.2287,0.197976 -0.2199,0.203533 0.4202,0.262802 1.2688,0.117612 1.7071,0.485061 1.7302,1.450346 l 0.01,0.421985 0.3841,-0.617388 c 0.6788,-1.091541 0.4729,-2.43014 -0.3713,-2.413574 -0.1265,0.0025 -0.4441,0.06431 -0.7055,0.137472 m -27.9515,2.168882 c -0.4801,0.163402 -0.7008,0.431554 -0.7008,0.851584 0,0.395025 0.2178,0.54186 0.8036,0.54186 0.3835,0 0.561,-0.06781 0.8285,-0.316617 0.501,-0.465819 0.4492,-0.86424 -0.144,-1.108519 -0.3416,-0.140765 -0.2727,-0.143543 -0.7873,0.03169 m 3.7587,4.985096 c -0.1554,0.164431 -0.5722,0.422396 -0.9263,0.573142 -0.8751,0.372799 -2.0748,0.375371 -3.437,0.0075 -1.1617,-0.313736 -1.1014,-0.310546 -1.1841,-0.06308 -0.1897,0.567996 1.4945,1.241463 3.105,1.241463 1.2991,0 3.6375,-0.895932 3.6375,-1.393752 0,-0.218452 -0.5388,-0.664206 -0.8028,-0.664206 -0.06,0 -0.237,0.134487 -0.3923,0.298918 m -2.3848,12.647802 c -1.0593,1.070036 -3.0082,3.335333 -2.9252,3.400159 0.088,0.06905 1.017,-0.270313 2.5455,-0.929888 0.7514,-0.324335 1.5396,-0.619446 1.7517,-0.655872 0.2911,-0.05001 0.3642,-0.10794 0.2989,-0.236562 -0.073,-0.14416 -0.2762,-0.777188 -0.7037,-2.195225 -0.079,-0.26311 -0.1235,-0.234916 -0.9672,0.617388"
     stroke="none"
     fill="#000000"
     fill-rule="evenodd"
     id="path1"
     style="stroke-width:0.116324" />
</svg>
