<?xml version="1.0" encoding="UTF-8" standalone="no"?>
<svg
   version="1.1"
   width="80"
   height="80"
   style="clip-rule:evenodd;fill-rule:evenodd;image-rendering:optimizeQuality;shape-rendering:geometricPrecision;text-rendering:geometricPrecision"
   id="svg10"
   sodipodi:docname="g1.svg"
   xmlns:inkscape="http://www.inkscape.org/namespaces/inkscape"
   xmlns:sodipodi="http://sodipodi.sourceforge.net/DTD/sodipodi-0.dtd"
   xmlns="http://www.w3.org/2000/svg"
   xmlns:svg="http://www.w3.org/2000/svg">
  <sodipodi:namedview
     id="namedview1"
     pagecolor="#ffffff"
     bordercolor="#999999"
     borderopacity="1"
     inkscape:showpageshadow="2"
     inkscape:pageopacity="0"
     inkscape:pagecheckerboard="0"
     inkscape:deskcolor="#d1d1d1" />
  <defs
     id="defs10" />
  <g
     id="g1"
     transform="matrix(0.15625,0,0,0.15625,0.07815332,0.078125)">
    <path
       style="opacity:0.98"
       fill="#221e1f"
       d="m 283.5,-0.5 c 6,0 12,0 18,0 19.949,6.80113 29.449,20.8011 28.5,42 -4.215,20.3804 -16.715,31.3804 -37.5,33 -27.495,-3.6236 -39.661,-19.2902 -36.5,-47 4.016,-14.515 13.183,-23.84832 27.5,-28 z m 5,17 c 16.987,-0.1815 24.82,8.1519 23.5,25 -5.635,13.8825 -15.468,18.0492 -29.5,12.5 -12.857,-10.8901 -13.19,-22.2234 -1,-34 2.425,-1.2126 4.759,-2.3793 7,-3.5 z"
       id="path1" />
  </g>
  <g
     id="g2"
     transform="matrix(0.15625,0,0,0.15625,0.07815332,0.078125)">
    <path
       style="opacity:0.981"
       fill="#221e1f"
       d="m 382.5,-0.5 c 6,0 12,0 18,0 20.417,6.94481 29.917,21.2781 28.5,43 C 421.659,68.4244 404.826,78.2577 378.5,72 359.824,63.4874 351.99,48.9874 355,28.5 c 3.91,-14.7415 13.077,-24.40814 27.5,-29 z m 5,17 c 17.487,-0.0142 25.321,8.6524 23.5,26 -6.183,13.1741 -16.016,17.0074 -29.5,11.5 -12.937,-10.9132 -13.27,-22.2465 -1,-34 2.425,-1.2126 4.759,-2.3793 7,-3.5 z"
       id="path2" />
  </g>
  <g
     id="g3"
     transform="matrix(0.15625,0,0,0.15625,0.07815332,0.078125)">
    <path
       style="opacity:0.979"
       fill="#221e1f"
       d="m 193.5,65.5 c 22.067,-2.563 36.901,6.437 44.5,27 4.177,22.481 -4.323,37.981 -25.5,46.5 -22.313,4.469 -37.813,-3.698 -46.5,-24.5 -5.332,-24.6849 3.835,-41.0182 27.5,-49 z m 4,17 c 19.03,0.7282 26.53,10.3949 22.5,29 -9.321,12.666 -20.321,14.333 -33,5 -9.177,-15.301 -5.677,-26.6339 10.5,-34 z"
       id="path3" />
  </g>
  <g
     id="g4"
     transform="matrix(0.15625,0,0,0.15625,0.07815332,0.078125)">
    <path
       style="opacity:0.982"
       fill="#221e1f"
       d="m 511.5,93.5 c 0,6 0,12 0,18 -6.793,19.939 -20.793,29.439 -42,28.5 -26.643,-6.774 -36.809,-23.607 -30.5,-50.5 8.477,-18.6597 22.977,-26.493 43.5,-23.5 14.741,3.9102 24.408,13.0769 29,27.5 z m -41,-11 c 12.002,-0.7514 19.836,4.5819 23.5,16 0.5,17.498 -8,25.331 -25.5,23.5 -13.174,-6.183 -17.007,-16.016 -11.5,-29.5 3.531,-4.705 8.031,-8.0383 13.5,-10 z"
       id="path4" />
  </g>
  <g
     id="g5"
     transform="matrix(0.15625,0,0,0.15625,0.07815332,0.078125)">
    <path
       style="opacity:0.98"
       fill="#221e1f"
       d="m 325.5,73.5 c 36.289,-2.9625 67.455,8.0375 93.5,33 26.878,29.915 33.544,63.915 20,102 -20.526,41.365 -54.026,62.698 -100.5,64 -45.868,-1 -79.368,-21.667 -100.5,-62 -17.067,-51.134 -3.234,-91.634 41.5,-121.5 14.425,-8.2627 29.759,-13.4293 46,-15.5 z m 7,17 c 36.647,-0.7618 65.147,13.905 85.5,44 18.134,37.995 11.634,71.161 -19.5,99.5 -35.649,25.102 -72.649,27.436 -111,7 -36.708,-25.123 -47.541,-58.623 -32.5,-100.5 17.072,-30.238 42.906,-46.9045 77.5,-50 z"
       id="path5" />
  </g>
  <g
     id="g6"
     transform="matrix(0.15625,0,0,0.15625,0.07815332,0.078125)">
    <path
       style="opacity:0.98"
       fill="#231e1f"
       d="m 121.5,238.5 c 21.245,-1.234 35.411,8.099 42.5,28 3.84,23.84 -5.66,39.34 -28.5,46.5 -22.295,2.676 -37.128,-6.491 -44.5,-27.5 -3.3858,-24.58 6.7809,-40.247 30.5,-47 z m 0,18 c 19.299,-0.875 27.465,8.125 24.5,27 -6.838,12.501 -16.671,15.667 -29.5,9.5 -11.562,-10.702 -11.895,-21.702 -1,-33 2.227,-0.941 4.227,-2.108 6,-3.5 z"
       id="path6" />
  </g>
  <g
     id="g7"
     transform="matrix(0.15625,0,0,0.15625,0.07815332,0.078125)">
    <path
       style="opacity:0.98"
       fill="#231e1f"
       d="m 220.5,238.5 c 23.894,-1.262 38.394,9.738 43.5,33 -0.509,29.84 -15.675,43.673 -45.5,41.5 -22.186,-7.192 -31.686,-22.358 -28.5,-45.5 4.535,-15.704 14.701,-25.37 30.5,-29 z m 0,18 c 19.762,-0.741 27.929,8.593 24.5,28 -7.346,11.627 -17.179,14.46 -29.5,8.5 -11.562,-10.702 -11.895,-21.702 -1,-33 2.227,-0.941 4.227,-2.108 6,-3.5 z"
       id="path7" />
  </g>
  <g
     id="g8"
     transform="matrix(0.15625,0,0,0.15625,0.07815332,0.078125)">
    <path
       style="opacity:0.981"
       fill="#221e1f"
       d="m -0.5,351.5 c 0,-6 0,-12 0,-18 6.91652,-20.471 21.2498,-29.971 43,-28.5 25.9244,7.341 35.7577,24.174 29.5,50.5 -8.4999,18.67 -22.9999,26.504 -43.5,23.5 -14.7415,-3.91 -24.40814,-13.077 -29,-27.5 z m 31,-29 c 21.2075,-0.305 29.0409,9.695 23.5,30 -10.9132,12.937 -22.2465,13.27 -34,1 -6.4719,-13.798 -2.9719,-24.132 10.5,-31 z"
       id="path8" />
  </g>
  <g
     id="g9"
     transform="matrix(0.15625,0,0,0.15625,0.07815332,0.078125)">
    <path
       style="opacity:0.978"
       fill="#221e1f"
       d="m 303.5,304.5 c 30.291,0.457 44.458,15.79 42.5,46 -7.211,22.029 -22.377,31.529 -45.5,28.5 -15.714,-4.38 -25.214,-14.547 -28.5,-30.5 -1.582,-23.552 8.918,-38.219 31.5,-44 z m 0,18 c 19.207,-0.887 27.373,8.113 24.5,27 -7.664,13.208 -18.164,16.042 -31.5,8.5 -7.497,-7.737 -8.997,-16.57 -4.5,-26.5 3.183,-4.038 7.016,-7.038 11.5,-9 z"
       id="path9" />
  </g>
  <g
     id="g10"
     transform="matrix(0.15625,0,0,0.15625,0.07815332,0.078125)">
    <path
       style="opacity:0.98"
       fill="#221e1f"
       d="m 188.5,511.5 c -10.333,0 -20.667,0 -31,0 C 122.446,506.229 95.6131,488.562 77,458.5 55.9085,413.208 63.4085,373.375 99.5,339 c 35.584,-27.311 74.584,-33.311 117,-18 49.492,22.514 69.992,60.681 61.5,114.5 -10.54,34.875 -33.04,58.375 -67.5,70.5 -7.385,2.171 -14.718,4.004 -22,5.5 z m -27,-181 c 36.627,-2.592 66.127,10.408 88.5,39 20.521,35.995 16.688,69.162 -11.5,99.5 -30.75,25.948 -65.083,31.948 -103,18 C 95.1886,468.545 78.3552,437.379 85,393.5 c 9.9997,-30.666 30.5,-50.499 61.5,-59.5 5.096,-1.36 10.096,-2.526 15,-3.5 z"
       id="path10" />
  </g>
</svg>
