<?xml version="1.0" encoding="UTF-8" standalone="no"?>
<svg
   version="1.1"
   width="80"
   height="80"
   style="clip-rule:evenodd;fill-rule:evenodd;image-rendering:optimizeQuality;shape-rendering:geometricPrecision;text-rendering:geometricPrecision"
   id="svg1"
   xmlns="http://www.w3.org/2000/svg"
   xmlns:svg="http://www.w3.org/2000/svg">
  <defs
     id="defs1" />
  <g
     id="g1"
     transform="matrix(0.32,0,0,0.32,0.16,0.16)">
    <path
       style="opacity:0.75"
       fill="#000000"
       d="m 202.5,-0.5 c 2,0 4,0 6,0 2.076,0.926808 3.243,2.59347 3.5,5 6.264,21.7042 11.431,43.0375 15.5,64 7.611,-0.5762 14.944,0.0905 22,2 0,3.3333 0,6.6667 0,10 -4.915,28.101 -10.415,56.767 -16.5,86 -4.644,14.418 -14.478,22.918 -29.5,25.5 -42.671,0.167 -85.337,0.667 -128,1.5 1.3083,6.04 2.8083,12.04 4.5,18 1.6477,1.217 3.481,2.05 5.5,2.5 42,0.333 84,0.667 126,1 14.68,8.163 17.014,18.497 7,31 -2.425,1.213 -4.759,2.379 -7,3.5 -3.667,0 -7.333,0 -11,0 -10.136,-5.056 -13.469,-13.056 -10,-24 -24.658,-1 -49.324,-1.333 -74,-1 3.609,12.24 -0.391,20.573 -12,25 -3.667,0 -7.3333,0 -11,0 -9.9543,-5.505 -13.2876,-13.838 -10,-25 C 76.0135,222.519 70.8468,217.852 68,210.5 61.0583,174.985 53.5583,138.319 45.5,100.5 43.8288,83.6254 40.3288,65.9588 35,47.5 33.5,44.6667 31.3333,42.5 28.5,41 19.8333,40.6667 11.1667,40.3333 2.5,40 c -1.02656,-0.5133 -2.026556,-1.0133 -3,-1.5 0,-2 0,-4 0,-6 0.809426,-0.9687 1.80943,-1.8021 3,-2.5 8.5248,-0.7596 17.0248,-0.593 25.5,0.5 8.4873,2.4848 14.4873,7.8181 18,16 1.6946,7.3065 3.1946,14.6398 4.5,22 5.9337,0.6113 11.6004,-0.222 17,-2.5 8.41,-6.6212 16.91,-13.1212 25.5,-19.5 0.3333,-7.6667 0.6667,-15.3333 1,-23 0.3176,-1.5609 1.1509,-2.7276 2.5,-3.5 20.6,-1.4653 41.266,-1.9653 62,-1.5 -0.655,-3.8547 0.679,-6.6881 4,-8.5 13.658,-3.90952 26.991,-7.40952 40,-10.5 z m -2,11 c 1.25,0.0774 2.083,0.744 2.5,2 1.116,3.3196 1.783,6.653 2,10 -1.319,-1.9875 -3.152,-3.1541 -5.5,-3.5 -8.021,-0.1684 -16.021,-0.6684 -24,-1.5 8.331,-1.6564 16.664,-3.9897 25,-7 z m 5,13 c 0.617,0.1107 1.117,0.444 1.5,1 2.801,14.9129 6.301,29.4129 10.5,43.5 -5.032,1.4125 -9.365,0.4125 -13,-3 0.99,-13.7544 1.323,-27.5877 1,-41.5 z m -101,6 c 30,0 60,0 90,0 0.166,7.3409 0,14.6742 -0.5,22 -2.263,-3.386 -5.097,-6.2193 -8.5,-8.5 -1.667,-0.6667 -3.333,-0.6667 -5,0 -8.667,8 -17.333,16 -26,24 -1.525,1.0086 -3.192,1.5086 -5,1.5 1.687,-6.7448 3.687,-13.4115 6,-20 -0.333,-0.6667 -0.667,-1.3333 -1,-2 -11.186,-5.3291 -22.686,-9.9958 -34.5,-14 -1.955,0.9533 -3.622,2.2866 -5,4 -4.202,11.852 -7.536,22.5186 -10,32 -0.5,-12.9957 -0.667,-25.9957 -0.5,-39 z m 18,15 c 6.523,2.7299 13.19,5.0633 20,7 -0.96,5.7129 -2.626,11.2129 -5,16.5 -6.992,0.4996 -13.992,0.6663 -21,0.5 2.711,-8.0732 4.711,-16.0732 6,-24 z m 60,10 c 4.877,3.711 8.877,8.211 12,13.5 -8.667,0.6667 -17.333,0.6667 -26,0 4.562,-4.7309 9.229,-9.2309 14,-13.5 z m -90,5 c 0.9767,2.7869 1.31,5.7869 1,9 -4.0138,0.1655 -8.0138,-0.0012 -12,-0.5 3.5667,-3.0795 7.2334,-5.9129 11,-8.5 z m -39,20 c 61.667,0 123.333,0 185,0 -1.153,8.7657 -2.82,17.4324 -5,26 0.209,0.586 0.543,1.086 1,1.5 -0.946,3.034 -1.946,6.034 -3,9 0.979,1.779 0.646,3.445 -1,5 0.522,0.561 0.855,1.228 1,2 -2.887,15.757 -6.721,31.59 -11.5,47.5 -3.916,5.903 -9.416,9.403 -16.5,10.5 -43.332,0.5 -86.665,0.667 -130,0.5 -4.4238,-23.685 -9.4238,-46.519 -15,-68.5 0.3333,-1 0.6667,-2 1,-3 -2.5724,-10.0292 -4.5724,-20.1959 -6,-30.5 z m 45,145 c 1.3471,0.671 2.514,0.671 3.5,0 4.711,1.984 6.211,5.817 4.5,11.5 -2.648,3.113 -5.981,4.113 -10,3 -3.6241,-2.161 -4.7907,-5.328 -3.5,-9.5 1.1065,-2.613 2.9399,-4.28 5.5,-5 z m 106,0 c 7.422,-0.538 10.255,3.129 8.5,11 -3.866,4.916 -8.199,5.249 -13,1 -1.694,-5.427 -0.194,-9.427 4.5,-12 z"
       id="path1" />
  </g>
</svg>
