<?xml version="1.0" encoding="UTF-8" standalone="no"?>
<svg
   version="1.1"
   viewBox="0 0 222 250"
   width="222"
   height="250"
   style="clip-rule:evenodd;fill-rule:evenodd;image-rendering:optimizeQuality;shape-rendering:geometricPrecision;text-rendering:geometricPrecision"
   id="svg1"
   xmlns="http://www.w3.org/2000/svg"
   xmlns:svg="http://www.w3.org/2000/svg">
  <defs
     id="defs1" />
  <g
     id="g1"
     transform="translate(0.5,0.5)">
    <path
       style="opacity:0.874"
       fill="#020202"
       d="m 182.5,-0.5 c 2,0 4,0 6,0 9.715,9.31144 19.215,18.9781 28.5,29 1.546,3.0919 3.046,6.0919 4.5,9 0,5.6667 0,11.3333 0,17 -10.724,22.2723 -27.058,27.439 -49,15.5 -13.061,-13.7303 -26.728,-26.7303 -41,-39 -17.259,-4.5639 -27.259,1.9361 -30,19.5 -0.203,3.9114 0.63,7.5781 2.5,11 15.638,16.6382 31.638,32.9715 48,49 21.504,30.366 24.17,62.366 8,96 -14.471,23.646 -35.304,37.98 -62.5,43 -8.6667,0 -17.3333,0 -26,0 -40.1214,-8.455 -64.12143,-32.788 -72,-73 0,-8 0,-16 0,-24 8.48124,-42.311 34.1479,-66.8111 77,-73.5 11.5782,-0.7996 22.9116,0.2004 34,3 C 103.657,75.789 98.1569,68.6223 94,60.5 c -4.3596,-23.8147 5.4737,-37.4814 29.5,-41 5.699,0.7332 11.033,2.5665 16,5.5 12.971,11.9704 25.638,24.3037 38,37 12.246,8.2823 23.08,6.7823 32.5,-4.5 3.577,-6.0383 4.244,-12.3717 2,-19 -8.892,-11.8975 -18.892,-22.8975 -30,-33 -0.678,-2.09761 -0.511,-4.09761 0.5,-6 z m -142,102 c 20.8009,-14.3863 43.4676,-17.8863 68,-10.5 5.612,2.1394 10.946,4.8061 16,8 -9.519,1.548 -18.852,4.048 -28,7.5 -18.274,-5.824 -36.9406,-7.4911 -56,-5 z m 84,7 c 4.346,-0.166 8.679,0.001 13,0.5 3.37,3.035 6.37,6.368 9,10 -52.9478,7.044 -87.7811,35.878 -104.5,86.5 -1.3943,6.704 -2.8943,13.37 -4.5,20 -3.3178,-2.817 -6.4845,-5.817 -9.5,-9 1.8413,-48.841 25.3413,-82.675 70.5,-101.5 8.716,-2.512 17.383,-4.679 26,-6.5 z m -78,1 c 12.0903,-0.405 24.0903,0.428 36,2.5 -7.986,3.659 -15.1527,8.492 -21.5,14.5 -15.3557,-1.805 -30.5224,-0.971 -45.5,2.5 2.7506,-4.837 5.7506,-9.503 9,-14 7.2513,-2.589 14.5846,-4.422 22,-5.5 z m 95,18 c 4.055,-0.324 8.055,0.009 12,1 1.944,3.831 3.277,7.831 4,12 -47.774,6.301 -79.2741,32.301 -94.5,78 -1.4898,5.949 -2.6565,11.949 -3.5,18 -4.108,-0.969 -7.9414,-2.636 -11.5,-5 3.239,-45.235 25.4057,-77.401 66.5,-96.5 8.917,-3.309 17.917,-5.809 27,-7.5 z m -102,6 c 4.6785,-0.166 9.3452,0.001 14,0.5 -4.9023,5.146 -9.569,10.479 -14,16 -10.4708,0.133 -20.8041,1.299 -31,3.5 0.68477,-4.593 1.6848,-9.093 3,-13.5 9.2511,-3.146 18.5844,-5.313 28,-6.5 z m 116,16 c 1.419,-0.951 3.085,-1.284 5,-1 0.763,2.641 0.93,5.308 0.5,8 -1.697,-2.52 -3.53,-4.853 -5.5,-7 z m -12,1 c 1.322,-0.17 2.489,0.163 3.5,1 5.085,6.497 9.418,13.497 13,21 0.562,7.327 -0.771,14.327 -4,21 -6.671,-13.844 -15.504,-26.178 -26.5,-37 4.676,-2.217 9.342,-4.217 14,-6 z m -112,8 c 1.052,-0.149 2.052,0.017 3,0.5 -8.158,14.141 -13.3247,29.307 -15.5,45.5 -8.543,-12.785 -12.04301,-26.785 -10.5,-42 7.6617,-2.141 15.3284,-3.474 23,-4 z m 88,2 c 13.766,12.18 24.099,26.846 31,44 -2.642,3.809 -5.475,7.476 -8.5,11 -9.056,-17.56 -21.556,-32.226 -37.5,-44 4.738,-4.078 9.738,-7.744 15,-11 z m -23,18 c 1.4217,0.209 2.755,0.709 4,1.5 3.483,3.239 7.15,6.239 11,9 -16.5326,13.56 -25.8659,31.06 -28,52.5 -5.4569,0.255 -10.7903,-0.412 -16,-2 2.9924,-23.646 12.659,-43.98 29,-61 z m 20,17 c 3.332,2.5 6.166,5.5 8.5,9 3.626,5.75 7.126,11.584 10.5,17.5 -12.55,11.105 -27.217,17.605 -44,19.5 2.6333,-18.611 10.967,-33.945 25,-46 z"
       id="path1" />
  </g>
</svg>
