<?xml version="1.0" encoding="UTF-8" standalone="no"?>
<svg
   version="1.1"
   width="301.91641"
   height="183"
   style="clip-rule:evenodd;fill-rule:evenodd;image-rendering:optimizeQuality;shape-rendering:geometricPrecision;text-rendering:geometricPrecision"
   id="svg41"
   xmlns="http://www.w3.org/2000/svg"
   xmlns:svg="http://www.w3.org/2000/svg">
  <defs
     id="defs41" />
  <g
     id="g1"
     transform="translate(-44.499973,-34.5)">
    <path
       style="opacity:0.031"
       fill="#d0d0d0"
       d="m 126.5,39.5 c -1.548,-0.3212 -2.215,-1.3212 -2,-3 2.356,-1.0751 4.689,-1.0751 7,0 -1.3,1.5512 -2.967,2.5512 -5,3 z"
       id="path1" />
  </g>
  <g
     id="g2"
     transform="translate(-44.499973,-34.5)">
    <path
       style="opacity:0.335"
       fill="#7a7a7a"
       d="m 272.5,38.5 c -1.333,0.3333 -2.667,0.6667 -4,1 -1.086,-0.12 -1.753,-0.7867 -2,-2 -0.637,-1.282 -0.637,-2.282 0,-3 2.533,0.804 4.533,2.1373 6,4 z"
       id="path2" />
  </g>
  <g
     id="g3"
     transform="translate(-44.499973,-34.5)">
    <path
       style="opacity:0.576"
       fill="#313131"
       d="m 123.5,36.5 c -1.211,2.6514 -2.545,5.3181 -4,8 -1.254,2.5934 -2.92,4.9268 -5,7 -0.876,0.1309 -1.543,-0.2025 -2,-1 1.998,-2.9728 3.998,-5.9728 6,-9 -1.102,-0.6757 -2.102,-1.3423 -3,-2 2.396,-1.5233 5.062,-2.5233 8,-3 z"
       id="path3" />
  </g>
  <g
     id="g4"
     transform="translate(-44.499973,-34.5)">
    <path
       style="opacity:0.054"
       fill="#707070"
       d="m 272.5,38.5 c 1.983,-0.3432 3.317,0.3235 4,2 -1.983,0.3432 -3.317,-0.3235 -4,-2 z"
       id="path4" />
  </g>
  <g
     id="g5"
     transform="translate(-44.499973,-34.5)">
    <path
       style="opacity:0.942"
       fill="#030303"
       d="m 115.5,39.5 c 0.898,0.6577 1.898,1.3243 3,2 -2.002,3.0272 -4.002,6.0272 -6,9 0.457,0.7975 1.124,1.1309 2,1 -8.026,12.3424 -13.526,25.6757 -16.5,40 -1.0347,18.319 -1.7014,36.652 -2,55 -1.6195,5.937 -3.2862,11.937 -5,18 -6.8581,10.187 -16.3581,16.52 -28.5,19 0.1576,-3.402 -0.1758,-6.736 -1,-10 0.1658,-4.679 -8e-4,-9.345 -0.5,-14 -1.3823,-3.638 -2.2156,-7.472 -2.5,-11.5 -4.2317,-12.93 -8.7317,-25.763 -13.5,-38.5 -0.6667,-7 -0.6667,-14 0,-21 4.18,-8.6668 10.0133,-16.0001 17.5,-22 16.5923,-11.0878 34.259,-20.0878 53,-27 z"
       id="path5" />
  </g>
  <g
     id="g6"
     transform="translate(-44.499973,-34.5)">
    <path
       style="opacity:0.063"
       fill="#737373"
       d="m 123.5,36.5 c 0.333,0 0.667,0 1,0 -0.215,1.6788 0.452,2.6788 2,3 -1.796,2.4 -4.13,4.0667 -7,5 1.455,-2.6819 2.789,-5.3486 4,-8 z"
       id="path6" />
  </g>
  <g
     id="g7"
     transform="translate(-44.499973,-34.5)">
    <path
       style="opacity:0.011"
       fill="#fefffe"
       d="m 237.5,41.5 c 0,0.6667 -0.333,1 -1,1 -0.876,0.1309 -1.543,-0.2025 -2,-1 1.114,-1.2759 2.114,-1.2759 3,0 z"
       id="path7" />
  </g>
  <g
     id="g8"
     transform="translate(-44.499973,-34.5)">
    <path
       style="opacity:0.945"
       fill="#020202"
       d="m 272.5,38.5 c 0.683,1.6765 2.017,2.3432 4,2 2.047,0.0111 4.047,0.3444 6,1 15.778,7.5192 31.112,15.8525 46,25 18.512,15.385 22.678,34.052 12.5,56 -5.691,12.496 -9.524,25.496 -11.5,39 -1.953,5.574 -2.62,11.574 -2,18 -3.326,0.146 -6.493,-0.521 -9.5,-2 -1.699,-0.113 -2.866,0.553 -3.5,2 -6.739,-3.915 -11.572,-9.582 -14.5,-17 -0.797,-6.459 -1.797,-12.793 -3,-19 0.184,-19.441 -0.983,-38.775 -3.5,-58 -2.901,-8.6853 -6.234,-17.1853 -10,-25.5 -4.896,-6.9786 -9.896,-13.8119 -15,-20.5 1.333,-0.3333 2.667,-0.6667 4,-1 z"
       id="path8" />
  </g>
  <g
     id="g9"
     transform="translate(-44.499973,-34.5)">
    <path
       style="opacity:0.914"
       fill="#030303"
       d="m 237.5,41.5 c 6.083,1.3883 12.083,3.2217 18,5.5 12.519,11.5327 20.352,25.6994 23.5,42.5 2.326,18.602 3.326,37.268 3,56 -4.237,9.57 -11.07,16.404 -20.5,20.5 -4.807,1.262 -8.474,-0.238 -11,-4.5 -2.379,-4.029 -4.712,-8.029 -7,-12 -1.797,-1.934 -2.797,-4.267 -3,-7 -4.01,-1.521 -7.677,-3.855 -11,-7 -3.126,-1.898 -6.459,-3.231 -10,-4 -7.179,-20.611 -9.012,-41.6108 -5.5,-63 3.123,-12.6524 10.623,-21.3191 22.5,-26 0.667,0 1,-0.3333 1,-1 z m 29,70 c 0.165,-3.018 -0.002,-6.018 -0.5,-9 -0.383,-0.556 -0.883,-0.889 -1.5,-1 0,-1 0,-2 0,-3 -1.933,0.2286 -3.6,1.0619 -5,2.5 -0.752,0.671 -1.086,1.504 -1,2.5 -0.667,0 -1.333,0 -2,0 -0.683,-1.676 -2.017,-2.343 -4,-2 -0.076,-3.8837 0.59,-7.5504 2,-11 -4.767,-0.3092 -9.434,0.1908 -14,1.5 -1.323,0.8159 -1.989,1.9826 -2,3.5 -1.333,1 -2.667,2 -4,3 0.63,-3.2011 2.297,-5.8677 5,-8 2.402,-1.0754 4.736,-2.2421 7,-3.5 15.729,-0.0572 22.896,7.7762 21.5,23.5 -0.383,0.556 -0.883,0.889 -1.5,1 z m -32,-13 c -0.58,4.149 0.086,7.816 2,11 0.254,2.514 1.087,4.848 2.5,7 1.171,1.393 2.671,2.227 4.5,2.5 4.667,0.667 9.333,0.667 14,0 1.484,-0.662 2.817,-1.496 4,-2.5 0.722,-1.051 1.722,-1.718 3,-2 -1.626,4.648 -4.959,7.315 -10,8 -14.846,0.988 -22.013,-6.012 -21.5,-21 0.232,-1.237 0.732,-2.2375 1.5,-3 z m 30,13 c 0.667,0 1.333,0 2,0 0,1.333 -0.667,2 -2,2 0,-0.333 0,-0.667 0,-1 0,-0.333 0,-0.667 0,-1 z"
       id="path9" />
  </g>
  <g
     id="g10"
     transform="translate(-44.499973,-34.5)">
    <path
       style="opacity:0.966"
       fill="#090909"
       d="m 135.5,89.5 c 2.448,0.9731 5.115,1.3064 8,1 -1.053,3.3515 -1.053,6.6849 0,10 0.464,-2.4749 1.464,-4.4749 3,-6 -1.364,4.2539 -0.03,7.254 4,9 1.786,-0.196 3.119,-1.029 4,-2.5 1.887,-0.78 3.554,-0.613 5,0.5 -1.526,0.992 -2.193,2.492 -2,4.5 0.108,1.681 0.775,2.848 2,3.5 0,0.333 0,0.667 0,1 -1.333,0 -2.667,0 -4,0 0.415,2.868 -0.585,5.035 -3,6.5 0.556,0.383 0.889,0.883 1,1.5 -10.23,6.431 -19.064,4.764 -26.5,-5 -0.216,-1.884 -0.883,-3.551 -2,-5 -0.593,-8.6017 2.907,-14.935 10.5,-19 z"
       id="path10" />
  </g>
  <g
     id="g11"
     transform="translate(-44.499973,-34.5)">
    <path
       style="opacity:0.886"
       fill="#2d2d2d"
       d="m 146.5,94.5 c -1.536,1.5251 -2.536,3.5251 -3,6 -1.053,-3.3151 -1.053,-6.6485 0,-10 -2.885,0.3064 -5.552,-0.0269 -8,-1 4.47,-0.9861 9.137,-1.3195 14,-1 0.475,2.8126 -0.525,4.8126 -3,6 z"
       id="path11" />
  </g>
  <g
     id="g12"
     transform="translate(-44.499973,-34.5)">
    <path
       style="opacity:0.995"
       fill="#0d0d0d"
       d="m 256.5,103.5 c 0.667,0 1.333,0 2,0 2,-0.667 4,-1.333 6,-2 0,3.333 0,6.667 0,10 0,0.333 0,0.667 0,1 -1,0 -2,0 -3,0 0,1.333 0,2.667 0,4 -1.183,1.004 -2.516,1.838 -4,2.5 -4.667,0.667 -9.333,0.667 -14,0 -1.829,-0.273 -3.329,-1.107 -4.5,-2.5 -1.413,-2.152 -2.246,-4.486 -2.5,-7 -0.104,-4.806 0.563,-9.472 2,-14 3.438,-2.1361 7.271,-3.4694 11.5,-4 0.5,0.3333 1,0.6667 1.5,1 -1.257,3.3231 -1.257,6.6565 0,10 1.571,0.809 3.238,1.143 5,1 z"
       id="path12" />
  </g>
  <g
     id="g13"
     transform="translate(-44.499973,-34.5)">
    <path
       style="opacity:0.433"
       fill="#383838"
       d="m 256.5,103.5 c -1.762,0.143 -3.429,-0.191 -5,-1 -1.257,-3.3435 -1.257,-6.6769 0,-10 -0.5,-0.3333 -1,-0.6667 -1.5,-1 -4.229,0.5306 -8.062,1.8639 -11.5,4 0.011,-1.5174 0.677,-2.6841 2,-3.5 4.566,-1.3092 9.233,-1.8092 14,-1.5 -1.41,3.4496 -2.076,7.1163 -2,11 1.983,-0.343 3.317,0.324 4,2 z"
       id="path13" />
  </g>
  <g
     id="g14"
     transform="translate(-44.499973,-34.5)">
    <path
       style="opacity:0.482"
       fill="#525252"
       d="m 264.5,101.5 c -2,0.667 -4,1.333 -6,2 -0.086,-0.996 0.248,-1.829 1,-2.5 1.4,-1.4381 3.067,-2.2714 5,-2.5 0,1 0,2 0,3 z"
       id="path14" />
  </g>
  <g
     id="g15"
     transform="translate(-44.499973,-34.5)">
    <path
       style="opacity:0.191"
       fill="#535353"
       d="m 159.5,101.5 c 1.13,2.697 1.13,5.363 0,8 -1.225,-0.652 -1.892,-1.819 -2,-3.5 -0.193,-2.008 0.474,-3.508 2,-4.5 z"
       id="path15" />
  </g>
  <g
     id="g16"
     transform="translate(-44.499973,-34.5)">
    <path
       style="opacity:0.237"
       fill="#494949"
       d="m 238.5,95.5 c -1.437,4.528 -2.104,9.194 -2,14 -1.914,-3.184 -2.58,-6.851 -2,-11 1.333,-1 2.667,-2 4,-3 z"
       id="path16" />
  </g>
  <g
     id="g17"
     transform="translate(-44.499973,-34.5)">
    <path
       style="opacity:0.084"
       fill="#7e7e7e"
       d="m 264.5,101.5 c 0.617,0.111 1.117,0.444 1.5,1 0.498,2.982 0.665,5.982 0.5,9 -0.667,0 -1.333,0 -2,0 0,-3.333 0,-6.667 0,-10 z"
       id="path17" />
  </g>
  <g
     id="g18"
     transform="translate(-44.499973,-34.5)">
    <path
       style="opacity:0.039"
       fill="#7f7f7f"
       d="m 264.5,112.5 c 0,0.333 0,0.667 0,1 0,0.333 0,0.667 0,1 -1.278,0.282 -2.278,0.949 -3,2 0,-1.333 0,-2.667 0,-4 1,0 2,0 3,0 z"
       id="path18" />
  </g>
  <g
     id="g19"
     transform="translate(-44.499973,-34.5)">
    <path
       style="opacity:0.039"
       fill="#777777"
       d="m 159.5,110.5 c -0.813,3.489 -2.813,6.156 -6,8 -0.111,-0.617 -0.444,-1.117 -1,-1.5 2.415,-1.465 3.415,-3.632 3,-6.5 1.333,0 2.667,0 4,0 z"
       id="path19" />
  </g>
  <g
     id="g20"
     transform="translate(-44.499973,-34.5)">
    <path
       style="opacity:0.051"
       fill="#3a3a3a"
       d="m 219.5,131.5 c 3.541,0.769 6.874,2.102 10,4 3.323,3.145 6.99,5.479 11,7 0.203,2.733 1.203,5.066 3,7 -7.705,-6.368 -15.705,-12.368 -24,-18 z"
       id="path20" />
  </g>
  <g
     id="g21"
     transform="translate(-44.499973,-34.5)">
    <path
       style="opacity:0.889"
       fill="#040404"
       d="m 185.5,156.5 c 17.987,-3.913 30.653,2.42 38,19 2.038,6.183 1.038,11.683 -3,16.5 -8.159,0.154 -16.326,-0.013 -24.5,-0.5 -8.563,0.213 -17.063,0.713 -25.5,1.5 -2.74,-2.397 -4.073,-5.397 -4,-9 0.646,-8.97 4.313,-16.47 11,-22.5 3.034,-1.248 5.7,-2.914 8,-5 z"
       id="path21" />
  </g>
  <g
     id="g22"
     transform="translate(-44.499973,-34.5)">
    <path
       style="opacity:0.069"
       fill="#626262"
       d="m 61.5,173.5 c 0.8242,3.264 1.1576,6.598 1,10 -0.9916,0.172 -1.6583,-0.162 -2,-1 0.1716,-0.992 -0.1618,-1.658 -1,-2 -0.3294,-2.728 0.3372,-5.062 2,-7 z"
       id="path22" />
  </g>
  <g
     id="g23"
     transform="translate(-44.499973,-34.5)">
    <path
       style="opacity:0.703"
       fill="#272727"
       d="m 329.5,161.5 c -0.286,5.759 0.048,11.425 1,17 -0.934,1.068 -1.268,2.401 -1,4 -0.235,0.597 -0.735,0.93 -1.5,1 -4.73,-0.804 -9.23,-2.138 -13.5,-4 0.634,-1.447 1.801,-2.113 3.5,-2 3.007,1.479 6.174,2.146 9.5,2 -0.62,-6.426 0.047,-12.426 2,-18 z"
       id="path23" />
  </g>
  <g
     id="g24"
     transform="translate(-44.499973,-34.5)">
    <path
       style="opacity:0.075"
       fill="#858585"
       d="m 330.5,178.5 c 0.624,0.417 0.957,1.084 1,2 -0.247,1.213 -0.914,1.88 -2,2 -0.268,-1.599 0.066,-2.932 1,-4 z"
       id="path24" />
  </g>
  <g
     id="g25"
     transform="translate(-44.499973,-34.5)">
    <path
       style="opacity:0.00899999"
       fill="#f9f9f9"
       d="m 59.5,180.5 c 0.8382,0.342 1.1716,1.008 1,2 -0.6556,0.778 -1.4889,1.444 -2.5,2 -1.5848,-1.701 -1.0848,-3.035 1.5,-4 z"
       id="path25" />
  </g>
  <g
     id="g26"
     transform="translate(-44.499973,-34.5)">
    <path
       style="opacity:0.492"
       fill="#808080"
       d="m 249.5,195.5 c -0.342,-0.838 -1.008,-1.172 -2,-1 0.963,-5.789 -1.204,-7.789 -6.5,-6 -0.495,1.973 -0.662,3.973 -0.5,6 -0.667,0 -1.333,0 -2,0 -0.164,-2.687 0.003,-5.354 0.5,-8 6.269,-2.635 10.435,-0.802 12.5,5.5 -0.585,1.302 -1.251,2.469 -2,3.5 z"
       id="path26" />
  </g>
  <g
     id="g27"
     transform="translate(-44.499973,-34.5)">
    <path
       style="opacity:1"
       fill="#1f1f1f"
       d="m 247.5,194.5 c -2.333,1.333 -4.667,1.333 -7,0 -0.162,-2.027 0.005,-4.027 0.5,-6 5.296,-1.789 7.463,0.211 6.5,6 z"
       id="path27" />
  </g>
  <g
     id="g28"
     transform="translate(-44.499973,-34.5)">
    <path
       style="opacity:0.102"
       fill="#6a6a6a"
       d="m 147.5,186.5 c 3.209,-1.456 6.042,-0.789 8.5,2 0.5,6.833 -2.667,10 -9.5,9.5 -2.694,-2.653 -3.527,-5.82 -2.5,-9.5 0.71,-1.473 1.876,-2.14 3.5,-2 z"
       id="path28" />
  </g>
  <g
     id="g29"
     transform="translate(-44.499973,-34.5)">
    <path
       style="opacity:0.988"
       fill="#191919"
       d="m 147.5,186.5 c 4.014,1.043 5.68,3.709 5,8 -2.333,0 -4.667,0 -7,0 -0.135,-2.917 0.532,-5.584 2,-8 z"
       id="path29" />
  </g>
  <g
     id="g30"
     transform="translate(-44.499973,-34.5)">
    <path
       style="opacity:0.222"
       fill="#b0b0b0"
       d="m 238.5,194.5 c 0.667,0 1.333,0 2,0 2.333,1.333 4.667,1.333 7,0 0.992,-0.172 1.658,0.162 2,1 -0.797,2.617 -2.631,3.95 -5.5,4 -3.603,0.229 -5.436,-1.438 -5.5,-5 z"
       id="path30" />
  </g>
  <g
     id="g31"
     transform="translate(-44.499973,-34.5)">
    <path
       style="opacity:0.247"
       fill="#b1b1b1"
       d="m 239.5,205.5 c -2,0 -4,0 -6,0 0.47,-1.193 1.47,-1.86 3,-2 1.53,0.14 2.53,0.807 3,2 z"
       id="path31" />
  </g>
  <g
     id="g32"
     transform="translate(-44.499973,-34.5)">
    <path
       style="opacity:0.096"
       fill="#929292"
       d="m 133.5,206.5 c 7.653,-2.186 10.32,0.481 8,8 0.131,-0.876 -0.202,-1.543 -1,-2 -0.765,1.112 -1.765,1.779 -3,2 1.13,-2.637 1.13,-5.303 0,-8 -1.333,0 -2.667,0 -4,0 z"
       id="path32" />
  </g>
  <g
     id="g33"
     transform="translate(-44.499973,-34.5)">
    <path
       style="opacity:0.667"
       fill="#363636"
       d="m 154.5,205.5 c 1.333,0 2.667,0 4,0 0,2 0,4 0,6 -1.667,0 -3.333,0 -5,0 -0.295,-2.235 0.039,-4.235 1,-6 z"
       id="path33" />
  </g>
  <g
     id="g34"
     transform="translate(-44.499973,-34.5)">
    <path
       style="opacity:0.996"
       fill="#121212"
       d="m 262.5,206.5 c 1.493,0.812 2.16,2.145 2,4 0.16,1.855 -0.507,3.188 -2,4 -2.333,0 -4.667,0 -7,0 0,-2.333 0,-4.667 0,-7 2.412,-0.169 4.579,0.497 6.5,2 0.5,-0.167 1,-0.333 1.5,-0.5 -0.752,-0.671 -1.086,-1.504 -1,-2.5 z"
       id="path34" />
  </g>
  <g
     id="g35"
     transform="translate(-44.499973,-34.5)">
    <path
       style="opacity:0.965"
       fill="#151515"
       d="m 130.5,207.5 c 0.709,-0.904 1.709,-1.237 3,-1 1.333,0 2.667,0 4,0 1.13,2.697 1.13,5.363 0,8 -1.788,0.285 -3.455,-0.048 -5,-1 -0.55,-2.157 -1.217,-4.157 -2,-6 z"
       id="path35" />
  </g>
  <g
     id="g36"
     transform="translate(-44.499973,-34.5)">
    <path
       style="opacity:0.196"
       fill="#838383"
       d="m 153.5,211.5 c 1.667,0 3.333,0 5,0 0,-2 0,-4 0,-6 -1.333,0 -2.667,0 -4,0 4.029,-3.137 7.029,-2.137 9,3 -1.225,4.102 -3.891,5.935 -8,5.5 -1.256,-0.417 -1.923,-1.25 -2,-2.5 z"
       id="path36" />
  </g>
  <g
     id="g37"
     transform="translate(-44.499973,-34.5)">
    <path
       style="opacity:0.165"
       fill="#949494"
       d="m 233.5,205.5 c 0,2 0,4 0,6 2,0 4,0 6,0 0,-2 0,-4 0,-6 3.336,1.201 3.836,3.201 1.5,6 -4.534,4.42 -7.701,3.587 -9.5,-2.5 0.108,-1.681 0.775,-2.848 2,-3.5 z"
       id="path37" />
  </g>
  <g
     id="g38"
     transform="translate(-44.499973,-34.5)">
    <path
       style="opacity:0.443"
       fill="#404040"
       d="m 233.5,205.5 c 2,0 4,0 6,0 0,2 0,4 0,6 -2,0 -4,0 -6,0 0,-2 0,-4 0,-6 z"
       id="path38" />
  </g>
  <g
     id="g39"
     transform="translate(-44.499973,-34.5)">
    <path
       style="opacity:0.11"
       fill="#d4d4d4"
       d="m 141.5,214.5 c -0.535,1.946 -1.868,2.946 -4,3 0,-1 0,-2 0,-3 1.235,-0.221 2.235,-0.888 3,-2 0.798,0.457 1.131,1.124 1,2 z"
       id="path39" />
  </g>
  <g
     id="g40"
     transform="translate(-44.499973,-34.5)">
    <path
       style="opacity:0.38"
       fill="#545454"
       d="m 130.5,207.5 c 0.783,1.843 1.45,3.843 2,6 1.545,0.952 3.212,1.285 5,1 0,1 0,2 0,3 -7.149,-0.132 -9.483,-3.465 -7,-10 z"
       id="path40" />
  </g>
  <g
     id="g41"
     transform="translate(-44.499973,-34.5)">
    <path
       style="opacity:0.153"
       fill="#646464"
       d="m 262.5,206.5 c -0.086,0.996 0.248,1.829 1,2.5 -0.5,0.167 -1,0.333 -1.5,0.5 -1.921,-1.503 -4.088,-2.169 -6.5,-2 0,2.333 0,4.667 0,7 2.333,0 4.667,0 7,0 -1.881,3.051 -4.548,3.717 -8,2 -0.989,-3.607 -1.323,-7.274 -1,-11 3.213,-0.31 6.213,0.023 9,1 z"
       id="path41" />
  </g>
</svg>
