<?xml version="1.0" encoding="UTF-8" standalone="no"?>
<svg
   version="1.1"
   width="80"
   height="80"
   style="clip-rule:evenodd;fill-rule:evenodd;image-rendering:optimizeQuality;shape-rendering:geometricPrecision;text-rendering:geometricPrecision"
   id="svg2"
   xmlns="http://www.w3.org/2000/svg"
   xmlns:svg="http://www.w3.org/2000/svg">
  <defs
     id="defs2">
    <clipPath
       clipPathUnits="userSpaceOnUse"
       id="clipPath3">
      <path
         id="path3"
         style="fill:#ffffff;fill-opacity:0.988406"
         d="M -130.58044,-72.560547 V 306.04102 H 289.90589 V -72.560547 Z M 72.52894,65.076172 h 79.55859 V 128.37305 H 72.52894 Z" />
    </clipPath>
  </defs>
  <g
     id="g1"
     clip-path="url(#clipPath3)"
     transform="matrix(0.36118313,0,0,0.32,-5.0012422,0.16000037)">
    <path
       style="opacity:0.918"
       fill="#000000"
       d="m 97.5,-0.5 c 11,0 22,0 33,0 28.681,6.09107 51.514,21.0911 68.5,45 7.957,12.8728 11.624,26.8728 11,42 8.618,15.571 16.951,31.238 25,47 2.005,15.663 -4.828,24.329 -20.5,26 3.405,22.681 -4.595,39.848 -24,51.5 -3,1 -6,2 -9,3 -10.63,1.238 -21.297,1.738 -32,1.5 0,11.333 0,22.667 0,34 -37.667,0 -75.3333,0 -113,0 C 40.1547,208.245 33.9881,168.578 18,130.5 5.46682,79.0541 21.3002,39.2208 65.5,11 75.7434,5.64389 86.41,1.81056 97.5,-0.5 Z m 14,15 c 28.712,0.774 52.212,12.1073 70.5,34 9.258,12.4464 13.258,26.4464 12,42 9.028,16.055 17.528,32.389 25.5,49 -0.09,1.925 -1.09,3.092 -3,3.5 -5.657,0.499 -11.324,0.666 -17,0.5 0.332,11.71 -0.168,23.376 -1.5,35 -3.909,11.908 -12.076,18.742 -24.5,20.5 -13.329,0.5 -26.663,0.667 -40,0.5 0,11.667 0,23.333 0,35 -27,0 -54,0 -81,0 C 54.5235,196.307 48.0235,159.64 33,124.5 22.8165,76.0349 39.9832,41.2016 84.5,20 c 8.9474,-2.8223 17.947,-4.6557 27,-5.5 z m -3,60 c 16.483,0.2924 23.65,8.6257 21.5,25 -6.411,12.359 -15.911,15.526 -28.5,9.5 -10.6667,-10.3333 -10.6667,-20.6667 0,-31 2.425,-1.2126 4.759,-2.3793 7,-3.5 z"
       id="path1" />
  </g>
  <g
     id="g2"
     transform="matrix(0.36118313,0,0,0.32,-5.0012422,0.16000037)">
    <path
       style="opacity:0.897"
       fill="#000000"
       d="m 104.5,41.5 c 5.011,-0.1659 10.011,7e-4 15,0.5 0.81,5.7512 1.31,11.5845 1.5,17.5 3.083,1.1392 6.083,2.4725 9,4 4.634,-3.6321 8.967,-7.6321 13,-12 3.882,3.5456 7.382,7.3789 10.5,11.5 -3.467,4.3034 -7.134,8.4701 -11,12.5 1.167,3 2.333,6 3.5,9 5.741,0.9749 11.575,1.3082 17.5,1 0,5.3333 0,10.6667 0,16 -6,0 -12,0 -18,0 -0.405,3.487 -1.405,6.82 -3,10 3.318,3.818 6.818,7.485 10.5,11 0.667,1 0.667,2 0,3 -3.333,3.333 -6.667,6.667 -10,10 -4.015,-4.182 -8.182,-8.182 -12.5,-12 -2.882,1.461 -5.882,2.627 -9,3.5 -0.975,5.741 -1.308,11.575 -1,17.5 -5.667,0 -11.333,0 -17,0 0.308,-5.925 -0.025,-11.759 -1,-17.5 -2.7837,-0.892 -5.4504,-2.058 -8,-3.5 -4.3333,4 -8.6667,8 -13,12 -4.5543,-3.367 -8.0543,-7.367 -10.5,-12 4.0156,-3.848 7.8489,-7.848 11.5,-12 -1.9211,-3.096 -3.2544,-6.43 -4,-10 -6,0 -12,0 -18,0 0,-5.3333 0,-10.6667 0,-16 6,0 12,0 18,0 0.4444,-3.8323 1.7777,-7.3323 4,-10.5 -3.8333,-3.8333 -7.6667,-7.6667 -11.5,-11.5 2.4457,-4.6331 5.9457,-8.6331 10.5,-12 4.3183,3.8179 8.485,7.8179 12.5,12 2.6549,-1.5529 5.4883,-2.7196 8.5,-3.5 0.686,-6.1653 1.353,-12.332 2,-18.5 z m 4,33 c -2.241,1.1207 -4.575,2.2874 -7,3.5 -10.6667,10.3333 -10.6667,20.6667 0,31 12.589,6.026 22.089,2.859 28.5,-9.5 2.15,-16.3743 -5.017,-24.7076 -21.5,-25 z"
       id="path2" />
  </g>
</svg>
