<?xml version="1.0" encoding="UTF-8" standalone="no"?>
<svg
   version="1.1"
   width="80"
   height="80"
   style="clip-rule:evenodd;fill-rule:evenodd;image-rendering:optimizeQuality;shape-rendering:geometricPrecision;text-rendering:geometricPrecision"
   id="svg2"
   sodipodi:docname="personalized_service.svg"
   xmlns:inkscape="http://www.inkscape.org/namespaces/inkscape"
   xmlns:sodipodi="http://sodipodi.sourceforge.net/DTD/sodipodi-0.dtd"
   xmlns="http://www.w3.org/2000/svg"
   xmlns:svg="http://www.w3.org/2000/svg">
  <sodipodi:namedview
     id="namedview1"
     pagecolor="#ffffff"
     bordercolor="#999999"
     borderopacity="1"
     inkscape:showpageshadow="2"
     inkscape:pageopacity="0"
     inkscape:pagecheckerboard="0"
     inkscape:deskcolor="#d1d1d1" />
  <defs
     id="defs2">
    <clipPath
       clipPathUnits="userSpaceOnUse"
       id="clipPath3">
      <path
         id="path3"
         style="fill:#ffffff;fill-opacity:0.988406"
         d="M -27.875,-12.775391 V 290.94141 H 261.32422 V -12.775391 Z M 34.261719,189.31445 h 26.714843 v 26.13282 H 34.261719 Z" />
    </clipPath>
    <clipPath
       clipPathUnits="userSpaceOnUse"
       id="clipPath6">
      <path
         id="path6"
         style="fill:#ffffff;fill-opacity:0.988406"
         d="m -220.30273,134.89258 v 73.29687 h 85.20507 v -73.29687 z m 42.89453,22.62695 a 18.442839,17.676001 0 0 1 18.44336,17.67578 18.442839,17.676001 0 0 1 -18.44336,17.67774 18.442839,17.676001 0 0 1 -18.44336,-17.67774 18.442839,17.676001 0 0 1 18.44336,-17.67578 z" />
    </clipPath>
    <clipPath
       clipPathUnits="userSpaceOnUse"
       id="clipPath7">
      <path
         id="path7"
         style="fill:#ffffff;fill-opacity:0.988406"
         d="m 7.33955,158.12138 v 73.29687 h 85.20507 v -73.29687 z m 42.89453,22.62695 a 18.442839,17.676001 0 0 1 18.44336,17.67578 18.442839,17.676001 0 0 1 -18.44336,17.67774 18.442839,17.676001 0 0 1 -18.44336,-17.67774 18.442839,17.676001 0 0 1 18.44336,-17.67578 z" />
    </clipPath>
  </defs>
  <g
     id="g1"
     clip-path="url(#clipPath3)"
     transform="matrix(0.32,0,0,0.32,0.15999095,0.15999916)"
     inkscape:export-filename="..\personalized_service.svg"
     inkscape:export-xdpi="96"
     inkscape:export-ydpi="96">
    <path
       style="opacity:0.914"
       fill="#000000"
       d="m 138.5,-0.5 c 16.333,0 32.667,0 49,0 12.116,3.6044 21.116,11.1044 27,22.5 11.662,0.4999 23.329,0.6665 35,0.5 0,8 0,16 0,24 -3.466,11.2456 -10.466,19.5789 -21,25 -0.833,20.3251 -1.333,40.658 -1.5,61 -1.335,10.671 -4.668,20.671 -10,30 -4.029,14.378 -5.529,29.045 -4.5,44 6.164,1.99 10.664,5.99 13.5,12 1.399,10.268 1.899,20.602 1.5,31 -20,0 -40,0 -60,0 0,-24.333 0,-48.667 0,-73 -23.01,-0.333 -46.01,0 -69,1 9.732,30.315 0.7322,53.149 -27,68.5 -4.1227,1.192 -8.1227,2.359 -12,3.5 -6,0 -12,0 -18,0 -22.1072,-4.773 -36.10719,-18.106 -42,-40 0,-8 0,-16 0,-24 4.19853,-15.023 13.1985,-26.356 27,-34 0.8325,-11.652 1.3325,-23.319 1.5,-35 3.1052,-16.6059 12.9385,-26.2725 29.5,-29 1.1479,-16.9826 10.1479,-26.8159 27,-29.5 13.3292,-0.4999 26.663,-0.6666 40,-0.5 0,5.3333 0,10.6667 0,16 -4.667,0 -9.333,0 -14,0 0,4.3333 0,8.6667 0,13 12.338,0.1665 24.671,-1e-4 37,-0.5 4.569,-2.5414 6.069,-6.3747 4.5,-11.5 -6.982,-7.2968 -11.315,-15.9635 -13,-26 -0.5,-16.3299 -0.667,-32.6633 -0.5,-49 z m 16,16 c 4.333,0 8.667,0 13,0 0.166,5.0111 -0.001,10.0111 -0.5,15 -2.957,5.789 -6.957,6.4557 -12,2 -0.499,-5.6569 -0.666,-11.3236 -0.5,-17 z m 29,1 c 5.439,0.9738 9.939,3.6404 13.5,8 2.745,4.5652 4.911,9.3985 6.5,14.5 9.994,0.4998 19.994,0.6665 30,0.5 -1.678,12.5096 -8.844,18.843 -21.5,19 -0.333,23 -0.667,46 -1,69 -0.524,5.094 -1.524,10.094 -3,15 -4.461,8.923 -7.794,18.257 -10,28 -1.372,16.632 -1.872,33.298 -1.5,50 10.995,-2.33 15.995,2.003 15,13 -9.333,0 -18.667,0 -28,0 0,-39 0,-78 0,-117 -5.333,0 -10.667,0 -16,0 0,14.667 0,29.333 0,44 -19,0 -38,0 -57,0 0,-19.333 0,-38.667 0,-58 13.671,0.167 27.337,0 41,-0.5 13.442,-5.7097 18.942,-15.8764 16.5,-30.5 -1.059,-3.1179 -2.392,-6.1179 -4,-9 -3.37,-2.9184 -5.87,-6.4184 -7.5,-10.5 13.362,0.7517 22.195,-5.0816 26.5,-17.5 0.499,-5.9908 0.666,-11.9908 0.5,-18 z m -97,57 c 2.3333,0 4.6667,0 7,0 0,4.3333 0,8.6667 0,13 -6.6998,0.33 -13.3665,-0.0033 -20,-1 1.8309,-6.8351 6.1643,-10.8351 13,-12 z m -13,29 c 6.6667,0 13.3333,0 20,0 0,19.333 0,38.667 0,58 -2.3568,0.163 -4.6902,-0.003 -7,-0.5 -3.5835,-3.416 -7.5835,-6.249 -12,-8.5 -0.9994,-16.32 -1.3328,-32.653 -1,-49 z m -18,1 c 1.3306,6.801 1.9972,13.967 2,21.5 -0.1667,7.167 -0.3333,14.333 -0.5,21.5 -4.3333,-1.333 -8.6667,-1.333 -13,0 -0.9025,-10.726 -0.5692,-21.393 1,-32 2.3566,-4.855 5.8566,-8.521 10.5,-11 z m -12,59 c 23.4379,-2.211 37.6046,8.123 42.5,31 -0.3089,27.973 -14.4756,41.14 -42.5,39.5 -17.6295,-4.971 -27.2961,-16.637 -29,-35 1.1801,-18.994 10.8468,-30.827 29,-35.5 z m 4,29 c 6.1408,-0.684 9.3075,1.983 9.5,8 -3.0983,5.819 -7.0983,6.486 -12,2 -1.5848,-3.778 -0.7515,-7.111 2.5,-10 z"
       id="path1" />
  </g>
  <g
     id="g2"
     clip-path="url(#clipPath7)"
     transform="matrix(0.32,0,0,0.32,0.15999095,0.15999916)">
    <path
       style="opacity:0.904"
       fill="#000000"
       d="m 44.5,175.5 c 16.6327,-1.688 26.2994,5.646 29,22 -3.3735,19.858 -14.7068,26.692 -34,20.5 -12.1952,-8.974 -14.6952,-20.141 -7.5,-33.5 3.2991,-4.382 7.4657,-7.382 12.5,-9 z m 3,16 c -3.2515,2.889 -4.0848,6.222 -2.5,10 4.9017,4.486 8.9017,3.819 12,-2 -0.1925,-6.017 -3.3592,-8.684 -9.5,-8 z"
       id="path2" />
  </g>
  <ellipse
     style="fill:#ffffff;fill-opacity:0.988406"
     id="path4"
     cx="-189.62566"
     cy="155.44641"
     rx="0.38796028"
     ry="0.26718101"
     clip-path="url(#clipPath6)"
     transform="matrix(0.32,0,0,0.32,73.005521,7.5932162)" />
</svg>
